SplineFontDB: 3.0
FontName: Tuffy-Bold-Italic
FullName: Tuffy Bold Italic
FamilyName: Tuffy
Weight: Bold
Copyright: Created by Thatcher Ulrich (http://tulrich.com), Karoly Barta (bartakarcsi@gmail.com) and Michael Everson with FontForge  (http://fontforge.sf.net)\n\nThis font, including hint instructions, has been donated to the Public Domain.  Do whatever you want with it.\n
FontLog: "2012-06-13: Small fixes.+AAoA-2010-08-20: Merged accented and extended characters from Karoly Barta and Michael Everson.+AAoA-2004-9-1: Created.+AAoA" 
Version: 001.280
DefaultBaseFilename: Tuffy_Bold_Italic
ItalicAngle: 0
UnderlinePosition: -204
UnderlineWidth: 102
Ascent: 1597
Descent: 451
LayerCount: 2
Layer: 0 0 "Back"  1
Layer: 1 0 "Fore"  0
NeedsXUIDChange: 1
XUID: [1021 745 1046372284 8541740]
FSType: 0
OS2Version: 0
OS2_WeightWidthSlopeOnly: 0
OS2_UseTypoMetrics: 1
CreationTime: 1166531129
ModificationTime: 1339642775
PfmFamily: 33
TTFWeight: 700
TTFWidth: 5
LineGap: 0
VLineGap: 0
Panose: 2 11 8 3 6 1 0 0 0 0
OS2TypoAscent: 1597
OS2TypoAOffset: 0
OS2TypoDescent: -505
OS2TypoDOffset: 0
OS2TypoLinegap: 0
OS2WinAscent: 1950
OS2WinAOffset: 0
OS2WinDescent: 451
OS2WinDOffset: 0
HheadAscent: 1950
HheadAOffset: 0
HheadDescent: -505
HheadDOffset: 0
OS2Vendor: 'PfEd'
Lookup: 1 0 0 "'locl' Localized Forms lookup 2"  {"'locl' Localized Forms lookup 2-1"  } ['locl' ('DFLT' <'MOL ' 'ROM ' 'dflt' > 'latn' <'MOL ' 'ROM ' 'dflt' > ) ]
Lookup: 2 0 0 "'frac' Diagonal Fractions in Latin lookup 1"  {"'frac' Diagonal Fractions in Latin lookup 1-2"  "'frac' Diagonal Fractions in Latin lookup 1-1"  } ['frac' ('latn' <'dflt' > ) ]
Lookup: 4 0 1 "'liga' Standard Ligatures in Latin lookup 2"  {"'liga' Standard Ligatures in Latin lookup 2-1"  } ['liga' ('latn' <'dflt' > ) ]
Lookup: 258 0 0 "'kern' Horizontal Kerning in Latin lookup 0"  {"'kern' Horizontal Kerning in Latin lookup 0 subtable" [307,30,0] } ['kern' ('latn' <'dflt' > ) ]
MarkAttachClasses: 1
DEI: 91125
ShortTable: cvt  2
  33
  633
EndShort

StartChar: exclam
Encoding: 33 33 1
Width: 457
Flags: W
HStem: -33 328<176.75 345.647> 1463 20G<520.5 570.953>
VStem: 97 571.864
LayerCount: 2
Fore
SplineSet
97 131 m 0
 116 222 206 295 296 295 c 0
 375.20237678 295 428.649100792 239.701098466 428.649100792 165.365412502 c 0
 428.649100792 154.292709252 427.463240013 142.79762322 425 131 c 0
 406 41 317 -33 226 -33 c 0
 147.535969452 -33 93.3943254317 23.2455188455 93.3943254317 97.3028468796 c 0
 93.3943254317 108.190932387 94.5646286713 119.464030548 97 131 c 0
426 440 m 1
 419 406 343 381 314 381 c 1
 283.686989939 381 226.45370901 403.433559057 226.45370901 434.700103142 c 0
 226.45370901 436.440159481 226.630970951 438.20757319 227 440 c 1
 387 1389 l 1
 398 1442 495 1483 546 1483 c 1
 595.905761516 1483 668.864285882 1444.87427683 668.864285882 1399.51341854 c 0
 668.864285882 1396.70097145 668.583818582 1393.86071105 668 1391 c 1
 426 440 l 1
EndSplineSet
EndChar

StartChar: quotedbl
Encoding: 34 34 2
Width: 874
Flags: W
HStem: 1044 498<459.979 570.324 834.143 945.324>
VStem: 380.988 191.012<1057.94 1145.62> 755 192<1057.94 1145.62>
LayerCount: 2
Back
SplineSet
442.368 1091.58 m 1
 421.886 1466.37 l 1
 421.89 1515.74 458.062 1542.25 493.697 1542.25 c 0
 495.021 1542.25 496.343 1542.22 497.664 1542.14 c 0
 529.511 1542.14 561.359 1523.8 569.437 1485.79 c 0
 570.71 1479.81 571.39 1473.33 571.39 1466.37 c 1
 550.912 1091.58 l 1
 548.864 1060.86 520.192 1044.48 495.616 1044.48 c 0
 473.258 1044.48 449.204 1056.35 443.505 1083.16 c 0
 442.938 1085.82 442.553 1088.63 442.368 1091.58 c 1
149.504 1091.58 m 1
 129.021 1466.37 l 1
 129.026 1515.74 165.198 1542.25 200.834 1542.25 c 0
 202.156 1542.25 203.48 1542.22 204.8 1542.14 c 0
 236.646 1542.14 268.495 1523.8 276.572 1485.79 c 0
 277.846 1479.81 278.526 1473.33 278.526 1466.37 c 1
 258.048 1091.58 l 1
 256 1060.86 227.328 1044.48 202.752 1044.48 c 0
 180.394 1044.48 156.34 1056.35 150.64 1083.16 c 0
 150.074 1085.82 149.688 1088.63 149.504 1091.58 c 1
EndSplineSet
Fore
SplineSet
756 1092 m 1
 816 1466 l 1
 827 1516 909 1542 945 1542 c 0
 946 1542 947 1542 949 1542 c 0
 982.967304621 1542 1049.27254249 1523.71028856 1049.27254249 1482.45984838 c 0
 1049.27254249 1477.32623792 1047.80901699 1471.66311896 1047 1466 c 1
 947 1092 l 1
 938 1061 865 1044 840 1044 c 0
 818 1044 755 1056 755 1083 c 0
 756 1086 755 1089 756 1092 c 1
382 1092 m 2
 441 1466 l 1
 452 1516 534 1542 570 1542 c 0
 571 1542 572 1542 574 1542 c 0
 608.954799622 1542 674.272542486 1523.71028856 674.272542486 1482.45984838 c 0
 674.272542486 1477.32623792 672.809016994 1471.66311896 672 1466 c 1
 572 1092 l 1
 563 1061 490 1044 466 1044 c 0
 443.180842809 1044 380.988231181 1055.81203633 380.988231181 1082.36589936 c 0
 380.988231181 1085.67040675 380.929186812 1088.78756044 382 1092 c 2
EndSplineSet
EndChar

StartChar: numbersign
Encoding: 35 35 3
Width: 1565
Flags: HMW
LayerCount: 2
Back
SplineSet
958.464 546.816 m 0
 958.464 884.736 l 0
 616.448 884.736 l 0
 616.448 546.816 l 0
 958.464 546.816 l 0
1107.97 405.504 m 0
 1107.97 53.248 l 1
 958.464 53.248 l 1
 958.464 405.504 l 0
 616.448 405.504 l 0
 616.448 53.248 l 1
 466.944 53.248 l 1
 466.944 405.504 l 0
 118.784 405.504 l 1
 118.784 546.816 l 1
 466.944 546.816 l 0
 466.944 884.736 l 0
 118.784 884.736 l 1
 118.784 1024 l 1
 466.944 1024 l 0
 466.944 1402.88 l 1
 616.448 1402.88 l 1
 616.448 1024 l 0
 958.464 1024 l 0
 958.464 1402.88 l 1
 1107.97 1402.88 l 1
 1107.97 1024 l 0
 1468.42 1024 l 1
 1468.42 884.736 l 1
 1107.97 884.736 l 0
 1107.97 546.816 l 0
 1468.42 546.816 l 1
 1468.42 405.504 l 1
 1107.97 405.504 l 0
EndSplineSet
Fore
SplineSet
1003 596 m 0
 1054 836 l 0
 869 836 l 0
 818 596 l 0
 1003 596 l 0
1206 356 m 0
 1140 47 l 1
 886 47 l 1
 952 356 l 0
 767 356 l 0
 701 47 l 1
 447 47 l 1
 513 356 l 0
 195 356 l 1
 246 596 l 1
 564 596 l 0
 615 836 l 0
 297 836 l 1
 347 1073 l 1
 665 1073 l 0
 735 1403 l 1
 989 1403 l 1
 919 1073 l 0
 1104 1073 l 0
 1174 1403 l 1
 1428 1403 l 1
 1358 1073 l 0
 1669 1073 l 1
 1619 836 l 1
 1308 836 l 0
 1257 596 l 0
 1568 596 l 1
 1517 356 l 1
 1206 356 l 0
EndSplineSet
EndChar

StartChar: dollar
Encoding: 36 36 4
Width: 927
Flags: W
HStem: -26 251<417.914 428 648 749.664> 1073 21G<922.5 1003.78>
VStem: 255.16 279.864<913.617 1106.59> 827.523 281.212<298.874 534.416>
LayerCount: 2
Back
SplineSet
18.4316 343.497 m 1
 266.127 426.394 l 1
 333.824 282.624 372.736 212.992 530.432 212.992 c 1
 684.032 212.992 741.376 278.528 741.376 393.216 c 1
 741.376 507.371 649.912 578.865 464.896 626.688 c 0
 277.113 675.808 45.0557 769.688 45.0557 1028.1 c 1
 45.0557 1301.06 265.624 1409.64 513.186 1409.64 c 1
 742.695 1409.64 879.372 1331.23 968.09 1151.04 c 1
 705.098 1073.14 l 1
 662.622 1149.38 624.193 1169.41 509.952 1169.41 c 1
 400.085 1169.41 319.488 1156.44 319.488 1028.1 c 1
 319.488 897.611 480.215 863.31 583.537 831.054 c 0
 791.046 760.94 1015.81 671.55 1015.81 393.216 c 1
 1015.81 122.88 811.008 -28.6719 530.432 -28.6719 c 1
 253.952 -28.6719 114.688 102.4 18.4316 343.497 c 1
EndSplineSet
Fore
SplineSet
759 1537 m 1
 929 1537 l 1
 900 1404 l 1
 1065 1391 1166 1309 1217 1155 c 1
 935 1073 l 1
 910 1128 902 1145 848 1159 c 1
 777 823 l 1
 939.031877557 764.318184885 1108.73485207 684.924407979 1108.73485207 480.006717954 c 0
 1108.73485207 450.959504121 1105.32496878 419.390107658 1098 385 c 0
 1052 170 866 0 596 -26 c 1
 569 -155 l 1
 401 -155 l 1
 428 -26 l 1
 211 -8 111 186 93 344 c 1
 357 426 l 1
 377 348 403 238 482 225 c 1
 570 639 l 1
 394.67845468 679.591687833 255.159935984 769.412537274 255.159935984 955.488827338 c 0
 255.159935984 984.865160703 258.637258361 1016.64053902 266 1051 c 0
 309 1255 527 1393 731 1405 c 1
 759 1537 l 1
622 885 m 1
 682 1167 l 1
 590 1157 548 1077 541 1044 c 0
 536.983537422 1025.52427214 535.023901228 1009.26669038 535.023901228 994.83849396 c 0
 535.023901228 937.421397964 566.057619024 908.975306133 622 885 c 1
725 578 m 1
 648 217 l 1
 756 240 806 309 823 387 c 0
 825.328443139 398.124783888 827.523018441 412.797065493 827.523018441 429.33710848 c 0
 827.523018441 476.728361197 809.5063869 539.453227028 725 578 c 1
EndSplineSet
EndChar

StartChar: percent
Encoding: 37 37 5
Width: 1435
Flags: W
HStem: 63 207<1020.54 1166.36> 479 205<1049.47 1187.85> 768 207<539.199 685.495> 1184 205<568.509 706.534>
VStem: 315.634 218.395<980.963 1148.04> 713.9 223.464<1002.73 1177.42> 796.889 219.075<275.977 443.922> 1195.83 221.489<298.456 472.727>
LayerCount: 2
Back
SplineSet
880.64 372.736 m 0
 880.64 286.72 935.937 219.136 1021.95 219.136 c 0
 1101.82 219.136 1169.41 282.624 1169.41 372.736 c 0
 1169.41 452.608 1105.92 522.24 1021.95 522.24 c 0
 944.128 522.24 880.64 452.608 880.64 372.736 c 0
751.616 372.736 m 0
 751.616 522.24 872.448 643.072 1024 643.072 c 0
 1175.55 643.072 1298.43 522.24 1298.43 372.736 c 0
 1298.43 223.232 1175.55 104.448 1024 104.448 c 0
 872.448 104.448 751.616 223.232 751.616 372.736 c 0
221.184 1077.25 m 0
 221.184 991.232 278.528 923.648 364.544 923.648 c 0
 444.416 923.648 512 987.136 512 1077.25 c 0
 512 1157.12 448.512 1226.75 364.544 1226.75 c 0
 286.72 1226.75 221.184 1157.12 221.184 1077.25 c 0
94.208 1077.25 m 0
 94.208 1226.75 215.04 1347.58 366.592 1347.58 c 0
 518.144 1347.58 641.024 1226.75 641.024 1077.25 c 0
 641.024 927.744 518.144 808.96 366.592 808.96 c 0
 215.04 808.96 94.208 927.744 94.208 1077.25 c 0
413.696 137.216 m 1
 264.192 137.216 l 1
 985.088 1318.91 l 0
 1128.45 1318.91 l 1
 413.696 137.216 l 1
EndSplineSet
Fore
SplineSet
1019 371 m 0xfb
 1016.94415377 361.037052866 1015.96369014 351.699328178 1015.96369014 343.038240385 c 0
 1015.96369014 296.93154475 1043.74895888 270 1085 270 c 0
 1134 270 1179 305 1193 371 c 0
 1194.9084108 380.223985532 1195.83043799 389.245635965 1195.83043799 397.89601571 c 0
 1195.83043799 443.638828962 1170.04828833 479 1128 479 c 0
 1081 479 1031 429 1019 371 c 0xfb
804 370 m 0
 841 544 1004 684 1173 684 c 0
 1317.67464207 684 1417.31916031 578.929711063 1417.31916031 438.357468926 c 0
 1417.31916031 416.665169739 1414.94633679 394.127466597 1410 371 c 0
 1374 200 1208 63 1041 63 c 0
 894.533333333 63 796.888888889 165.151111111 796.888888889 303.706074074 c 0
 796.888888889 325.022222222 799.2 347.2 804 370 c 0
537 1075 m 0
 534.987496091 1065.24709644 534.029474829 1056.11729627 534.029474829 1047.65141006 c 0
 534.029474829 1001.43093256 562.585591656 975 604 975 c 0
 653 975 697 1009 711 1075 c 0
 712.953306687 1084.44098232 713.899769856 1093.69649346 713.899769856 1102.57676663 c 0xfd
 713.899769856 1148.25181685 688.861222139 1184 647 1184 c 0
 601 1184 549 1133 537 1075 c 0
323 1076 m 0
 360 1249 524 1389 692 1389 c 0
 838.282138931 1389 937.363436059 1283.36002073 937.363436059 1142.76718257 c 0
 937.363436059 1120.93287943 934.973732897 1098.25556192 930 1075 c 0
 894 904 729 768 560 768 c 0
 414.594925565 768 315.634133005 869.877779595 315.634133005 1008.79814041 c 0
 315.634133005 1030.3853871 318.023736631 1052.86710002 323 1076 c 0
510 119 m 1
 300 119 l 1
 1230 1337 l 0
 1431 1337 l 1
 510 119 l 1
EndSplineSet
EndChar

StartChar: ampersand
Encoding: 38 38 6
Width: 1284
Flags: W
HStem: -53 241<464.599 755.591> 358 217<720 848 1091.89 1261> 707 239<639.315 877> 1278 242<687.275 919.176>
VStem: 132.445 272.519<246.463 510.723> 336.873 271.292<976.813 1199.41>
LayerCount: 2
Back
SplineSet
751.616 1228.8 m 17xf4
 729.088 1292.29 626.688 1351.68 540.672 1351.68 c 1
 432.128 1351.68 319.488 1282.05 319.488 1134.59 c 1xf4
 319.488 978.944 425.984 897.024 557.056 897.024 c 1
 727.04 897.024 l 1
 727.04 755.712 l 1
 561.152 755.712 l 2
 374.784 755.712 237.568 630.784 237.568 430.08 c 0
 237.568 247.808 385.024 110.592 550.912 110.592 c 1
 720.896 110.592 833.536 256 833.536 407.552 c 1xfa
 618.496 407.552 l 1
 618.496 546.816 l 1
 1140.74 546.816 l 1
 1140.74 405.504 l 1xf1
 983.04 405.504 l 1
 983.04 231.424 862.208 -30.7197 550.912 -30.7197 c 1
 315.392 -30.7197 79.8721 126.976 79.8721 415.744 c 0xfa
 79.8721 696.32 245.76 802.816 354.304 827.392 c 1
 266.24 856.064 161.792 958.464 161.792 1134.59 c 0
 161.792 1339.39 323.584 1492.99 542.72 1492.99 c 0
 714.752 1492.99 825.344 1409.02 876.544 1304.58 c 9
 751.616 1228.8 l 17xf4
EndSplineSet
Fore
SplineSet
959 1167 m 17xf4
 946 1214 899 1278 813 1278 c 1
 731 1278 636 1227 613 1118 c 1
 609.726386758 1102.58673765 608.164443684 1088.17815127 608.164443684 1074.7869296 c 0xf4
 608.164443684 990.002436415 670.776455726 946 758 946 c 1
 928 946 l 1
 877 707 l 1
 711 707 l 2
 568 707 444 585 411 428 c 0
 406.942403509 409.016244988 404.963818292 390.494492482 404.963818292 372.699502088 c 0
 404.963818292 267.697725447 473.853239974 188 591 188 c 1
 749 188 830 272 848 358 c 1
 674 358 l 1
 720 575 l 1
 1306 575 l 1
 1261 360 l 1
 1103 360 l 1
 1068 197 874 -53 540 -53 c 1
 307.016028553 -53 132.444517238 91.8629011261 132.444517238 303.232893704 c 0xf8
 132.444517238 331.371557855 135.538327385 360.688881186 142 391 c 0
 208 701 394 795 474 828 c 1
 419.845127109 852.068832396 336.872602401 926.383826933 336.872602401 1052.21532653 c 0
 336.872602401 1072.76741258 339.086040495 1094.69379206 344 1118 c 0
 396 1364 626 1520 866 1520 c 0
 1061 1520 1164 1410 1193 1274 c 9
 959 1167 l 17xf4
EndSplineSet
EndChar

StartChar: quotesingle
Encoding: 39 39 7
Width: 464
Flags: W
HStem: 1044 498<459.979 570.324>
VStem: 380.988 191.012<1057.94 1145.62>
LayerCount: 2
Back
SplineSet
118.784 1050.62 m 1
 118.784 1548.29 l 1
 268.288 1548.29 l 1
 268.288 1050.62 l 1
 118.784 1050.62 l 1
EndSplineSet
Fore
SplineSet
382 1092 m 2
 441 1466 l 1
 452 1516 534 1542 570 1542 c 0
 571 1542 572 1542 574 1542 c 0
 608.954799622 1542 674.272542486 1523.71028856 674.272542486 1482.45984838 c 0
 674.272542486 1477.32623792 672.809016994 1471.66311896 672 1466 c 1
 572 1092 l 1
 563 1061 490 1044 466 1044 c 0
 443.180842809 1044 380.988231181 1055.81203633 380.988231181 1082.36589936 c 0
 380.988231181 1085.67040675 380.929186812 1088.78756044 382 1092 c 2
EndSplineSet
EndChar

StartChar: parenleft
Encoding: 40 40 8
Width: 653
Flags: W
VStem: 146.936 269.1<122.339 752.874>
LayerCount: 2
Back
SplineSet
268.288 -83.9678 m 1
 104.448 167.936 30.7197 458.752 30.7197 739.328 c 0
 30.7197 997.376 110.592 1314.82 268.288 1562.62 c 1
 446.464 1562.62 l 1
 262.144 1294.34 182.272 997.376 182.272 729.088 c 0
 182.272 466.944 272.384 169.984 446.464 -83.9678 c 1
 268.288 -83.9678 l 1
EndSplineSet
Fore
SplineSet
271 -84 m 1
 181.212234064 71.196072247 146.935600848 230.281459525 146.935600848 394.72785982 c 0
 146.935600848 506.838139444 162.866499921 621.440080274 188 739 c 0
 245 1006 368 1307 621 1563 c 1
 885 1563 l 1
 644 1294 501 997 444 729 c 0
 425.477498972 642.341155905 416.035320865 551.853259975 416.035320865 460.358782665 c 0
 416.035320865 275.233449206 454.691073632 85.98722748 535 -84 c 1
 271 -84 l 1
EndSplineSet
EndChar

StartChar: parenright
Encoding: 41 41 9
Width: 643
Flags: W
VStem: 525.444 267.355<688.464 1345.28>
LayerCount: 2
Back
SplineSet
256 -96.2559 m 1
 79.8721 -96.2559 l 1
 251.904 155.648 344.064 464.896 344.064 727.04 c 0
 344.064 972.8 253.952 1294.34 79.8721 1550.34 c 1
 256 1550.34 l 1
 413.696 1302.53 495.616 985.088 495.616 727.04 c 0
 495.616 452.608 417.792 151.552 256 -96.2559 c 1
EndSplineSet
Fore
SplineSet
320 -96 m 1
 60 -96 l 1
 286 156 443 465 499 727 c 0
 516.333333333 809 525.444444444 899.222222222 525.444444444 992.555555556 c 0
 525.444444444 1179.22222222 489 1378.33333333 409 1549 c 1
 670 1549 l 1
 758.743955179 1392.32101706 792.799611723 1219.53520645 792.799611723 1047.83643656 c 0
 792.799611723 938.99416471 779.114445206 830.588717016 757 727 c 0
 697 443 579 160 320 -96 c 1
EndSplineSet
EndChar

StartChar: asterisk
Encoding: 42 42 10
Width: 1172
Flags: W
HStem: 604 231<271.087 537 938 1205.34>
LayerCount: 2
Back
SplineSet
620.813 645.394 m 5
 826 332 l 5
 851 288.699 797.315 227.682 766.139 209.682 c 4
 765.272 209.182 764.406 208.682 762.675 207.682 c 4
 734.962 191.682 663.608 171.271 637.68 200.18 c 4
 632.947 204.376 629.447 210.438 625.947 216.5 c 5
 456.269 550.394 l 5
 442.5 578.24 494.622 627.963 515.406 639.963 c 4
 535.325 651.463 597.617 673.57 615.447 652.688 c 4
 617.813 650.59 619.313 647.991 620.813 645.394 c 5
572.675 551.712 m 5
 403.861 217.318 l 5
 378.861 174.017 299.177 190 268 208 c 4
 267.134 208.5 266.268 209 264.536 210 c 4
 236.823 226 183.47 277.589 195.541 314.498 c 4
 196.809 320.693 200.309 326.756 203.809 332.818 c 5
 408.13 646.712 l 5
 425.361 672.559 494.483 652.281 515.268 640.281 c 4
 535.187 628.781 585.479 585.889 576.309 560.006 c 4
 575.675 556.908 574.175 554.31 572.675 551.712 c 5
411.455 635 m 5
 206.269 948.394 l 5
 181.269 991.695 234.953 1052.71 266.13 1070.71 c 4
 266.996 1071.21 267.862 1071.71 269.594 1072.71 c 4
 297.307 1088.71 368.66 1109.12 394.589 1080.21 c 4
 399.321 1076.02 402.821 1069.96 406.321 1063.89 c 5
 576 730 l 5
 589.769 702.153 537.646 652.431 516.862 640.431 c 4
 496.943 628.931 434.651 606.823 416.821 627.706 c 4
 414.455 629.804 412.955 632.402 411.455 635 c 5
459.455 729 m 5
 628.269 1063.39 l 5
 653.269 1106.7 732.953 1090.71 764.13 1072.71 c 4
 764.996 1072.21 765.862 1071.71 767.594 1070.71 c 4
 795.307 1054.71 848.66 1003.12 836.589 966.214 c 4
 835.321 960.019 831.821 953.956 828.321 947.894 c 5
 624 634 l 5
 606.769 608.153 537.646 628.431 516.862 640.431 c 4
 496.943 651.931 446.651 694.823 455.821 720.706 c 4
 456.455 723.804 457.955 726.402 459.455 729 c 5
564 734 m 5
 938 755 l 5
 988 755 1014 678 1014 642 c 4
 1014 641 1014 640 1014 638 c 4
 1014 606 996 534 958 526 c 4
 952 524 945 524 938 524 c 5
 564 544 l 5
 533 546 516 616 516 640 c 4
 516 663 528 728 555 733 c 4
 558 734 561 734 564 734 c 5
468 545 m 5
 94 524 l 5
 44 524 18 601 18 637 c 4
 18 638 18 639 18 641 c 4
 18 673 36 745 74 753 c 4
 80 755 87 755 94 755 c 5
 468 735 l 5
 499 733 516 663 516 639 c 4
 516 616 504 551 477 546 c 4
 474 545 471 545 468 545 c 5
EndSplineSet
Fore
SplineSet
938 821 m 1
 1184 835 l 2
 1224.08936415 835 1238.46421441 785.499560773 1238.46421441 747.320514467 c 0
 1238.46421441 737.882135156 1237.58570174 729.135657814 1236 722 c 0
 1236 721 1236 720 1236 718 c 0
 1229 686 1196 614 1156 606 c 0
 1150 604 1142 604 1135 604 c 2
 892 617 l 1
 983 412 l 2
 985 404 985 396 983 387 c 0
 975 348 926 304 897 290 c 0
 896 289 894 289 893 288 c 0
 873 278 836 266 806 266 c 0
 789 266 774 270 767 280 c 0
 763 284 760 290 758 296 c 2
 693 516 l 1
 536 297 l 2
 520 277 494 270 469 270 c 0
 440 270 412 279 398 288 c 0
 397 288 397 289 396 290 c 0
 375.85484886 302.819641634 343.132411116 340.793856478 343.132411116 373.978758945 c 0
 343.132411116 377.034232596 343.409820817 380.049104086 344 383 c 0
 345 387 346 391 349 394 c 0
 351 401 356 407 361 413 c 2
 537 618 l 1
 291 604 l 2
 250.910635852 604 236.535785589 653.500439227 236.535785589 691.679485533 c 0
 236.535785589 701.117864844 237.414298264 709.864342186 239 717 c 0
 239 718 240 719 240 721 c 0
 247 753 280 825 320 833 c 0
 326 835 333 835 340 835 c 2
 586 822 l 1
 494 1028 l 2
 492 1036 491 1045 493 1053 c 0
 501 1092 552 1136 580 1151 c 0
 581 1151 582 1152 584 1153 c 0
 603 1163 641 1175 671 1175 c 0
 689 1175 703 1171 711 1160 c 0
 714 1156 716 1150 718 1144 c 2
 784 925 l 1
 940 1143 l 2
 956 1164 982 1171 1008 1171 c 0
 1036 1171 1064 1162 1078 1153 c 0
 1079 1152 1080 1152 1082 1151 c 0
 1102.0539557 1137.32684838 1132.90976019 1100.38817631 1132.90976019 1067.45081138 c 0
 1132.90976019 1064.25455563 1132.61919591 1061.09597956 1132 1058 c 0
 1131 1054 1130 1050 1128 1046 c 0
 1125 1040 1121 1034 1116 1028 c 2
 938 821 l 1
EndSplineSet
EndChar

StartChar: plus
Encoding: 43 43 11
Width: 972
Flags: W
HStem: 520 240<230 445 736 972>
LayerCount: 2
Back
SplineSet
67.584 710.656 m 1
 374.784 710.656 l 1
 374.784 1021.95 l 1
 516.096 1021.95 l 1
 516.096 710.656 l 1
 823.296 710.656 l 1
 823.296 569.344 l 1
 516.096 569.344 l 1
 516.096 258.048 l 1
 374.784 258.048 l 1
 374.784 569.344 l 1
 67.584 569.344 l 1
 67.584 710.656 l 1
EndSplineSet
Fore
SplineSet
230 760 m 1
 496 760 l 1
 560 1062 l 1
 800 1062 l 1
 736 760 l 1
 1023 760 l 1
 972 520 l 1
 684 520 l 1
 623 233 l 1
 384 233 l 1
 445 520 l 1
 179 520 l 1
 230 760 l 1
EndSplineSet
EndChar

StartChar: comma
Encoding: 44 44 12
Width: 444
Flags: W
HStem: -205 503
LayerCount: 2
Back
SplineSet
308.224 94.208 m 1
 308.224 -63.4883 206.848 -186.368 184.32 -221.184 c 1
 129.024 -190.464 l 1
 149.504 -159.744 200.704 -83.9678 200.704 -12.2881 c 0
 141.352 -12.2881 93.1836 34.8555 93.1836 94.208 c 0
 93.1836 153.561 141.352 201.728 200.704 201.728 c 0
 260.055 201.728 308.224 153.561 308.224 94.208 c 1
EndSplineSet
Fore
SplineSet
411 137 m 1
 376 -27 213 -169 159 -205 c 1
 95 -162 l 1
 108 -146 158 -74 165 -40 c 0
 166 -36 166 -32 166 -29 c 1
 122.340124561 -18.0850311403 80.090149066 20.3229866133 80.090149066 92.1429047902 c 0
 80.090149066 105.862299488 81.6318727733 120.80091191 85 137 c 1
 102 215 192 298 278 298 c 1
 375.928761278 298 414.395634662 232.011807336 414.395634662 169.195469811 c 0
 414.395634662 158.245135308 413.226683312 147.391188787 411 137 c 1
EndSplineSet
EndChar

StartChar: hyphen
Encoding: 45 45 13
Width: 960
Flags: W
HStem: 514 240<258 979>
LayerCount: 2
Back
SplineSet
98.3037 704.512 m 1
 776.192 704.512 l 1
 776.192 563.2 l 1
 98.3037 563.2 l 1
 98.3037 704.512 l 1
EndSplineSet
Fore
SplineSet
258 754 m 1
 1030 754 l 1
 979 514 l 1
 207 514 l 1
 258 754 l 1
EndSplineSet
EndChar

StartChar: period
Encoding: 46 46 14
Width: 451
Flags: W
HStem: -33 328<171.75 340.647>
VStem: 88.3943 335.255<49.6232 212.821>
LayerCount: 2
Back
SplineSet
93.1836 94.208 m 0
 93.1836 153.561 141.352 201.728 200.704 201.728 c 0
 260.055 201.728 308.224 153.561 308.224 94.208 c 0
 308.224 34.8555 260.055 -13.3115 200.704 -13.3115 c 0
 141.352 -13.3115 93.1836 34.8555 93.1836 94.208 c 0
EndSplineSet
Fore
SplineSet
92 131 m 0
 111 222 201 295 291 295 c 0
 370.20237678 295 423.649100792 239.701098466 423.649100792 165.365412502 c 0
 423.649100792 154.292709252 422.463240013 142.79762322 420 131 c 0
 401 41 312 -33 221 -33 c 0
 142.535969452 -33 88.3943254317 23.2455188455 88.3943254317 97.3028468796 c 0
 88.3943254317 108.190932387 89.5646286713 119.464030548 92 131 c 0
EndSplineSet
EndChar

StartChar: slash
Encoding: 47 47 15
Width: 847
Flags: W
HStem: 0 21G<-42 257.487>
LayerCount: 2
Back
SplineSet
124.928 0 m 1
 -32.7676 0 l 1
 684.032 1544.19 l 0
 841.729 1544.19 l 1
 124.928 0 l 1
EndSplineSet
Fore
SplineSet
245 0 m 1
 -42 0 l 1
 941 1544 l 0
 1209 1544 l 1
 245 0 l 1
EndSplineSet
EndChar

StartChar: zero
Encoding: 48 48 16
Width: 1177
Flags: W
HStem: -28 242<512.82 764.969> 1248 242<706.808 983.267>
VStem: 207.085 257.266<266.457 755.964> 1024.49 258.629<756.035 1203.11>
LayerCount: 2
Back
SplineSet
90.1123 727.04 m 1
 90.1123 1136.64 268.288 1492.99 571.392 1492.99 c 1
 874.496 1492.99 1038.34 1136.64 1038.34 727.04 c 1
 1038.34 319.488 866.304 -30.7197 563.2 -30.7197 c 1
 260.096 -30.7197 90.1123 319.488 90.1123 727.04 c 1
247.808 727.04 m 1
 247.808 448.512 342.016 110.592 563.2 110.592 c 1
 786.432 110.592 880.64 448.512 880.64 727.04 c 1
 880.64 1007.62 794.624 1351.68 571.392 1351.68 c 1
 350.208 1351.68 247.808 1007.62 247.808 727.04 c 1
EndSplineSet
Fore
SplineSet
241 756 m 1
 339 1216 587 1490 907 1490 c 1
 1154.65499431 1490 1283.11793545 1325.88631874 1283.11793545 1038.45086322 c 0
 1283.11793545 954.485184593 1272.15565799 859.995945674 1250 756 c 1
 1152 297 899 -28 579 -28 c 0
 578 -28 l 1
 331.935827854 -28 207.085066322 163.576317262 207.085066322 461.25120519 c 0
 207.085066322 550.69469905 218.35715272 649.717247459 241 756 c 1
509 756 m 1
 481.152484719 624.288779075 464.35094467 514.952738749 464.35094467 429.803816094 c 0
 464.35094467 288.684067636 510.500377074 214 629 214 c 1
 819 214 908 406 982 756 c 1
 1008.83208823 882.908525396 1024.48874156 982.470104228 1024.48874156 1057.83112391 c 0
 1024.48874156 1190.30765341 976.106800499 1248 855 1248 c 1
 665 1248 583 1106 509 756 c 1
EndSplineSet
EndChar

StartChar: one
Encoding: 49 49 17
Width: 1177
Flags: W
HStem: 0 21G<502 774.245> 1436 20G<787.636 1079>
VStem: 485 594
LayerCount: 2
Back
SplineSet
571.392 1275.9 m 1
 362.496 1099.78 l 1
 272.384 1196.03 l 1
 573.44 1456.13 l 1
 729.088 1456.13 l 1
 729.088 0 l 1
 571.392 0 l 1
 571.392 1275.9 l 1
EndSplineSet
Fore
SplineSet
754 1184 m 1
 758 1206 l 1
 485 1206 l 1
 524 1236 l 1
 814 1456 l 1
 1079 1456 l 1
 770 0 l 1
 502 0 l 1
 754 1184 l 1
EndSplineSet
EndChar

StartChar: two
Encoding: 50 50 18
Width: 1177
Flags: W
HStem: 0 240<453 1061> 1076 21G<524.183 616.5> 1252 240<691.015 950.936>
VStem: 987.239 269.101<951.285 1215.04>
LayerCount: 2
Back
SplineSet
725 1176 m 5
 942 1322 l 5
240 1112 m 21
 274 1230 408 1368 570 1368 c 5
 788 1368 893.694 1219.53 893 1040 c 28
 892.165 823.919 712 704 567 592 c 4
 422 480 243 336 243 146 c 5
188 398 m 5
 412 265 l 5
719 896 m 5
 931 751 l 5
485 686 m 5
 642 488 l 5
262.144 1110.02 m 9
 122.878 1165.31 l 17
 174.08 1347.58 366.592 1495.04 569.344 1495.04 c 0
 780.288 1495.04 989.182 1359.87 989.182 1052.67 c 0
 989.182 772.096 688.697 610.386 591.872 540.672 c 0
 489.472 466.944 272.384 274.432 272.384 141.312 c 1
 1036.29 141.312 l 17
 1036.29 0 l 1
 88.0645 0 l 1
 88.0645 325.632 333.824 528.384 544.771 675.84 c 0
 652.012 750.805 835.582 849.92 835.582 1052.67 c 0
 835.582 1249.28 702.464 1353.73 569.344 1353.73 c 0
 442.368 1353.73 313.344 1271.81 262.144 1110.02 c 9
EndSplineSet
Fore
SplineSet
587 1076 m 9
 364 1147 l 17
 445 1344 685 1492 884 1492 c 1
 1056.95158804 1492 1256.34010478 1419.4872813 1256.34010478 1167.45734503 c 0
 1256.34010478 1129.49886382 1251.81724069 1087.46827259 1242 1041 c 1
 1208 880 1148 785 999 663 c 0
 820 516 538 386 453 240 c 1
 1112 240 l 17
 1061 0 l 1
 92 0 l 1
 137 210 201 359 412 534 c 0
 640 722 932 813 980 1041 c 0
 984.900096955 1064.03045569 987.239025892 1085.16671419 987.239025892 1104.41313315 c 0
 987.239025892 1202.99960078 925.869641268 1252 833 1252 c 1
 722 1252 646 1194 587 1076 c 9
EndSplineSet
EndChar

StartChar: three
Encoding: 51 51 19
Width: 1177
Flags: W
HStem: -28 242<512.313 791.814> 651 213<617 861.027> 1253 237<710.225 951.123>
VStem: 926.425 275.548<339.285 586.105> 989.969 266.141<1001.26 1215.75>
LayerCount: 2
Back
SplineSet
763 274 m 5
 920 76 l 5
805 530 m 5
 1022 676 l 5
741 1162 m 5
 958 1308 l 5
240 1112 m 21
 274 1230 408 1368 570 1368 c 5
 777.371 1368 889.966 1223.49 893.344 1056 c 4
 897.359 856.812 745.042 760 542 760 c 5
 762 760 964 690 964 428 c 5
 964 186 772 98 598 98 c 5
 450 98 318 180 264 282 c 5
122.88 251.904 m 9xd0
 278.528 299.008 l 17
 329.728 188.416 448.512 110.592 557.056 110.592 c 1
 720.896 110.592 868.352 202.752 868.352 403.456 c 1xd0
 868.352 602.112 718.848 692.224 561.152 692.224 c 0
 483.328 692.224 l 1
 483.328 825.344 l 1
 561.152 825.344 l 0
 706.56 825.344 833.536 909.312 833.536 1085.44 c 1
 833.536 1241.09 743.424 1357.82 559.104 1357.82 c 1
 552.96 1357.82 l 0
 448.512 1357.82 342.016 1302.53 299.008 1200.13 c 9
 161.792 1263.62 l 17
 231.424 1400.83 393.216 1497.09 559.104 1497.09 c 1
 811.008 1497.09 991.232 1327.1 991.232 1085.44 c 1xe0
 991.232 890.88 860.16 792.576 796.672 753.664 c 1
 884.736 727.04 1026.05 614.4 1026.05 403.456 c 1
 1026.05 129.024 817.152 -30.7197 557.056 -30.7197 c 1
 401.408 -30.7197 200.704 71.6797 122.88 251.904 c 9xd0
EndSplineSet
Fore
SplineSet
162 323 m 9xf0
 435 393 l 17
 460 260 555 214 643 214 c 1
 781 214 896 308 922 429 c 1
 924.996068869 443.173710419 926.425246343 457.028731062 926.425246343 470.45030033 c 0xf0
 926.425246343 573.501621449 842.171989835 651 736 651 c 0
 571 651 l 1
 617 864 l 1
 759 864 l 0
 862 864 964 962 984 1054 c 0
 988.053082234 1073.39689355 989.968916367 1091.34800161 989.968916367 1107.86545647 c 0
 989.968916367 1205.45590997 923.090447498 1253 835 1253 c 0
 750 1253 678 1195 645 1142 c 9
 409 1208 l 17
 516 1389 676 1490 885 1490 c 1
 1084.30992394 1490 1256.10984388 1405.94165443 1256.10984388 1195.07239562 c 0xe8
 1256.10984388 1164.71838738 1252.55002002 1131.73676141 1245 1096 c 1
 1217 964 1134 878 1041 820 c 1
 1118.37178688 758.435352373 1201.97291134 674.721948939 1201.97291134 526.823740162 c 0
 1201.97291134 496.949999105 1198.56203861 464.457558793 1191 429 c 1
 1139 184 882 -28 592 -28 c 1
 375 -28 200 72 162 323 c 9xf0
EndSplineSet
EndChar

StartChar: four
Encoding: 52 52 20
Width: 1177
Flags: W
HStem: 0 21G<675 948.253> 348 240<473 749 1068 1156> 1436 20G<947.252 1253>
LayerCount: 2
Back
SplineSet
854.016 1445.25 m 1
 854.016 536.576 l 9
 1042.43 536.576 l 17
 1042.43 397.312 l 1
 854.016 397.312 l 1
 854.016 0 l 1
 696.32 0 l 1
 696.32 397.312 l 1
 77.8242 397.312 l 9
 684.032 1456.13 l 1
 696.32 1456.13 l 1
 854.016 1456.13 l 1
 860.16 1456.13 l 1
 854.016 1445.25 l 1
700.416 1229.67 m 1
 313.344 538.624 l 1
 700.416 538.624 l 1
 700.416 1229.67 l 1
EndSplineSet
Fore
SplineSet
1068 585 m 9
 1206 585 l 17
 1156 348 l 1
 1018 348 l 1
 944 0 l 1
 675 0 l 1
 749 348 l 1
 164 348 l 1
 207 552 l 1
 964 1456 l 1
 1253 1456 l 1
 1068 585 l 9
918 1105 m 1
 473 588 l 1
 808 588 l 1
 918 1105 l 1
EndSplineSet
EndChar

StartChar: five
Encoding: 53 53 21
Width: 1177
Flags: W
HStem: -26 242<520.63 800.409> 719 229<649.078 880.857> 1217 239<765 1234>
VStem: 946.554 269.963<368.016 646.337>
LayerCount: 2
Back
SplineSet
763 274 m 1
 920 76 l 1
812 590 m 1
 1029 736 l 1
306 752 m 0
 354 782 472 823.669 598 823.669 c 1
 776 823.669 973 678 973 461 c 1
 973 240 772 98 598 98 c 1
 450 98 328 180 274 282 c 1
221 461 m 0
 221 660.824 394.968 823 597 823 c 0
 799.032 823 973 660.824 973 461 c 0
 973 261.176 799.032 99 597 99 c 0
 394.968 99 221 261.176 221 461 c 0
552.96 765.952 m 1
 425.984 765.952 272.384 712.704 182.272 671.744 c 9
 282.624 1456.13 l 1
 954.368 1456.13 l 1
 954.368 1314.82 l 1
 409.6 1314.82 l 1
 354.304 868.352 l 1
 409.6 897.024 475.136 901.12 559.104 901.12 c 1
 823.296 901.12 1038.34 706.561 1038.34 417.792 c 1
 1038.34 208.896 866.304 -30.7197 587.776 -30.7197 c 1
 356.352 -30.7197 169.984 133.12 114.688 329.729 c 9
 270.336 358.4 l 17
 305.152 256 391.168 110.592 587.776 110.592 c 1
 763.904 110.592 882.688 243.712 882.688 419.84 c 1
 882.688 614.4 724.992 765.952 552.96 765.952 c 1
EndSplineSet
Fore
SplineSet
751 719 m 1
 657 719 602 686 571 660 c 1
 333 750 l 1
 601 1456 l 1
 1284 1456 l 1
 1234 1217 l 1
 765 1217 l 1
 648 926 l 1
 677 941 752 948 800 948 c 1
 1047.61008083 948 1216.51669237 804.085084744 1216.51669237 574.011223019 c 0
 1216.51669237 538.340151283 1212.45652066 500.597993554 1204 461 c 1
 1141 166 878 -26 592 -26 c 1
 278 -26 172 216 172 366 c 9
 447 412 l 17
 445 352 494 216 644 216 c 1
 794 216 911 324 940 461 c 1
 944.386349253 481.721718884 946.553571517 502.077396203 946.553571517 521.703698885 c 0
 946.553571517 631.835138911 878.311986623 719 751 719 c 1
EndSplineSet
EndChar

StartChar: six
Encoding: 54 54 22
Width: 1177
Flags: W
HStem: -28 236<512.387 759.093> 660 242<660 839.526> 1436 20G<841.489 1143>
VStem: 191.347 271.72<258.252 525.628> 894.774 275.617<342.039 604.606>
LayerCount: 2
Back
SplineSet
387 429 m 5
 387 553 463 660 591 660 c 5
 719 660 788 547 788 433 c 5
 788 302 704 208 589 208 c 5
 457 208 387 321 387 429 c 5
677 886 m 5
 674 889 589 902 585 902 c 4
 300 902 118 703 118 429 c 5
 118 204 303 -28 591 -28 c 5
 871 -28 1056 195 1056 431 c 5
 1056 664 974 820 924 924 c 5
EndSplineSet
Fore
SplineSet
889 429 m 1
 892.875647233 447.483856035 894.773724805 465.589974046 894.773724805 483.020258691 c 0
 894.773724805 582.522030426 832.919890544 660 724 660 c 1
 596 660 493 547 469 433 c 1
 464.984683325 414.214054127 463.06697167 396.189004193 463.06697167 379.092947278 c 0
 463.06697167 276.97310359 531.491479201 208 630 208 c 1
 762 208 866 321 889 429 c 1
727 897 m 1
 731 900 778 902 782 902 c 0
 1026.06408876 902 1170.39102761 756.061082114 1170.39102761 542.058370684 c 0
 1170.39102761 506.164536224 1166.33081702 468.355928698 1158 429 c 1
 1110 204 866 -28 578 -28 c 1
 334.297313998 -28 191.347215864 140.931030788 191.347215864 340.332511806 c 0
 191.347215864 370.031561443 194.518336786 400.406549631 201 431 c 1
 251 664 398 820 470 924 c 1
 856 1456 l 1
 1143 1456 l 1
 727 897 l 1
EndSplineSet
EndChar

StartChar: seven
Encoding: 55 55 23
Width: 1177
Flags: W
HStem: 0 21G<98 436.354> 1202 254<409 958>
LayerCount: 2
Back
SplineSet
1069.06 1456.13 m 1
 514.048 0 l 1
 331.776 0 l 1
 847.872 1306.62 l 1
 100.352 1306.62 l 1
 100.352 1456.13 l 1
 1069.06 1456.13 l 1
EndSplineSet
Fore
SplineSet
1467 1456 m 1
 422 0 l 1
 98 0 l 1
 958 1202 l 1
 355 1202 l 1
 409 1456 l 1
 1467 1456 l 1
EndSplineSet
EndChar

StartChar: eight
Encoding: 56 56 24
Width: 1177
Flags: W
HStem: -28 221<488.706 791.58> 676 247<654.198 869.988> 1270 219<708.238 990.788>
VStem: 148.039 273.778<257.183 524.344> 350.849 269.845<953.893 1180.67> 941.315 271.284<337.358 605.439> 1023.79 273.101<1005.33 1234.74>
LayerCount: 2
Back
SplineSet
571.392 110.592 m 0xf2
 753.664 110.592 903.168 235.52 903.168 411.648 c 1
 903.168 589.824 745.472 722.944 575.488 722.944 c 1
 395.264 722.944 251.904 587.776 251.904 411.648 c 0
 251.904 229.376 399.36 110.592 571.392 110.592 c 0xf2
317.44 1107.97 m 1xec
 317.44 956.416 430.08 856.064 575.488 856.064 c 1
 718.848 856.064 831.488 952.32 831.488 1107.97 c 1
 831.488 1239.04 745.472 1355.78 573.44 1355.78 c 1
 407.552 1355.78 317.44 1234.94 317.44 1107.97 c 1xec
573.44 1497.09 m 1
 825.344 1497.09 989.184 1333.25 989.184 1107.97 c 1xec
 989.184 913.408 870.4 833.536 817.152 786.432 c 1
 894.976 727.04 1060.86 612.352 1060.86 411.648 c 1
 1060.86 147.456 833.536 -30.7197 571.392 -30.7197 c 1
 309.248 -30.7197 94.208 151.552 94.208 411.648 c 1xf2
 94.208 604.16 245.76 727.04 329.728 786.432 c 1
 266.24 843.776 159.744 917.504 159.744 1107.97 c 1
 159.744 1327.1 323.584 1497.09 573.44 1497.09 c 1
EndSplineSet
Fore
SplineSet
631 193 m 0xf4
 783 193 906 293 936 433 c 1
 939.601817005 450.04860049 941.315329308 466.506204853 941.315329308 482.268976019 c 0
 941.315329308 597.79636599 849.272065745 676 734 676 c 1
 570 676 458 573 428 433 c 0
 423.842114019 413.457935889 421.816416657 394.722645851 421.816416657 376.945879926 c 0
 421.816416657 266.459634267 500.066622304 193 631 193 c 0xf4
626 1095 m 1
 622.428571429 1078 620.693877551 1062.34693878 620.693877551 1048.00291545 c 0
 620.693877551 961.93877551 683.142857143 923 786 923 c 1
 898 923 993 973 1019 1095 c 1
 1022.1721798 1109.80350573 1023.79273765 1124.12783409 1023.79273765 1137.77996455 c 0xea
 1023.79273765 1214.50566819 972.607415577 1270 858 1270 c 1
 721 1270 646 1190 626 1095 c 1
904 1489 m 1
 1146.30616947 1489 1296.89367044 1361.82705627 1296.89367044 1175.82314674 c 0xea
 1296.89367044 1149.95841445 1293.98187571 1122.95611301 1288 1095 c 1
 1251 919 1102 840 1037 802 c 1
 1122.25584824 778.128362492 1212.59968824 661.946017311 1212.59968824 512.942937505 c 0
 1212.59968824 487.174335508 1209.8976607 460.424122271 1204 433 c 1
 1139 128 871 -28 580 -28 c 1
 301.62787336 -28 148.038835502 112.380974879 148.038835502 325.288911258 c 0xf4
 148.038835502 359.421741067 151.986326146 395.41863296 160 433 c 1
 198 614 378 778 483 802 c 1
 438.137595853 831.333110404 350.84907764 903.092334874 350.84907764 1030.12070631 c 0
 350.84907764 1050.33088439 353.058587486 1071.94007494 358 1095 c 1
 408 1332 623 1489 904 1489 c 1
EndSplineSet
EndChar

StartChar: nine
Encoding: 57 57 25
Width: 1177
Flags: W
HStem: 0 21G<340 641.511> 554 242<643.949 823> 1248 236<723.907 970.613>
VStem: 312.665 275.562<846.914 1113.96> 1019.93 272.674<930.372 1197.58>
LayerCount: 2
Back
SplineSet
282.624 1052.67 m 1
 282.624 890.88 409.6 751.616 587.776 751.616 c 1
 765.952 751.616 882.688 899.072 882.688 1048.58 c 1
 882.688 1218.56 745.472 1341.44 585.729 1341.44 c 1
 401.408 1341.44 282.624 1193.98 282.624 1052.67 c 1
724.992 632.832 m 1
 679.936 614.4 647.168 602.112 587.776 602.112 c 0
 339.968 602.112 133.12 798.72 133.12 1052.67 c 1
 133.12 1259.52 311.296 1490.94 589.824 1490.94 c 1
 856.064 1490.94 1032.19 1267.71 1032.19 1050.62 c 1
 1032.19 845.824 911.36 675.84 864.256 589.824 c 1
 509.952 -55.2959 l 9
 382.976 20.4805 l 17
 724.992 632.832 l 1
EndSplineSet
Fore
SplineSet
594 1027 m 1
 590.124352767 1008.51614396 588.226275195 990.410025954 588.226275195 972.979741309 c 0
 588.226275195 873.477969574 650.080109456 796 759 796 c 1
 887 796 990 909 1014 1023 c 1
 1018.01531668 1041.78594587 1019.93302833 1059.81099581 1019.93302833 1076.90705272 c 0
 1019.93302833 1179.02689641 951.508520799 1248 853 1248 c 1
 721 1248 617 1135 594 1027 c 1
757 559 m 1
 753 556 706 554 702 554 c 0
 457.75844564 554 312.664708802 700.151227312 312.664708802 914.408558716 c 0
 312.664708802 950.163309041 316.705298782 987.81468735 325 1027 c 1
 373 1252 617 1484 905 1484 c 1
 1148.86943007 1484 1292.60692828 1314.83772117 1292.60692828 1115.25814735 c 0
 1292.60692828 1085.68935825 1289.45188749 1055.45290894 1283 1025 c 1
 1233 792 1085 636 1013 532 c 1
 627 0 l 1
 340 0 l 1
 757 559 l 1
EndSplineSet
EndChar

StartChar: less
Encoding: 60 60 28
Width: 864
Flags: W
LayerCount: 2
Back
SplineSet
581.632 22.5283 m 1
 73.7275 634.88 l 1
 581.632 1234.94 l 1
 780.288 1234.94 l 1
 270.336 632.832 l 1
 780.288 22.5283 l 1
 581.632 22.5283 l 1
EndSplineSet
Fore
SplineSet
468 24 m 1
 180 636 l 1
 726 1237 l 1
 1058 1237 l 1
 511 633 l 1
 798 24 l 1
 468 24 l 1
EndSplineSet
EndChar

StartChar: equal
Encoding: 61 61 29
Width: 907
Flags: W
HStem: 309 240<172 922> 676 239<249 1000>
LayerCount: 2
Back
SplineSet
55.2959 499.712 m 1
 856.064 499.712 l 1
 856.064 358.4 l 1
 55.2959 358.4 l 1
 55.2959 499.712 l 1
55.2959 866.304 m 1
 856.064 866.304 l 1
 856.064 724.992 l 1
 55.2959 724.992 l 1
 55.2959 866.304 l 1
EndSplineSet
Fore
SplineSet
172 549 m 1
 973 549 l 1
 922 309 l 1
 121 309 l 1
 172 549 l 1
249 915 m 1
 1050 915 l 1
 1000 676 l 1
 199 676 l 1
 249 915 l 1
EndSplineSet
EndChar

StartChar: greater
Encoding: 62 62 30
Width: 864
Flags: W
LayerCount: 2
Back
SplineSet
280.576 20.4805 m 1
 81.9199 20.4805 l 1
 589.824 632.832 l 1
 81.9199 1234.94 l 1
 280.576 1234.94 l 1
 786.432 634.88 l 1
 280.576 20.4805 l 1
EndSplineSet
Fore
SplineSet
397 20 m 1
 59 20 l 1
 611 632 l 1
 318 1235 l 1
 657 1235 l 1
 942 636 l 1
 397 20 l 1
EndSplineSet
EndChar

StartChar: question
Encoding: 63 63 31
Width: 1034
Flags: W
HStem: -33 328<450.75 619.647> 1253 244<644.583 907.616>
VStem: 939.022 286.144<1004.33 1219.4>
LayerCount: 2
Back
SplineSet
264.745 1093.14 m 0
 264.745 1199.21 373.787 1289.56 508.14 1289.56 c 4
 642.494 1289.56 751.534 1199.21 751.534 1093.14 c 0
 751.534 987.072 642.494 900.987 508.14 900.987 c 0
 373.787 900.987 264.745 987.072 264.745 1093.14 c 0
51.2402 1093.14 m 0
 51.2402 1314.71 254.018 1494.53 503.869 1494.53 c 0
 753.72 1494.53 956.498 1314.71 956.498 1093.14 c 0
 956.498 871.573 753.72 691.753 503.869 691.753 c 0
 254.018 691.753 51.2402 871.573 51.2402 1093.14 c 0
EndSplineSet
Fore
SplineSet
371 131 m 0
 390 222 480 295 570 295 c 0
 649.20237678 295 702.649100792 239.701098466 702.649100792 165.365412502 c 0
 702.649100792 154.292709252 701.463240013 142.79762322 699 131 c 0
 680 41 591 -33 500 -33 c 0
 421.535969452 -33 367.394325432 23.2455188455 367.394325432 97.3028468796 c 0
 367.394325432 108.190932387 368.564628671 119.464030548 371 131 c 0
752 530 m 1
 724 399 l 1
 456 399 l 1
 497 594 l 0
 548 836 885 858 935 1094 c 1
 937.734687139 1106.9077233 939.021534016 1118.8940937 939.021534016 1130.00623122 c 0
 939.021534016 1220.47918331 853.717576357 1253 770 1253 c 1
 661 1253 573 1171 542 1069 c 1
 283 1110 l 1
 354 1327 556 1497 818 1497 c 1
 1035.80934149 1497 1225.16599272 1390.30241154 1225.16599272 1181.12305892 c 0
 1225.16599272 1155.00974208 1222.21500766 1127.29932182 1216 1098 c 1
 1137 727 792 717 752 530 c 1
EndSplineSet
EndChar

StartChar: at
Encoding: 64 64 32
Width: 1737
Flags: W
HStem: -33 166<696.501 1118.21> 346 203<879.244 1112.23> 373 219<1424.47 1553.14> 905 189<934.331 1172.14> 1323 172<928.988 1367.33>
VStem: 216.695 203.935<398.464 824.563> 618.808 222.796<591.111 812.518> 1206.52 217.555<648.988 868.043> 1627.32 210.969<678.087 1074.05>
LayerCount: 2
Back
SplineSet
1165.31 212.992 m 1xbf80
 1243.14 110.592 l 17
 1116.16 18.4316 962.56 -34.8164 794.624 -34.8164 c 0
 370.688 -34.8164 30.7197 307.2 30.7197 731.136 c 0
 30.7197 1153.02 370.688 1495.04 794.624 1495.04 c 0
 1216.51 1495.04 1558.53 1153.02 1558.53 731.136 c 0
 1558.53 555.008 1411.07 417.792 1273.86 417.792 c 0xbf80
 1200.13 417.792 1112.06 460.8 1058.82 518.145 c 1
 999.424 438.272 901.12 389.12 794.624 389.12 c 0xdf80
 606.208 389.12 452.608 542.72 452.608 731.136 c 0
 452.608 917.504 606.208 1071.1 794.624 1071.1 c 0
 983.04 1071.1 1118.21 909.312 1118.21 731.136 c 0
 1118.21 645.12 1185.79 546.816 1267.71 546.816 c 0
 1351.68 546.816 1429.5 626.688 1429.5 731.136 c 0
 1429.5 1071.1 1153.02 1368.06 794.624 1368.06 c 0
 436.224 1368.06 157.696 1071.1 157.696 727.04 c 0
 157.696 385.024 436.224 92.1602 794.624 92.1602 c 0
 921.6 92.1602 1069.06 145.408 1165.31 212.992 c 1xbf80
581.632 731.136 m 0
 581.632 606.208 679.936 516.096 794.624 516.096 c 0xdf80
 917.504 516.096 993.28 614.4 993.28 731.136 c 0
 993.28 841.729 897.024 946.176 794.624 946.176 c 0
 684.032 946.176 581.632 849.92 581.632 731.136 c 0
EndSplineSet
Fore
SplineSet
1279 260 m 1xbf80
 1360 113 l 17
 1210 21 1069 -33 868 -33 c 0
 482.141691269 -33 216.69496419 220.778839811 216.69496419 571.991293858 c 0
 216.69496419 623.092075463 222.314399102 676.255500143 234 731 c 0
 325 1161 751 1495 1193 1495 c 0
 1578.06070391 1495 1838.28517565 1249.15686793 1838.28517565 910.285052408 c 0
 1838.28517565 861.935847154 1832.98785922 811.692883137 1822 760 c 0
 1776 542 1587 373 1434 373 c 0xbf80
 1365 373 1290 412 1259 500 c 1
 1173 388 1061 346 949 346 c 0xdf80
 754.286824303 346 618.808248087 479.085528704 618.808248087 654.843374764 c 0
 618.808248087 679.473826444 621.468886966 704.942311927 627 731 c 0
 669 930 886 1094 1108 1094 c 0
 1303.81806288 1094 1424.07092342 966.001800104 1424.07092342 811.568259823 c 0
 1424.07092342 790.130999547 1421.75379169 768.184361235 1417 746 c 0
 1414.02458356 731.718001083 1412.58370497 717.042530922 1412.58370497 702.69164388 c 0
 1412.58370497 644.695244449 1436.1164159 592 1477 592 c 0
 1530 592 1595 665 1615 760 c 0
 1623.30463717 799.351203815 1627.3161807 837.837259483 1627.3161807 875.036884631 c 0
 1627.3161807 1128.99695563 1440.34905051 1323 1156 1323 c 0
 829 1323 504 1056 434 729 c 0
 424.966902919 686.544443719 420.629787407 645.121337287 420.629787407 605.171204906 c 0
 420.629787407 335.536569012 618.197467793 133 903 133 c 0
 1043 133 1196 199 1279 260 c 1xbf80
846 731 m 0
 843.023360317 717.281573635 841.604406255 704.065626504 841.604406255 691.451871913 c 0
 841.604406255 606.601241659 905.812492548 549 992 549 c 0xdf80
 1098 549 1180 639 1203 745 c 0
 1205.38237135 756.316263896 1206.51609018 767.2068508 1206.51609018 777.612603672 c 0
 1206.51609018 854.563113602 1144.51756608 905 1067 905 c 0
 972 905 869 841 846 731 c 0
EndSplineSet
EndChar

StartChar: m
Encoding: 109 109 33
Width: 1575
Flags: W
HStem: 0 21G<119 381.267 666 928.267 1212 1474.25> 868 234<734.437 787.242 1195 1482.91> 1053 20G<342.75 605>
VStem: 1352.24 279.341<551.25 852.297>
LayerCount: 2
Back
SplineSet
346 862 m 5
 390.825 954.286 506 1102 636 1102 c 4
 766 1102 924 1018 924 539 c 4
 924 0 l 5
 666 0 l 4
 666 539 l 4
 666 740 622 868 522 868 c 5
 422 868 378 740 378 539 c 4
 378 0 l 5
EndSplineSet
Fore
SplineSet
924 0 m 1xd0
 666 0 l 0
 781 539 l 0
 796.744965067 612.59855764 806.1884242 676.409669892 806.1884242 727.733220726 c 0
 806.1884242 816.575918369 777.891372494 868 705 868 c 1xd0
 589 868 535 740 492 539 c 0
 377 0 l 9
 119 0 l 1
 347 1073 l 1
 605 1073 l 1xb0
 571 915 l 17
 627 986 750 1102 880 1102 c 0
 1083 1102 1071 881 1075 862 c 1
 1140 954 1286 1102 1416 1102 c 0
 1549.81519245 1102 1631.57836934 1011.36825525 1631.57836934 834.89688854 c 0
 1631.57836934 785.858706193 1625.26475591 730.192134258 1612 668 c 0
 1470 0 l 1
 1212 0 l 0
 1327 539 l 0
 1342.78608736 612.790780435 1352.23770958 676.742923528 1352.23770958 728.135101669 c 0
 1352.23770958 816.730978208 1324.14851259 868 1252 868 c 1
 1138 868 1082 740 1039 539 c 0
 924 0 l 1xd0
EndSplineSet
EndChar

StartChar: n
Encoding: 110 110 34
Width: 1121
Flags: W
HStem: 0 21G<119 381.254 756 1018.25> 867 235<753.921 993.69> 1054 20G<342.754 605>
VStem: 892.554 278.114<530.461 842.959>
LayerCount: 2
Back
SplineSet
270.336 0 m 9
 118.784 0 l 1
 118.784 1073.15 l 1
 270.336 1073.15 l 1
 270.336 921.6 l 17
 339.968 999.424 417.792 1095.68 563.2 1095.68 c 0
 819.2 1095.68 905.216 880.64 905.216 622.592 c 0
 905.216 0 l 1
 753.664 0 l 0
 753.664 618.496 l 0
 753.664 790.528 684.032 958.464 573.44 958.464 c 1
 446.464 958.464 270.336 831.488 270.336 659.456 c 0
 270.336 0 l 9
EndSplineSet
Fore
SplineSet
377 0 m 9xd0
 119 0 l 1
 347 1074 l 1
 605 1074 l 1xb0
 571 912 l 17
 650 1016 792 1102 934 1102 c 0
 1053.37927801 1102 1170.66778209 998.158228245 1170.66778209 798.038172069 c 0
 1170.66778209 758.441851074 1166.07597232 715.076264111 1156 668 c 1
 1014 0 l 1
 756 0 l 0
 870 537 l 2
 885.479643081 610.394859436 892.554088989 668.119012279 892.554088989 713.309229366 c 0
 892.554088989 837.440267126 839.175837021 867 760 867 c 0
 652 867 549 810 491 536 c 2
 377 0 l 9xd0
EndSplineSet
EndChar

StartChar: o
Encoding: 111 111 35
Width: 1105
Flags: HMW
LayerCount: 2
Back
SplineSet
92.1602 536.576 m 0
 92.1602 851.968 241.664 1093.63 507.904 1093.63 c 0
 774.144 1093.63 923.648 851.968 923.648 536.576 c 0
 923.648 221.184 774.144 -28.6719 507.904 -28.6719 c 1
 241.664 -28.6719 92.1602 221.184 92.1602 536.576 c 0
245.76 536.576 m 0
 245.76 339.968 327.68 106.496 507.904 106.496 c 0
 700.416 106.496 770.048 339.968 770.048 536.576 c 0
 770.048 733.184 688.128 958.464 507.904 958.464 c 0
 327.68 958.464 245.76 733.184 245.76 536.576 c 0
EndSplineSet
Fore
SplineSet
458 537 m 0
 446.673916556 483.252585839 441.539206422 437.604844981 441.539206422 399.00011425 c 0
 441.539206422 250.138436071 517.887739627 206 610 206 c 0
 725 206 847 276 902 537 c 1
 913.261679142 590.441786472 918.360271899 635.791901704 918.360271899 674.123423951 c 0
 918.360271899 822.996109625 841.452852704 866 750 866 c 1
 634 866 513 798 458 537 c 0
206 537 m 0
 279 879 495 1100 799 1100 c 0
 1045.84497059 1100 1170.85781274 955.24247105 1170.85781274 718.739308375 c 0
 1170.85781274 663.020739961 1163.91907261 602.209901832 1150 537 c 0
 1077 195 864 -29 559 -29 c 1
 312.538699159 -29 185.045047632 114.287003042 185.045047632 353.967996958 c 0
 185.045047632 409.923769957 191.993869284 471.133331226 206 537 c 0
EndSplineSet
EndChar

StartChar: p
Encoding: 112 112 36
Width: 1132
Flags: W
HStem: -426 21G<28 290.254> -28 234<531.124 747.761> 866 234<749.45 1017.95> 1053 20G<342.744 605>
VStem: 931.529 268.728<455.571 811.084>
LayerCount: 2
Back
SplineSet
270.336 -425.984 m 17
 118.784 -425.984 l 1
 118.784 1073.15 l 1
 270.336 1073.15 l 1
 270.336 899.072 l 17
 327.68 995.328 405.504 1091.58 550.912 1091.58 c 0
 802.816 1091.58 923.648 823.296 923.648 540.672 c 0
 923.648 258.048 835.584 -28.6719 512 -28.6719 c 1
 348.16 -28.6719 270.336 139.264 270.336 139.264 c 0
 270.336 139.264 270.336 -205.537 270.336 -425.984 c 17
770.048 536.576 m 0
 770.048 770.048 688.128 956.416 561.152 956.416 c 1
 421.888 956.416 266.24 794.624 266.24 536.576 c 1
 266.24 245.76 409.6 106.496 522.24 106.496 c 0
 671.744 106.496 770.048 262.144 770.048 536.576 c 0
EndSplineSet
Fore
SplineSet
286 -426 m 17xe8
 28 -426 l 1
 347 1073 l 1
 605 1073 l 1xd8
 572 917 l 17
 664 1026 802 1100 918 1100 c 0
 1117.89115189 1100 1200.25652205 948.649724978 1200.25652205 743.182905741 c 0
 1200.25652205 677.285836359 1191.78437548 605.82230994 1176 532 c 0
 1111 228 940 -28 678 -28 c 1
 562 -28 456 48 410 157 c 1
 286 -426 l 17xe8
917 537 m 0
 927.043806802 584.321782049 931.528874623 625.637141439 931.528874623 661.500928369 c 0
 931.528874623 811.315436242 853.264437311 866 775 866 c 1xe8
 678 866 537 790 483 537 c 1
 473.076218334 490.137697689 468.657400707 449.320723984 468.657400707 413.909804141 c 0
 468.657400707 256.633124047 555.826052252 206 635 206 c 0
 729 206 869 313 917 537 c 0
EndSplineSet
EndChar

StartChar: q
Encoding: 113 113 37
Width: 1132
Flags: W
HStem: -28 234<347.201 612.695> 866 234<611.018 837.595> 1053 20G<983.769 1246>
VStem: 163.298 271.922<268.397 613.987> 719.671 265.448<-307.405 18.1094>
LayerCount: 2
Back
SplineSet
233.472 536.576 m 0
 233.472 262.144 335.872 106.496 485.376 106.496 c 0
 598.016 106.496 741.376 245.76 741.376 536.576 c 1
 741.376 794.624 585.729 956.416 446.464 956.416 c 1
 319.488 956.416 233.472 770.048 233.472 536.576 c 0
888.832 -198.656 m 2
 888.832 -278.528 917.504 -313.344 1007.62 -313.344 c 1
 1007.62 -448.512 l 1
 837.632 -448.512 737.28 -380.928 737.28 -204.8 c 0
 737.28 -199.234 737.28 133.698 737.28 139.264 c 1
 737.28 139.264 659.456 -28.6719 495.616 -28.6719 c 1
 172.032 -28.6719 83.9678 258.048 83.9678 540.672 c 0
 83.9678 823.296 204.8 1091.58 456.704 1091.58 c 0
 602.112 1091.58 675.84 995.328 737.28 899.072 c 9
 737.28 1073.15 l 1
 888.832 1073.15 l 1
 888.832 -198.656 l 2
EndSplineSet
Fore
SplineSet
730 -141 m 0xb8
 793 157 l 1
 701 48 563 -28 447 -28 c 1
 247.401451808 -28 163.298453229 120.577189452 163.298453229 325.764658284 c 0
 163.298453229 389.913401168 171.518723788 459.595262024 187 532 c 0
 252 836 423 1100 687 1100 c 0xd8
 803 1100 909 1026 955 917 c 9
 988 1073 l 1
 1246 1073 l 1
 989 -137 l 0
 986.56579091 -148.35964242 985.119144136 -158.155644507 985.119144136 -166.554946064 c 0
 985.119144136 -199.561955533 1007.45941893 -211 1080 -211 c 1
 1030 -449 l 1
 828.634393214 -449 719.671317581 -384.029470283 719.671317581 -230.780977877 c 0
 719.671317581 -203.661564959 723.083619882 -173.777627514 730 -141 c 0xb8
448 537 m 0
 439.17804322 495.830868359 435.220269029 458.613885072 435.220269029 425.286967372 c 0
 435.220269029 277.283133918 513.276332028 206 590 206 c 0
 687 206 828 282 882 537 c 1
 891.923781666 583.494754842 896.342599293 624.011726649 896.342599293 659.177777063 c 0
 896.342599293 815.366875953 809.173947748 866 730 866 c 1
 633 866 500 782 448 537 c 0
EndSplineSet
EndChar

StartChar: r
Encoding: 114 114 38
Width: 858
Flags: W
HStem: 0 21G<122 384.268> 868 234<736.929 930.351> 1053 20G<345.75 608>
LayerCount: 2
Back
SplineSet
638.976 907.264 m 1
 616.448 921.6 544.768 948.224 509.952 948.224 c 1
 393.216 948.224 270.336 786.432 270.336 677.888 c 2
 270.336 0 l 17
 118.784 0 l 1
 118.784 1073.15 l 1
 270.336 1073.15 l 1
 270.336 913.408 l 17
 323.584 1007.62 419.84 1085.44 499.712 1085.44 c 0
 561.152 1085.44 655.36 1060.86 704.512 1030.14 c 1
 638.976 907.264 l 1
EndSplineSet
Fore
SplineSet
908 807 m 1xc0
 888 820 811 868 764 868 c 1xc0
 609 868 527 690 498 553 c 1
 380 0 l 17
 122 0 l 1
 350 1073 l 1
 608 1073 l 1xa0
 574 912 l 17
 654 1019 783 1102 863 1102 c 0
 932 1102 1003 1060 1047 1008 c 1
 908 807 l 1xc0
EndSplineSet
EndChar

StartChar: s
Encoding: 115 115 39
Width: 958
Flags: W
HStem: -29 230<409.918 675.406> 870 230<559.284 780.601>
VStem: 284.144 251.774<701.262 842.59> 701.776 251.619<229.754 377.736>
LayerCount: 2
Back
SplineSet
458.752 491.52 m 0
 299.893 543.455 110.592 614.4 110.592 798.72 c 0
 110.592 983.04 258.048 1097.73 458.752 1097.73 c 0
 667.648 1097.73 790.528 978.944 813.056 870.4 c 1
 671.744 841.729 l 0
 649.216 911.36 585.729 962.561 460.8 962.561 c 0
 315.392 962.561 264.192 897.024 264.192 804.864 c 0
 264.192 692.224 393.216 661.504 460.8 636.928 c 0
 611.789 582.023 829.44 499.712 829.44 296.96 c 0
 829.44 86.0156 675.84 -28.6719 462.848 -28.6719 c 0
 249.856 -28.6719 126.976 69.6318 86.0156 217.088 c 1
 227.328 243.712 l 1
 249.856 155.648 327.68 106.496 458.752 106.496 c 0
 598.016 106.496 675.84 172.032 675.84 296.96 c 0
 675.84 401.408 565.248 456.704 458.752 491.52 c 0
EndSplineSet
Fore
SplineSet
446 491 m 0
 345.252724512 550.968616362 284.143949788 598.789950232 284.143949788 711.654748464 c 0
 284.143949788 739.944780556 287.98326206 772.321331681 296 810 c 0
 334 988 504 1100 728 1100 c 0
 943.726340424 1100 1044.44363489 956.238692548 1044.44363489 816.992999439 c 0
 1044.44363489 811.652569245 1044.29548784 806.318781156 1044 801 c 1
 795 758 l 1
 795.15571123 761.6592139 795.232623002 765.203259361 795.232623002 768.635557815 c 0
 795.232623002 853.374124333 748.352909094 870 683 870 c 0
 615 870 554 857 538 783 c 0
 536.597293218 776.477413466 535.917674408 770.382776955 535.917674408 764.660546541 c 0
 535.917674408 688.794372463 655.380030184 678.389172874 793 604 c 0
 897.763411043 546.85632125 953.394645841 479.634247372 953.394645841 367.338847689 c 0
 953.394645841 338.144078136 949.63449842 305.902776353 942 270 c 0
 905 94 694 -29 479 -29 c 0
 259 -29 141 98 140 290 c 1
 380 329 l 1
 379.936063147 327.209768113 379.90437545 325.437704764 379.90437545 323.683848675 c 0
 379.90437545 243.144504368 446.726295034 201 526 201 c 0
 607 201 682 211 700 295 c 0
 701.198631049 300.693497484 701.775882259 306.149936763 701.775882259 311.392781352 c 0
 701.775882259 393.630477055 559.748282152 423.315071777 446 491 c 0
EndSplineSet
EndChar

StartChar: t
Encoding: 116 116 40
Width: 706
Flags: W
HStem: -15 21G<462.869 622.24> 844 229<300 392 699 804>
VStem: 262.207 268.68<119.045 440.828>
LayerCount: 2
Back
SplineSet
253.952 937.984 m 0
 112.64 937.984 l 1
 112.64 1073.15 l 1
 253.952 1073.15 l 0
 253.952 1323.01 l 1
 405.504 1323.01 l 0
 405.504 1073.15 l 0
 602.112 1073.15 l 1
 602.112 937.984 l 1
 405.504 937.984 l 0
 405.504 215.04 l 0
 405.504 110.592 477.184 98.3037 522.24 98.3037 c 1
 591.872 98.3037 l 1
 591.872 -28.6719 l 1
 522.24 -28.6719 l 1
 317.44 -28.6719 253.952 49.1523 253.952 210.944 c 1
 253.952 937.984 l 0
EndSplineSet
Fore
SplineSet
392 844 m 0
 251 844 l 1
 300 1073 l 1
 441 1073 l 0
 494 1323 l 1
 752 1323 l 0
 699 1073 l 0
 853 1073 l 1
 804 844 l 1
 650 844 l 0
 534 297 l 0
 531.869021709 286.937046957 530.88732618 277.925267173 530.88732618 269.856807477 c 0
 530.88732618 209.772402777 585.327445729 202 625 202 c 1
 664 202 l 1
 618 -15 l 1
 579 -15 l 1
 346.738332978 -15 262.207459158 50.9512469655 262.207459158 187.138481194 c 0
 262.207459158 218.648092892 266.732564157 253.917576016 275 293 c 1
 392 844 l 0
EndSplineSet
EndChar

StartChar: u
Encoding: 117 117 41
Width: 1112
Flags: W
HStem: -29 235<350.059 598.113> 0 21G<745 1007.25> 1053 20G<331.762 594 967.746 1231>
VStem: 192.078 269.192<238.394 602.688>
LayerCount: 2
Back
SplineSet
743.424 1073.15 m 9
 894.976 1073.15 l 1
 894.976 0 l 1
 743.424 0 l 1
 743.424 139.264 l 17
 704.512 79.8721 636.928 -22.5283 491.521 -22.5283 c 0
 235.52 -22.5283 108.544 192.512 108.544 450.56 c 0
 108.544 1073.15 l 1
 260.096 1073.15 l 0
 260.096 454.656 l 0
 260.096 282.624 370.688 114.688 481.28 114.688 c 1
 608.256 114.688 743.424 241.664 743.424 413.696 c 0
 743.424 1073.15 l 9
EndSplineSet
Fore
SplineSet
1003 0 m 2x70
 745 0 l 2x70
 779 161 l 17
 700 57 559 -29 422 -29 c 0
 278.11747085 -29 192.077952931 74.8927871642 192.077952931 286.465951943 c 0
 192.077952931 357.220654748 201.700441985 440.018117437 222 535 c 1
 336 1073 l 1
 594 1073 l 0
 480 536 l 2
 466.924925148 474.006110618 461.269531339 423.192562532 461.269531339 381.669047994 c 0
 461.269531339 238.997529571 528.034586002 206 590 206 c 0xb0
 670 206 800 263 858 537 c 2
 972 1073 l 9
 1231 1073 l 1
 1003 0 l 2x70
EndSplineSet
EndChar

StartChar: v
Encoding: 118 118 42
Width: 1060
Flags: W
HStem: 0 21G<408.931 634.568> 1053 20G<300 571.991 934.117 1191>
VStem: 300 271<934.419 1073>
LayerCount: 2
Back
SplineSet
436.224 0 m 1
 71.6797 1073.15 l 1
 231.424 1073.15 l 1
 512 194.56 l 1
 798.72 1073.15 l 1
 956.416 1073.15 l 1
 587.776 0 l 1
 436.224 0 l 1
EndSplineSet
Fore
SplineSet
411 0 m 1
 300 1073 l 1
 571 1073 l 1
 605 387 l 1
 944 1073 l 1
 1191 1073 l 1
 624 0 l 1
 411 0 l 1
EndSplineSet
EndChar

StartChar: w
Encoding: 119 119 43
Width: 1449
Flags: W
HStem: 0 21G<370.378 581.524 851 1080.12> 1053 20G<285 540.777 830.887 1071 1360.66 1613>
VStem: 285 255<896.189 1073> 851 219<407 664>
LayerCount: 2
Back
SplineSet
688.128 829.44 m 1
 460.8 0 l 1
 344.064 0 l 1
 57.3438 1073.15 l 1
 206.848 1073.15 l 1
 403.456 282.624 l 1
 616.448 1064.96 l 1
 759.808 1064.96 l 17
 972.8 282.624 l 1
 1169.41 1073.15 l 17
 1318.91 1073.15 l 1
 1032.19 0 l 1
 909.312 0 l 1
 688.128 829.44 l 1
EndSplineSet
Fore
SplineSet
856 664 m 1
 573 0 l 1
 372 0 l 1
 285 1073 l 1
 540 1073 l 1
 566 404 l 1
 839 1077 l 1
 1071 1077 l 17
 1059 407 l 1
 1370 1073 l 17
 1613 1073 l 1
 1070 0 l 1
 851 0 l 1
 856 664 l 1
EndSplineSet
EndChar

StartChar: x
Encoding: 120 120 44
Width: 1054
Flags: W
HStem: 0 21G<27 349.582 706.896 1021> 1053 20G<273 570.273 924.424 1254>
LayerCount: 2
Back
SplineSet
860.16 0 m 1
 690.176 0 l 9
 448.512 440.32 l 1
 219.136 0 l 1
 43.0078 0 l 9
 356.352 538.624 l 1
 45.0557 1073.15 l 9
 215.04 1073.15 l 1
 448.512 638.976 l 0
 681.984 1073.15 l 1
 851.968 1073.15 l 1
 540.672 542.72 l 0
 860.16 0 l 1
EndSplineSet
Fore
SplineSet
1021 0 m 1
 714 0 l 9
 595 335 l 1
 334 0 l 1
 27 0 l 9
 482 536 l 1
 273 1073 l 9
 563 1073 l 1
 683 743 l 0
 940 1073 l 1
 1254 1073 l 1
 796 545 l 0
 1021 0 l 1
EndSplineSet
EndChar

StartChar: y
Encoding: 121 121 45
Width: 1106
Flags: W
HStem: -465 232<361.268 637.64> -29 235<350.059 598.113> 1053 20G<331.762 594 967.746 1231>
VStem: 192.078 269.192<238.394 602.688>
LayerCount: 2
Back
SplineSet
283.376 -183.838 m 0
 325.527 -261.986 409.975 -313.344 501.76 -313.344 c 0
 626.688 -313.344 743.424 -225.28 743.424 -32.7676 c 0
 743.424 145.408 l 17
 708.608 83.9678 636.928 -16.3838 491.521 -16.3838 c 0
 235.52 -16.3838 108.544 198.656 108.544 456.704 c 0
 108.544 1073.15 l 1
 260.096 1073.15 l 0
 260.096 460.8 l 0
 260.096 288.768 370.688 120.832 481.28 120.832 c 1
 608.256 120.832 743.424 247.808 743.424 419.84 c 0
 743.424 1073.15 l 9
 894.976 1073.15 l 1
 894.976 425.984 l 1
 894.976 -18.4316 l 2
 894.976 -290.816 712.704 -448.512 509.952 -448.512 c 1
 328.475 -448.512 217.541 -351.877 160.556 -247.556 c 1
 283.376 -183.838 l 0
EndSplineSet
Fore
SplineSet
997 -29 m 2
 951 -246 671 -465 456 -465 c 1
 245 -465 124 -348 92 -224 c 1
 320 -112 l 0
 329 -182 390 -233 499 -233 c 0
 608 -233 709 -168 732 -59 c 1
 779 161 l 17
 700 57 559 -29 422 -29 c 0
 278.11747085 -29 192.077952931 74.8927871642 192.077952931 286.465951943 c 0
 192.077952931 357.220654748 201.700441985 440.018117437 222 535 c 1
 336 1073 l 1
 594 1073 l 0
 480 536 l 2
 466.924925148 474.006110618 461.269531339 423.192562532 461.269531339 381.669047994 c 0
 461.269531339 238.997529571 528.034586002 206 590 206 c 0
 670 206 800 263 858 537 c 2
 972 1073 l 9
 1231 1073 l 1
 1009 29 l 1
 997 -29 l 2
EndSplineSet
EndChar

StartChar: z
Encoding: 122 122 46
Width: 1005
Flags: W
HStem: 0 240<534 889> 834 239<343 679>
LayerCount: 2
Back
SplineSet
331.776 141.312 m 1
 866.304 141.312 l 1
 866.304 0 l 1
 79.8721 0 l 1
 624.64 931.84 l 2
 100.352 931.84 l 1
 100.352 1073.15 l 1
 876.544 1073.15 l 1
 331.776 141.312 l 1
EndSplineSet
Fore
SplineSet
534 240 m 1
 940 240 l 1
 889 0 l 1
 66 0 l 1
 679 834 l 2
 292 834 l 1
 343 1073 l 1
 1149 1073 l 1
 534 240 l 1
EndSplineSet
EndChar

StartChar: multiply
Encoding: 215 215 52
Width: 833
Flags: W
LayerCount: 2
Fore
SplineSet
159 458 m 1
 387 647 l 1
 216 859 l 1
 421 1030 l 1
 591 818 l 1
 835 1023 l 1
 971 854 l 1
 725 649 l 1
 887 448 l 1
 683 277 l 1
 522 479 l 1
 294 289 l 1
 159 458 l 1
EndSplineSet
EndChar

StartChar: Oslash
Encoding: 216 216 53
Width: 1425
Flags: W
HStem: -29 242<684.855 914.701> 1249 240<819.139 1047.31>
VStem: 236.241 283.843<426.87 820.848> 1227.08 284.095<660.87 1065.65>
LayerCount: 2
Back
SplineSet
533.795 -28.6719 m 5
 247.128 -28.6719 l 5
 901.745 1515.5 l 4
 1169.41 1515.52 l 5
 533.795 -28.6719 l 5
1046.53 753.664 m 0
 1046.53 980.853 972.04 1249.28 714.752 1249.28 c 0
 459.416 1249.28 382.976 980.853 382.976 753.664 c 1
 382.976 506.839 461.042 212.992 714.752 212.992 c 1
 970.412 212.992 1046.53 506.839 1046.53 753.664 c 0
100.352 753.664 m 1
 100.352 1074.34 264.192 1488.9 714.752 1488.9 c 1
 1167.39 1488.9 1329.15 1074.34 1329.15 753.664 c 1
 1329.15 412.53 1165.23 -28.6719 714.752 -28.6719 c 1
 266.349 -28.6719 100.352 412.53 100.352 753.664 c 1
EndSplineSet
Fore
SplineSet
544 -6 m 1
 526 -29 l 1
 242 -29 l 1
 344 135 l 1
 267.484328434 233.377292014 236.241365377 390.562432194 236.241365377 537.044408983 c 0
 236.241365377 604.975781311 242.960674281 670.605263739 255 727 c 1
 333 1096 586 1489 1037 1489 c 1
 1093 1489 1154 1482 1193 1466 c 1
 1206 1493 l 0
 1478 1493 l 1
 1387 1348 l 1
 1476.90593737 1247.09837245 1511.17038013 1111.05474829 1511.17038013 966.658091259 c 0
 1511.17038013 887.808810213 1500.95334537 806.468806411 1484 727 c 1
 1428 463 1184 -29 709 -29 c 1
 651 -29 592 -20 544 -6 c 1
684 223 m 1
 710 219 716 213 758 213 c 1
 1024 213 1162 537 1202 727 c 0
 1217.78449784 800.660989943 1227.07536459 866.461268554 1227.07536459 930.59471476 c 0
 1227.07536459 976.16403291 1222.38472422 1020.89182447 1212 1067 c 1
 684 223 l 1
531 426 m 1
 1048 1241 l 1
 1028 1243 1023 1249 986 1249 c 1
 711 1249 586 961 536 727 c 1
 527.487507803 687.477714798 520.084135862 614.312115157 520.084135862 545.043916482 c 0
 520.084135862 500.390744191 523.160703139 457.357187444 531 426 c 1
EndSplineSet
EndChar

StartChar: Thorn
Encoding: 222 222 57
Width: 1384
Flags: W
HStem: 0 21G<135 407.251> 287 239<515 790.835> 961 238<658 879.992> 1436 20G<439.755 712>
VStem: 968.397 274.396<663.697 882.022>
LayerCount: 2
Back
SplineSet
292.454 477.103 m 1
 562.954 477.103 859.341 530.35 859.341 749.731 c 1
 859.341 984.023 511.836 1009.58 292.454 1009.58 c 1
 292.454 477.103 l 1
135.168 1456.13 m 0
 292.454 1456.13 l 1
 292.454 1150.16 l 1
 667.32 1150.16 1016.63 1067.09 1016.63 749.731 c 0
 1016.63 406.814 660.931 336.527 292.454 336.527 c 1
 292.454 0 l 1
 135.168 0 l 1
 135.168 1456.13 l 0
EndSplineSet
Fore
SplineSet
515 526 m 1
 707 526 926 569 964 750 c 1
 966.982360897 764.166214261 968.397070307 777.392949439 968.397070307 789.741548156 c 0
 968.397070307 943.014738938 750.443351524 961 607 961 c 1
 515 526 l 1
444 1456 m 0
 712 1456 l 1
 658 1199 l 1
 967.612415891 1199 1242.79356556 1124.5323777 1242.79356556 853.789156368 c 0
 1242.79356556 821.969722673 1238.99264853 787.43924839 1231 750 c 0
 1149 365 804 287 464 287 c 1
 403 0 l 1
 135 0 l 1
 444 1456 l 0
EndSplineSet
EndChar

StartChar: germandbls
Encoding: 223 223 58
Width: 1261
Flags: W
HStem: -29 224<535.092 861.12> 0 21G<62 340> 649 195<714 881.813> 1294 234<739.862 1053.42>
VStem: 996.223 255.689<313.904 551.84> 1085.43 256.918<990.395 1258.84>
LayerCount: 2
Back
SplineSet
164.188 1151.75 m 1
 252.784 1347.93 389.775 1478.72 645.018 1478.72 c 1
 893.932 1478.72 1098.42 1328.95 1089.99 1073.71 c 1
 1089.99 879.637 889.713 778.384 769.475 746.742 c 1
 883.385 719.319 1106.86 601.19 1106.86 398.685 c 1
 1106.86 120.238 891.822 -29.5322 600.72 -29.5322 c 1
 535.327 -29.5322 482.591 -10.5479 415.089 23.2041 c 9
 505.795 145.552 l 17
 539.546 132.894 571.188 109.69 600.72 109.69 c 1
 796.897 109.69 959.447 196.178 959.447 398.685 c 1
 959.447 548.454 737.833 679.24 541.655 679.24 c 1
 505.795 679.24 l 2
 493.138 679.24 480.481 679.24 463.605 672.911 c 1
 463.605 824.791 l 1
 478.372 820.572 488.919 820.572 499.466 820.572 c 2
 541.655 820.572 l 1
 712.52 820.572 940.462 917.606 940.462 1073.71 c 1
 940.462 1259.34 826.43 1341.6 645.018 1341.6 c 1
 440.402 1341.6 349.573 1238.24 305.274 1105.35 c 1
 235.663 902.84 248.32 310.088 229.335 0 c 1
 81.9199 0 l 1
 113.562 360.714 88.248 993.546 164.188 1151.75 c 1
EndSplineSet
Fore
SplineSet
427 1260 m 1x74
 549 1427 722 1528 970 1528 c 1
 1207.71619611 1528 1342.34691587 1390.06872882 1342.34691587 1185.33761765 c 0x74
 1342.34691587 1149.78228242 1338.2863549 1112.21221516 1330 1073 c 1
 1289 881 1171 792 1096 767 c 1
 1153.4031075 755.00532082 1251.91259461 643.180862599 1251.91259461 483.096449978 c 0
 1251.91259461 456.33286582 1249.15919966 428.220389099 1243 399 c 1
 1182 111 933 -29 612 -29 c 1
 526 -29 452 -20 420 23 c 9
 561 226 l 17
 575 210 589 195 634 195 c 1
 805 195 960 249 992 399 c 1
 994.8233858 412.411082549 996.22328814 425.659481273 996.22328814 438.641644301 c 0xb8
 996.22328814 554.405813006 884.908737567 649 679 649 c 1
 644 649 l 2
 654 649 646 651 668 694 c 1
 714 844 l 1
 843 844 1037 888 1076 1073 c 0
 1082.3000953 1102.20953275 1085.42926822 1128.32103789 1085.42926822 1151.45280554 c 0
 1085.42926822 1249.48560702 1029.22688287 1294 920 1294 c 1
 772 1294 683 1230 621 1140 c 0
 530 1008 385 159 295 0 c 1
 62 0 l 1
 163 159 288 1074 427 1260 c 1x74
EndSplineSet
EndChar

StartChar: ae
Encoding: 230 230 63
Width: 1764
Flags: W
HStem: -29 220<360.789 620.32 1142.02 1378.49> 0 21G<721 982> 469 182<1131 1546.61> 524 217<498.931 763.007> 868 230<1252.88 1495.46> 897 205<474.369 813.116>
VStem: 156.219 248.785<233.621 432.566> 806.427 276.538<276.148 467.482> 1546.61 240.858<651.717 820.777>
LayerCount: 2
Back
SplineSet
208 294 m 0xb8
 134 294 110 236 110 173 c 0
 110 110 134 52 208 52 c 0
 270 52 306 108 306 173 c 1
 306 238 270 294 208 294 c 0xb8
347.172 444.129 m 1
 381.085 499.773 413.985 534 484 534 c 0
 614 534 667 416 667 262 c 0
 667 251.234 665.469 240.156 665.469 229 c 1
 377.297 229 l 1xd8
 377.297 182 389 52 484 52 c 0
 530.016 52 542.375 79.3281 563.422 118.484 c 0
 628.344 91.6094 l 0
 594.984 27.0625 559.422 -14 484 -14 c 0
 405.844 -14 380.021 27.0371 346 80 c 1
 320 34 302 -14 208 -14 c 0
 98 -14 36 68 36 173 c 0
 36 278 108 360 208 360 c 0
 270.223 360 289 337 308 309 c 1
 308.915 317.082 305.915 330.206 307.264 337.988 c 1
 307.264 409.284 281.354 466 210 466 c 0
 164 466 142 450 120 428 c 9
 82 478 l 0
 116 506 140 532 210 532 c 0
 273.279 532 313.223 501.687 347.172 444.129 c 1
377.364 295 m 1
 591.344 295 l 1
 582.672 381.516 562.031 468 484 468 c 0
 404 468 379 369 377.364 295 c 1
EndSplineSet
Fore
SplineSet
646 524 m 0x9380
 524 524 426 442 408 356 c 0
 405.991596045 346.404292216 405.004063351 336.895731978 405.004063351 327.574334989 c 0
 405.004063351 253.354198709 467.612515694 191 576 191 c 0
 698 191 785 270 803 356 c 0
 805.28577839 366.920941198 806.426619798 377.777378905 806.426619798 388.409585707 c 0
 806.426619798 461.503659304 752.507502021 524 646 524 c 0x9380
1251 201 m 0
 1310 201 1371 221 1419 267 c 1
 1626 169 l 1
 1512 38 1335 -29 1202 -29 c 0xab80
 1119 -29 1045 -6 985 35 c 1
 978 0 l 1
 721 0 l 1x4380
 750 136 l 1
 708 58 588 -29 448 -29 c 0
 274.41903545 -29 156.219316466 92.8387402438 156.219316466 267.986977002 c 0
 156.219316466 296.662609508 159.387650167 326.767198663 166 358 c 0
 213 580 410 741 608 741 c 0
 747 741 834 655 842 577 c 1
 842 578 843 583 845 592 c 0
 849 609 855 637 859 658 c 1
 864.508037537 684.131154827 867.029810657 707.489349838 867.029810657 728.35622229 c 0
 867.029810657 870.392291116 750.190610379 897 663 897 c 0
 563 897 494 868 435 844 c 1
 367 1008 l 1
 436 1056 599 1102 706 1102 c 0x9780
 859 1102 998 1059 1070 949 c 1
 1176 1043 1304 1098 1432 1098 c 0
 1653.39793599 1098 1787.47293507 934.355441057 1787.47293507 694.298829397 c 0
 1787.47293507 644.853576343 1781.78480306 592.166541854 1770 537 c 2
 1756 469 l 1
 1092 469 l 1x2b80
 1085.76581272 436.55388892 1082.96444081 407.922017149 1082.96444081 382.67488935 c 0
 1082.96444081 229.731408988 1185.76814167 201 1251 201 c 0
1131 651 m 1
 1544 651 l 1
 1545.73584164 663.960950929 1546.61461059 676.828159531 1546.61461059 689.449752095 c 0
 1546.61461059 785.895648095 1495.30320743 868 1383 868 c 0
 1257 868 1162 760 1131 651 c 1
EndSplineSet
EndChar

StartChar: icircumflex
Encoding: 238 238 70
Width: 546
Flags: W
HStem: 0 21G<139 412.25> 1053 20G<362.75 636> 1470 20G<452.062 721.267>
LayerCount: 2
Fore
SplineSet
920 1146 m 1
 649 1146 l 1
 551 1307 l 1
 393 1149 l 0
 116 1149 l 1
 473 1490 l 1
 709 1490 l 1
 920 1146 l 1
367 1073 m 1
 636 1073 l 1
 408 0 l 1
 139 0 l 1
 367 1073 l 1
EndSplineSet
EndChar

StartChar: idieresis
Encoding: 239 239 71
Width: 548
Flags: W
HStem: 0 21G<139 412.25> 1053 20G<362.75 636> 1159 328<244.75 413.647 715.75 884.647>
LayerCount: 2
Fore
SplineSet
636 1323 m 0
 655 1414 745 1487 835 1487 c 0
 914.20237678 1487 967.649100792 1431.70109847 967.649100792 1357.3654125 c 0
 967.649100792 1346.29270925 966.463240013 1334.79762322 964 1323 c 0
 945 1233 856 1159 765 1159 c 0
 686.535969452 1159 632.394325432 1215.24551885 632.394325432 1289.30284688 c 0
 632.394325432 1300.19093239 633.564628671 1311.46403055 636 1323 c 0
165 1323 m 0
 184 1414 274 1487 364 1487 c 0
 443.20237678 1487 496.649100792 1431.70109847 496.649100792 1357.3654125 c 0
 496.649100792 1346.29270925 495.463240013 1334.79762322 493 1323 c 0
 474 1233 385 1159 294 1159 c 0
 215.535969452 1159 161.394325432 1215.24551885 161.394325432 1289.30284688 c 0
 161.394325432 1300.19093239 162.564628671 1311.46403055 165 1323 c 0
367 1073 m 1
 636 1073 l 1
 408 0 l 1
 139 0 l 1
 367 1073 l 1
EndSplineSet
EndChar

StartChar: eth
Encoding: 240 240 72
Width: 1062
Flags: W
HStem: -49 229<463.931 645.929> 723 229<543.417 739.932> 1292 199<471.711 682.961>
VStem: 153.362 264.904<223.442 558.995> 894.187 216.875<799 1044.25>
LayerCount: 2
Back
SplineSet
223.232 454.656 m 0
 223.232 223.232 380.928 106.496 481.28 106.496 c 0
 634.88 106.496 765.952 278.528 765.952 454.656 c 1
 765.952 647.168 593.92 790.528 442.368 790.528 c 1
 319.488 790.528 223.232 604.16 223.232 454.656 c 0
673.792 1290.24 m 1
 759.808 1191.94 892.928 983.04 905.216 800.768 c 1
 912.066 700.045 920.203 627.63 917.504 501.76 c 1
 917.504 192.512 727.124 -28.6719 491.521 -28.6719 c 0
 188.416 -28.6719 71.6797 202.752 71.6797 458.752 c 0
 71.6797 716.8 237.568 925.696 452.608 925.696 c 0
 622.592 925.696 673.792 845.824 749.568 778.24 c 1
 749.568 892.928 655.36 1120.26 561.152 1204.22 c 1
 407.552 1060.86 l 1
 309.248 1161.22 l 1
 444.416 1290.24 l 1
 391.168 1308.67 337.92 1314.82 284.672 1314.82 c 0
 245.76 1314.82 206.848 1310.72 169.984 1306.62 c 1
 155.648 1454.08 l 1
 182.272 1456.13 210.944 1456.13 237.568 1456.13 c 0
 350.208 1456.13 460.8 1439.74 565.248 1386.5 c 1
 720.896 1525.76 l 1
 817.152 1417.22 l 1
 673.792 1290.24 l 1
EndSplineSet
Fore
SplineSet
429 467 m 0
 421.557333169 432.328064276 418.266691611 400.786623798 418.266691611 372.381660396 c 0
 418.266691611 244.309983644 485.162406772 180 540 180 c 0
 643 180 760 322 791 467 c 1
 795.838370853 489.484193962 798.084649524 510.753344714 798.084649524 530.697944646 c 0
 798.084649524 650.907214339 716.484887442 723 629 723 c 1
 548 723 455 590 429 467 c 0
1006 1229 m 1
 1055.60513071 1152.02652131 1111.06203073 993.128272348 1111.06203073 844.268257094 c 0
 1111.06203073 819.076097482 1109.47373902 794.171433987 1106 770 c 1
 1102 715 1095 666 1083 610 c 0
 1076 579 1068 545 1058 506 c 1
 989 182 743 -49 498 -49 c 0
 248.540325281 -49 153.362452633 105.908963869 153.362452633 305.962451248 c 0
 153.362452633 358.522331521 159.932257567 414.198384757 172 471 c 0
 231 748 453 952 685 952 c 0
 788 952 859 866 891 799 c 1
 893.167938254 809.406103621 894.186998308 822.026408866 894.186998308 836.187672786 c 0
 894.186998308 920.008423976 858.484480718 1057.81628223 814 1110 c 1
 708 1028 l 1
 588 1182 l 1
 688 1255 l 1
 665 1275 648 1291 559 1292 c 0
 557 1292 l 0
 516 1292 477 1288 448 1282 c 1
 470 1475 l 1
 506 1488 575 1490 621 1491 c 0
 626 1491 l 0
 753 1491 846 1436 884 1401 c 1
 1026 1512 l 1
 1150 1327 l 1
 1006 1229 l 1
EndSplineSet
EndChar

StartChar: divide
Encoding: 247 247 78
Width: 1003
Flags: W
HStem: 117 328<486.75 655.647> 524 240<280 1001> 845 328<640.75 810.193>
LayerCount: 2
Fore
SplineSet
561 1009 m 0
 580 1100 670 1173 760 1173 c 0
 839.20237678 1173 892.649100792 1117.70109847 892.649100792 1043.3654125 c 0
 892.649100792 1032.29270925 891.463240013 1020.79762322 889 1009 c 0
 870 919 782 845 691 845 c 0
 612.396307998 845 557.43888171 901.445924609 557.43888171 975.698469289 c 0
 557.43888171 986.463928865 558.594112756 997.603692002 561 1009 c 0
407 281 m 0
 426 372 516 445 606 445 c 0
 685.20237678 445 738.649100792 389.701098466 738.649100792 315.365412502 c 0
 738.649100792 304.292709252 737.463240013 292.79762322 735 281 c 0
 716 191 627 117 536 117 c 0
 457.535969452 117 403.394325432 173.245518846 403.394325432 247.30284688 c 0
 403.394325432 258.190932387 404.564628671 269.464030548 407 281 c 0
280 764 m 1
 1052 764 l 1
 1001 524 l 1
 229 524 l 1
 280 764 l 1
EndSplineSet
EndChar

StartChar: oslash
Encoding: 248 248 79
Width: 1044
Flags: W
HStem: -29 230<547.957 715.128> 870 230<645.906 839.694>
VStem: 189.065 268.054<341.049 633.177> 899.997 266.107<438.785 729.869>
LayerCount: 2
Back
SplineSet
53.248 -28.6719 m 29
 798.72 1101.82 l 25
 1060.86 1097.73 l 25
 339.968 -28.6719 l 25
 53.248 -28.6719 l 29
92.1602 536.576 m 0
 92.1602 862.404 288.516 1099.78 565.248 1099.78 c 0
 840.669 1099.78 1036.29 862.404 1036.29 536.576 c 0
 1036.29 212.042 840.669 -28.6719 565.248 -28.6719 c 1
 288.516 -28.6719 92.1602 212.042 92.1602 536.576 c 0
352.256 536.576 m 0
 352.256 375.544 446.976 200.704 565.248 200.704 c 0
 690.08 200.704 776.192 375.544 776.192 536.576 c 0
 776.192 697.87 682.111 870.4 565.248 870.4 c 0
 446.976 870.4 352.256 697.87 352.256 536.576 c 0
EndSplineSet
Fore
SplineSet
899 635 m 1
 547 221 l 1
 560 208 584 201 608 201 c 0
 729 201 855 371 889 532 c 0
 893.132316359 551.835118524 899.996798877 583.964984762 899.996798877 615.405897564 c 0
 899.996798877 622.007707135 899.694146913 628.579141058 899 635 c 1
814 850 m 1
 801 860 785 870 763 870 c 0
 619 870 499 692 465 532 c 0
 461.329062635 515.113688121 457.119094025 484.751595105 457.119094025 462.284220303 c 0
 457.119094025 454.149908712 457.670937365 447.050438013 459 442 c 1
 814 850 l 1
47 -29 m 1
 228 178 l 1
 203.911616212 226.176767577 189.065445284 299.669161686 189.065445284 382.429484229 c 0
 189.065445284 430.225544557 194.017145096 481.112772279 205 532 c 1
 275 860 508 1100 812 1100 c 0
 866 1100 952 1079 989 1051 c 1
 1032 1102 l 1
 1295 1102 l 1
 1125 899 l 1
 1151.1901299 844.125442114 1166.10374947 770.97516059 1166.10374947 688.763165504 c 0
 1166.10374947 639.135272558 1160.66918984 586.205268913 1149 532 c 0
 1080 208 830 -29 563 -29 c 1
 502 -29 417 -14 375 18 c 1
 334 -29 l 1
 47 -29 l 1
EndSplineSet
EndChar

StartChar: thorn
Encoding: 254 254 83
Width: 1093
Flags: W
HStem: 0 21G<119 387.5> 117 229<554.916 726.355> 1102 229<755.466 985.189> 1434 20G<423.75 686>
VStem: 926.575 264.772<650.072 1038.55>
LayerCount: 2
Back
SplineSet
270.336 0 m 17
 118.784 0 l 1
 118.784 1454.08 l 1
 270.336 1454.08 l 1
 270.336 1112.06 l 17
 335.872 1206.27 405.504 1284.1 550.912 1284.1 c 0
 802.816 1284.1 923.648 1015.81 923.648 733.184 c 0
 923.648 450.56 835.584 163.84 512 163.84 c 1
 348.16 163.84 270.336 311.296 270.336 311.296 c 0
 270.336 311.296 270.336 121.406 270.336 0 c 17
772.096 729.088 m 0
 772.096 962.561 688.128 1148.93 561.152 1148.93 c 1
 421.888 1148.93 266.24 987.136 266.24 729.088 c 1
 266.24 438.272 409.6 299.008 522.24 299.008 c 0
 671.744 299.008 772.096 454.656 772.096 729.088 c 0
EndSplineSet
Fore
SplineSet
377 0 m 17
 119 0 l 1
 428 1454 l 1
 686 1454 l 1
 623 1159 l 17
 669 1229 783 1331 879 1331 c 0
 1091.37855716 1331 1191.34715907 1150.13928987 1191.34715907 923.779794008 c 0
 1191.34715907 864.496776328 1184.49027531 802.092979933 1171 739 c 0
 1105 430 928 117 595 117 c 1
 493 117 441 227 432 258 c 1
 432 258 398 101 377 0 c 17
915 750 m 0
 922.990823339 788.005135391 926.575354063 824.566830098 926.575354063 858.804096148 c 0
 926.575354063 1000.23432374 865.408149583 1102 801 1102 c 1
 699 1102 568 935 529 751 c 1
 515.143697473 685.56746029 508.925140449 627.048397113 508.925140449 576.203090011 c 0
 508.925140449 428.896936565 561.120230324 346 631 346 c 0
 725 346 860 492 915 750 c 0
EndSplineSet
EndChar

StartChar: uni201F
Encoding: 8223 8223 86
Width: 770
Flags: W
HStem: 1278 327<506.826 595.648 886.802 972.42>
VStem: 329.857 175.62<1200.06 1386.97> 708.911 176.566<1203.12 1389.4>
LayerCount: 2
Fore
SplineSet
716 1446 m 1
 731 1516 803 1607 918 1607 c 1
 993.480884754 1607 1045.08152575 1543.06257315 1045.08152575 1474.68515742 c 0
 1045.08152575 1465.15599095 1044.07935999 1455.5405929 1042 1446 c 1
 1021 1345 949 1293 891 1280 c 1
 889 1277 888 1273 887 1269 c 0
 885.940505187 1263.85388234 885.476638144 1257.83723178 885.476638144 1251.27598276 c 0
 885.476638144 1214.48756872 900.059494813 1160.57829757 906 1147 c 1
 823 1104 l 1
 790.336888208 1134.94400065 708.910614678 1244.20459438 708.910614678 1378.43586628 c 0
 708.910614678 1400.36817011 711.084445072 1422.96711405 716 1446 c 1
337 1444 m 1
 352 1514 423 1605 538 1605 c 1
 613.617108065 1605 666.040812809 1540.83158414 666.040812809 1472.31490418 c 0
 666.040812809 1462.90696328 665.052432127 1453.41704152 663 1444 c 1
 642 1343 570 1291 512 1278 c 1
 510 1275 508 1271 507 1267 c 0
 505.940505187 1261.85388234 505.476638144 1255.83723178 505.476638144 1249.27598276 c 0
 505.476638144 1212.48756872 520.059494813 1158.57829757 526 1145 c 1
 443 1102 l 1
 410.378828655 1132.90426759 329.856581621 1241.92413553 329.856581621 1375.91891857 c 0
 329.856581621 1398.01300498 332.045815713 1420.78610791 337 1444 c 1
EndSplineSet
EndChar

StartChar: Euro
Encoding: 8364 8364 87
Width: 1226
Flags: W
HStem: 164 229<677.606 984.35> 481 166<263 378 657 907> 760 166<328 423 739 973> 1053 229<816.167 1088.01>
LayerCount: 2
Back
SplineSet
259.896 761.856 m 1
 131.072 761.856 l 1
 131.072 897.024 l 1
 283.875 897.024 l 1
 334.093 1068.98 455.209 1196.03 626.688 1196.03 c 0
 786.432 1196.03 847.872 1155.07 942.08 1062.91 c 9
 845.824 966.656 l 2
 788.48 1024 745.472 1060.86 626.688 1060.86 c 1
 542.262 1060.86 478.305 987.761 440.492 897.024 c 1
 710.656 897.024 l 1
 710.656 761.856 l 1
 404.933 761.856 l 1
 402.598 742.933 401.408 724.355 401.408 706.561 c 0
 401.408 685.201 402.559 664.713 404.72 645.12 c 1
 704.512 645.12 l 1
 704.512 509.952 l 1
 439.923 509.952 l 1
 486.666 403.348 566.669 346.112 626.688 346.112 c 0
 712.704 346.112 763.904 362.496 849.92 456.704 c 9
 946.176 360.448 l 1
 878.592 282.624 817.152 210.944 626.688 210.944 c 1
 441.516 210.944 330.388 340.519 283.775 509.952 c 1
 124.928 509.952 l 1
 124.928 645.12 l 1
 260.602 645.12 l 1
 258.894 666.777 258.048 688.671 258.048 710.656 c 0
 258.048 727.88 258.669 744.966 259.896 761.856 c 1
EndSplineSet
Fore
SplineSet
423 760 m 1
 293 760 l 1
 328 926 l 1
 478 926 l 1
 532 1027 608 1112 703 1180 c 0
 798 1248 896 1282 999 1282 c 0
 1070 1282 1133 1267 1185 1236 c 0
 1237 1205 1282 1154 1322 1083 c 1
 1138 950 l 1
 1098 1019 1035 1053 951 1053 c 0
 914 1053 873 1040 827 1015 c 0
 781 990 751 960 739 926 c 1
 1008 926 l 1
 973 760 l 1
 682 760 l 1
 677 756 671 743 667 722 c 1
 657 647 l 1
 943 647 l 1
 907 481 l 1
 645 481 l 1
 650 456 672 435 710 418 c 0
 748 401 782 393 811 393 c 0
 846 393 871 394 887 396 c 0
 903 398 923 404 946 415 c 0
 969 426 994 443 1021 467 c 1
 1167 334 l 1
 1139 307 1115 284 1092 267 c 0
 1069 250 1043 232 1010 215 c 0
 977 198 940 184 899 176 c 0
 858 168 813 164 762 164 c 0
 651 164 559 194 488 256 c 0
 417 318 381 393 378 481 c 1
 227 481 l 1
 263 647 l 1
 399 647 l 1
 403 676 407 702 412 725 c 0
 416 744 420 756 423 760 c 1
EndSplineSet
EndChar

StartChar: A
Encoding: 65 65 88
Width: 1421
Flags: W
HStem: 0 21G<20 342.361 1063.12 1377> 382 239<658 1005> 1436 20G<840.571 1165.94>
LayerCount: 2
Back
SplineSet
651.264 1255.42 m 5
 452.608 620.544 l 5
 851.968 620.544 l 5
 651.264 1255.42 l 5
897.024 505.856 m 5
 399.36 505.856 l 4
 227.328 0 l 4
 61.4404 0 l 5
 585.729 1456.13 l 4
 585.729 1456.13 663.184 1456.13 712.704 1456.13 c 21
 1236.99 0 l 5
 1067.01 0 l 5
 897.024 505.856 l 5
EndSplineSet
Fore
SplineSet
939 1124 m 0
 658 621 l 1
 1005 621 l 1
 939 1124 l 0
1163 1456 m 1
 1377 0 l 1
 1066 0 l 0
 1011 382 l 1
 857 382 702 382 548 382 c 1
 331 0 l 0
 20 0 l 1
 852 1456 l 1
 1163 1456 l 1
EndSplineSet
EndChar

StartChar: B
Encoding: 66 66 89
Width: 1222
Flags: HMW
LayerCount: 2
Back
SplineSet
276.48 706.561 m 1xf4
 276.48 141.312 l 1
 595.968 141.312 l 1
 888.832 141.312 927.744 299.008 927.744 430.08 c 0
 927.744 563.2 835.584 704.512 595.968 704.512 c 1
 569.344 704.512 309.248 706.561 276.48 706.561 c 1xf4
276.48 1316.86 m 1
 276.48 845.824 l 1
 315.392 845.824 481.28 843.776 514.048 843.776 c 1
 837.632 843.776 847.872 1007.62 847.872 1085.44 c 1xf8
 847.872 1173.5 817.152 1314.82 493.568 1314.82 c 1
 462.848 1314.82 313.344 1316.86 276.48 1316.86 c 1
118.784 1456.13 m 1
 493.568 1456.13 l 1
 933.888 1456.13 1007.62 1241.09 1007.62 1085.44 c 1xf8
 1007.62 921.6 862.208 782.336 753.664 782.336 c 1
 999.424 782.336 1083.39 542.72 1083.39 423.936 c 1xf4
 1083.39 286.72 1040.38 0 595.968 0 c 1
 118.784 0 l 1
 118.784 1456.13 l 1
EndSplineSet
Fore
SplineSet
519 638 m 1
 434 240 l 1
 661 240 l 1
 884 240 962 334 984 439 c 0
 987.501793283 455.713104306 989.508770831 472.147514152 989.508770831 487.968509615 c 0
 989.508770831 571.542844497 933.504549903 638 746 638 c 1
 519 638 l 1
641 1216 m 1
 570 878 l 1
 738 878 l 1
 939 878 1012 966 1029 1045 c 1
 1031.37564265 1056.03975116 1032.71628553 1067.33337018 1032.71628553 1078.59431666 c 0
 1032.71628553 1147.91623475 981.911519212 1216 809 1216 c 1
 785 1216 670 1216 641 1216 c 1
424 1456 m 1
 860 1456 l 1
 1228.58650198 1456 1311.52231447 1295.57532367 1311.52231447 1155.72139692 c 0
 1311.52231447 1125.58928553 1307.67239272 1096.41207858 1302 1070 c 1
 1269 916 1158 833 1035 797 c 1
 1198.22224066 754.932412202 1258.09505583 612.346890035 1258.09505583 499.077694399 c 0
 1258.09505583 477.719256784 1255.9662061 457.403196309 1252 439 c 1
 1219 285 1086 0 640 0 c 1
 115 0 l 1
 424 1456 l 1
EndSplineSet
EndChar

StartChar: C
Encoding: 67 67 90
Width: 1409
Flags: W
HStem: -29 240<615.506 910.653> 1245 240<818.472 1106.12>
VStem: 230.53 283.459<320.782 807.326> 1208 296.663<969 1136.25>
LayerCount: 2
Back
SplineSet
1047 726 m 4
 1047 483 970 211 715 211 c 5
 461 211 383 483 383 726 c 5
 383 973 461 1245 715 1245 c 5
 970 1245 1047 973 1047 726 c 4
100 726 m 5
 100 389 266 -29 715 -29 c 5
 1165 -29 1329 389 1329 726 c 5
 1329 1067 1165 1485 715 1485 c 5
 266 1485 100 1067 100 726 c 5
EndSplineSet
Fore
SplineSet
1208 969 m 0
 1208 1095 1138 1245 980 1245 c 1
 726 1245 590 973 537 726 c 1
 522.755596199 659.434805315 513.988974164 590.693505545 513.988974164 525.963231447 c 0
 513.988974164 354.391986709 575.578433951 211 760 211 c 1
 918 211 1051 357 1105 483 c 0
 1399 483 l 0
 1321 251 1056 -29 709 -29 c 1
 353.436281666 -29 230.529553833 233.131056685 230.529553833 509.58601588 c 0
 230.529553833 582.233820206 239.016899154 655.870764095 254 726 c 1
 326 1067 582 1485 1031 1485 c 1
 1358.74899285 1485 1504.66272448 1232.20463685 1504.66272448 1009.80922515 c 0
 1504.66272448 996.067821903 1504.10565844 982.442478886 1503 969 c 0
 1208 969 l 0
EndSplineSet
EndChar

StartChar: D
Encoding: 68 68 91
Width: 1273
Flags: W
HStem: 0 240<434 748.631> 1217 239<642 947.514>
VStem: 1087.86 288.221<670.298 1073.14>
LayerCount: 2
Back
SplineSet
980.992 727.04 m 1
 980.992 1075.2 796.672 1314.82 538.624 1314.82 c 1
 272.384 1314.82 l 1
 272.384 141.312 l 1
 538.624 141.312 l 1
 796.672 141.312 980.992 380.928 980.992 727.04 c 1
1146.88 727.04 m 1
 1146.88 319.488 899.072 0 538.624 0 c 1
 114.688 0 l 1
 114.688 1456.13 l 1
 538.624 1456.13 l 1
 905.216 1456.13 1146.88 1136.64 1146.88 727.04 c 1
EndSplineSet
Fore
SplineSet
1073 752 m 1
 1082.96998637 798.876427123 1087.86133184 843.580664465 1087.86133184 885.438448495 c 0
 1087.86133184 1082.88828257 979.021110039 1217 781 1217 c 1
 642 1217 l 1
 434 240 l 1
 573 240 l 1
 813 240 1007 442 1073 752 c 1
1356 752 m 1
 1265 323 946 0 582 0 c 1
 115 0 l 1
 424 1456 l 1
 891 1456 l 1
 1200.87719874 1456 1376.08248635 1235.0538958 1376.08248635 934.734784979 c 0
 1376.08248635 876.466457115 1369.48700677 815.210188349 1356 752 c 1
EndSplineSet
EndChar

StartChar: E
Encoding: 69 69 92
Width: 1211
Flags: W
HStem: 0 240<434 1097> 626 240<567 1167> 1216 240<641 1355>
LayerCount: 2
Back
SplineSet
114.688 1456.13 m 0
 1036.29 1456.13 l 1
 1036.29 1314.82 l 0
 272.384 1314.82 l 0
 272.384 817.152 l 1
 993.28 817.152 l 1
 993.28 675.84 l 0
 272.384 675.84 l 0
 272.384 141.312 l 0
 1036.29 141.312 l 0
 1036.29 0 l 0
 114.688 0 l 1
 114.688 1456.13 l 0
EndSplineSet
Fore
SplineSet
424 1456 m 0
 1406 1456 l 1
 1355 1216 l 0
 641 1216 l 0
 567 866 l 1
 1218 866 l 1
 1167 626 l 0
 516 626 l 0
 434 240 l 0
 1148 240 l 0
 1097 0 l 0
 115 0 l 1
 424 1456 l 0
EndSplineSet
EndChar

StartChar: F
Encoding: 70 70 93
Width: 1191
Flags: HMW
LayerCount: 2
Back
SplineSet
114.688 1456.13 m 1
 1036.29 1456.13 l 1
 1036.29 1314.82 l 25
 272.384 1314.82 l 25
 272.384 817.152 l 1
 993.28 817.152 l 1
 993.28 675.84 l 25
 272.384 675.84 l 1
 272.384 0 l 1
 114.688 0 l 1
 114.688 1456.13 l 1
EndSplineSet
Fore
SplineSet
424 1456 m 1
 1406 1456 l 1
 1356 1217 l 25
 642 1217 l 25
 567 866 l 1
 1218 866 l 1
 1167 627 l 25
 516 627 l 1
 383 0 l 1
 115 0 l 1
 424 1456 l 1
EndSplineSet
EndChar

StartChar: G
Encoding: 71 71 94
Width: 1421
Flags: W
HStem: -27 238<625.702 930.482> 567 240<879 1131> 1257 240<831.373 1090.84>
VStem: 225.518 288.776<348.035 826.313>
LayerCount: 2
Back
SplineSet
690.176 -28.6719 m 0
 251.904 -28.6719 90.1123 389.12 90.1123 731.136 c 1
 90.1123 1071.1 251.904 1495.04 692.224 1495.04 c 0
 915.456 1495.04 1036.29 1400.83 1126.4 1259.52 c 9
 999.424 1191.94 l 2
 937.984 1275.9 811.008 1353.73 692.224 1353.73 c 1
 393.216 1353.73 256 1003.52 256 731.136 c 1
 256 456.704 393.216 110.592 690.176 110.592 c 0
 1003.52 110.592 1067.01 430.08 1067.01 616.448 c 1
 681.984 616.448 l 1
 681.984 757.76 l 1
 1230.85 757.76 l 1
 1230.85 671.744 l 1
 1230.85 356.352 1097.73 -28.6719 690.176 -28.6719 c 0
EndSplineSet
Fore
SplineSet
707 -27 m 0
 350.611538195 -27 225.517854131 233.129935708 225.517854131 521.285154429 c 0
 225.517854131 601.016774283 235.095164881 682.894040788 252 762 c 1
 324 1100 576 1497 1033 1497 c 0
 1236 1497 1397 1386 1439 1200 c 9
 1163 1114 l 17
 1158 1188 1041 1257 982 1257 c 1
 747 1257 583 989 535 762 c 1
 521.653891966 699.223862211 514.293937144 633.821146991 514.293937144 570.924739479 c 0
 514.293937144 379.33452085 582.585984665 211 758 211 c 0
 1005 211 1101 428 1131 567 c 1
 828 567 l 1
 879 807 l 1
 1460 807 l 1
 1428 661 l 1
 1360 341 1140 -27 707 -27 c 0
EndSplineSet
EndChar

StartChar: H
Encoding: 72 72 95
Width: 1253
Flags: W
HStem: 0 21G<115 387.263 868 1142.24> 624 240<567 1001> 1436 20G<419.755 692 1172.78 1447>
LayerCount: 2
Back
SplineSet
114.688 1456.13 m 0
 272.384 1456.13 l 1
 272.384 815.104 l 1
 933.888 815.104 l 1
 933.888 1456.13 l 1
 1091.58 1456.13 l 1
 1091.58 0 l 1
 933.888 0 l 1
 933.888 673.792 l 0
 272.384 673.792 l 1
 272.384 0 l 1
 114.688 0 l 1
 114.688 1456.13 l 0
EndSplineSet
Fore
SplineSet
424 1456 m 0
 692 1456 l 1
 567 864 l 1
 1052 864 l 1
 1177 1456 l 1
 1447 1456 l 1
 1138 0 l 1
 868 0 l 1
 1001 624 l 0
 516 624 l 1
 383 0 l 1
 115 0 l 1
 424 1456 l 0
EndSplineSet
EndChar

StartChar: I
Encoding: 73 73 96
Width: 555
Flags: W
HStem: 0 21G<143 415.245> 1436 20G<447.755 720>
VStem: 143 577
LayerCount: 2
Back
SplineSet
143.36 0 m 1
 143.36 1456.13 l 1
 301.056 1456.13 l 1
 301.056 0 l 1
 143.36 0 l 1
EndSplineSet
Fore
SplineSet
143 0 m 1
 452 1456 l 1
 720 1456 l 1
 411 0 l 1
 143 0 l 1
EndSplineSet
EndChar

StartChar: J
Encoding: 74 74 97
Width: 1243
Flags: W
HStem: -35 240<532.58 801.014> 1436 20G<1164.77 1437>
VStem: 203.544 271.388<261.674 583.029>
LayerCount: 2
Back
SplineSet
102.4 534.528 m 0
 243.712 534.528 l 1
 243.712 337.92 364.544 129.024 555.008 129.024 c 1
 747.521 129.024 860.16 333.824 860.16 534.528 c 2
 860.16 1456.13 l 1
 1017.86 1456.13 l 1
 1017.86 534.528 l 2
 1017.86 208.896 829.44 -20.4805 555.008 -20.4805 c 1
 282.624 -20.4805 102.4 221.184 102.4 534.528 c 0
EndSplineSet
Fore
SplineSet
227 586 m 0
 495 586 l 1
 483.310232072 531.242666022 474.932634226 474.119496272 474.932634226 421.267947822 c 0
 474.932634226 302.314644926 517.370847188 205 660 205 c 1
 853 205 946 404 985 586 c 2
 1169 1456 l 1
 1437 1456 l 1
 1253 586 l 2
 1176 222 949 -35 609 -35 c 1
 324.472167029 -35 203.544305371 135.548232643 203.544305371 381.762007048 c 0
 203.544305371 445.340530699 211.607786237 513.964439589 227 586 c 0
EndSplineSet
EndChar

StartChar: K
Encoding: 75 75 98
Width: 1333
Flags: W
HStem: 0 21G<115 387.234 943.777 1290> 1436 20G<419.755 692 1213.33 1570>
LayerCount: 2
Back
SplineSet
114.688 1456.13 m 0
 272.384 1456.13 l 1
 272.384 747.52 l 1
 980.992 1456.13 l 1
 1167.36 1456.13 l 1
 487.424 753.664 l 1
 1200.13 0 l 1
 1005.57 0 l 1
 376.832 657.408 l 1
 272.384 550.912 l 1
 272.384 0 l 1
 114.688 0 l 1
 114.688 1456.13 l 0
EndSplineSet
Fore
SplineSet
424 1456 m 0
 692 1456 l 1
 560 833 l 1
 1235 1456 l 1
 1570 1456 l 1
 877 808 l 1
 1290 0 l 1
 954 0 l 1
 633 628 l 1
 488 496 l 1
 383 0 l 1
 115 0 l 1
 424 1456 l 0
EndSplineSet
EndChar

StartChar: L
Encoding: 76 76 99
Width: 1170
Flags: W
HStem: 0 240<434 1099> 1436 20G<419.755 692>
LayerCount: 2
Back
SplineSet
114.688 1456.13 m 1
 272.384 1456.13 l 1
 272.384 141.312 l 1
 1038.34 141.312 l 1
 1038.34 0 l 1
 114.688 0 l 1
 114.688 1456.13 l 1
EndSplineSet
Fore
SplineSet
424 1456 m 1
 692 1456 l 1
 434 240 l 1
 1150 240 l 1
 1099 0 l 1
 115 0 l 1
 424 1456 l 1
EndSplineSet
EndChar

StartChar: M
Encoding: 77 77 100
Width: 1655
Flags: W
HStem: 0 21G<115 387.241 687.859 970.728 1272 1544.24> 1436 20G<419.755 786.539 1478.86 1849>
LayerCount: 2
Back
SplineSet
65.5361 0 m 1
 65.5361 1456.13 l 2
 280.576 1456.13 l 1
 739.328 208.896 l 2
 1200.13 1456.13 l 1
 1406.98 1456.13 l 1
 1406.98 0 l 1
 1253.38 0 l 25
 1253.38 1204.22 l 1
 825.344 16.3838 l 0
 647.168 16.3838 l 1
 219.136 1204.22 l 0
 219.136 0 l 1
 65.5361 0 l 1
EndSplineSet
Fore
SplineSet
115 0 m 1
 424 1456 l 2
 784 1456 l 1
 915 424 l 2
 1490 1456 l 1
 1849 1456 l 1
 1540 0 l 1
 1272 0 l 25
 1476 962 l 1
 960 0 l 0
 690 0 l 1
 587 962 l 0
 383 0 l 1
 115 0 l 1
EndSplineSet
EndChar

StartChar: N
Encoding: 78 78 101
Width: 1331
Flags: W
HStem: 0 21G<115 387.255 944.559 1220.24> 1436 20G<419.755 691.957 1252.77 1525>
LayerCount: 2
Back
SplineSet
118.784 0 m 1
 118.784 1456.13 l 2
 272.384 1456.13 l 1
 1011.71 294.912 l 25
 1011.71 1456.13 l 1
 1169.41 1456.13 l 1
 1169.41 0 l 0
 1024 0 l 1
 276.48 1189.89 l 0
 276.48 0 l 1
 118.784 0 l 1
EndSplineSet
Fore
SplineSet
115 0 m 1
 424 1456 l 2
 684 1456 l 1
 1058 516 l 25
 1257 1456 l 1
 1525 1456 l 1
 1216 0 l 0
 952 0 l 1
 590 973 l 0
 383 0 l 1
 115 0 l 1
EndSplineSet
EndChar

StartChar: O
Encoding: 79 79 102
Width: 1409
Flags: W
HStem: -29 240<615.506 921.717> 1245 240<818.472 1124.11>
VStem: 230.53 283.459<320.782 807.326> 1224.99 281.93<645.695 1136.61>
LayerCount: 2
Back
SplineSet
1103.87 724.992 m 0
 1103.87 995.328 1007.62 1353.73 684.032 1353.73 c 0
 362.496 1353.73 266.24 995.328 266.24 724.992 c 1
 266.24 456.704 364.544 110.592 684.032 110.592 c 1
 1005.57 110.592 1103.87 456.704 1103.87 724.992 c 0
100.352 724.992 m 1
 100.352 1046.53 256 1495.04 684.032 1495.04 c 1
 1114.11 1495.04 1269.76 1046.53 1269.76 724.992 c 1
 1269.76 405.504 1112.06 -30.7197 684.032 -30.7197 c 1
 258.048 -30.7197 100.352 405.504 100.352 724.992 c 1
EndSplineSet
Fore
SplineSet
1201 726 m 0
 1215.80006727 794.973898424 1224.98567268 865.897262772 1224.98567268 932.302839182 c 0
 1224.98567268 1103.6999352 1163.79212916 1245 980 1245 c 1
 726 1245 590 973 537 726 c 1
 522.755596199 659.434805315 513.988974164 590.693505545 513.988974164 525.963231447 c 0
 513.988974164 354.391986709 575.578433951 211 760 211 c 1
 1015 211 1149 483 1201 726 c 0
254 726 m 1
 326 1067 582 1485 1031 1485 c 1
 1385.87866012 1485 1506.9152825 1225.03730912 1506.9152825 947.888799512 c 0
 1506.9152825 873.602175538 1498.21941438 798.080837556 1483 726 c 1
 1411 389 1159 -29 709 -29 c 1
 353.436281666 -29 230.529553833 233.131056685 230.529553833 509.58601588 c 0
 230.529553833 582.233820206 239.016899154 655.870764095 254 726 c 1
EndSplineSet
EndChar

StartChar: P
Encoding: 80 80 103
Width: 1194
Flags: W
HStem: 0 21G<115 387.247> 584 240<558 937.898> 1216 240<641 993.2>
VStem: 1052.13 280.069<929.145 1162.52>
LayerCount: 2
Back
SplineSet
278.528 774.145 m 1
 423.936 774.145 l 1
 751.616 774.145 870.4 874.496 870.4 1046.53 c 1
 870.4 1216.51 751.616 1314.82 423.936 1314.82 c 1
 278.528 1314.82 l 1
 278.528 774.145 l 1
120.832 1456.13 m 0
 278.528 1456.13 l 1
 423.936 1456.13 l 1
 798.72 1456.13 1032.19 1302.53 1032.19 1046.53 c 0
 1032.19 794.624 798.72 630.784 423.936 630.784 c 1
 278.528 630.784 l 1
 278.528 0 l 1
 120.832 0 l 1
 120.832 1456.13 l 0
EndSplineSet
Fore
SplineSet
558 824 m 1
 629 824 l 0
 867 824 1009 845 1046 1020 c 0
 1050.11391737 1039.4577173 1052.12620308 1057.01160357 1052.12620308 1072.84447437 c 0
 1052.12620308 1199.41023883 923.537504467 1216 712 1216 c 0
 641 1216 l 1
 558 824 l 1
424 1456 m 0
 692 1456 l 2
 946.446403059 1456 1332.19551725 1451.04518071 1332.19551725 1127.45243185 c 0
 1332.19551725 1094.95459114 1328.30491901 1059.24302387 1320 1020 c 0
 1229 591 787 584 507 584 c 1
 383 0 l 1
 115 0 l 1
 424 1456 l 0
EndSplineSet
EndChar

StartChar: Q
Encoding: 81 81 104
Width: 1437
Flags: W
HStem: -35 242<624.592 896.152> -29 21G<1159.82 1200> 1255 240<817.081 1128.23>
VStem: 234.096 286.764<318.244 830.327> 1228.45 280.243<670 1144.79>
LayerCount: 2
Back
SplineSet
1046.53 753.664 m 4
 1046.53 980.853 972.04 1282.05 714.752 1282.05 c 4
 459.416 1282.05 382.976 980.853 382.976 753.664 c 5
 382.976 506.839 461.042 188.416 714.752 188.416 c 5
 970.412 188.416 1046.53 506.839 1046.53 753.664 c 4
100.352 753.664 m 5
 100.352 1074.34 264.192 1521.66 714.752 1521.66 c 5
 1167.39 1521.66 1329.15 1074.34 1329.15 753.664 c 5
 1329.15 412.53 1165.23 -53.248 714.752 -53.248 c 5
 266.349 -53.248 100.352 412.53 100.352 753.664 c 5
EndSplineSet
Fore
SplineSet
1207 754 m 1xb8
 1220.96461134 819.168186263 1228.44688352 882.475701099 1228.44688352 940.922745482 c 0
 1228.44688352 1121.04170542 1157.38654781 1255 986 1255 c 1
 734 1255 597 999 545 754 c 1
 530.71618036 686.747015859 520.860040917 611.081439342 520.860040917 537.965595914 c 0
 520.860040917 365.379619179 575.775530568 207 757 207 c 1
 780 207 856 211 898 244 c 1
 763 362 l 1
 952 559 l 1
 1082 428 l 1
 1128 489 1186 657 1207 754 c 1xb8
258 754 m 1
 321 1052 572 1495 1037 1495 c 1
 1380.88356583 1495 1508.68954123 1248.50679568 1508.68954123 970.398718441 c 0
 1508.68954123 899.136539852 1500.29799204 825.798575994 1485 754 c 1
 1435 520 1336 350 1255 260 c 1
 1370 161 l 1
 1180 -29 l 1x78
 1070 80 l 1
 982 14 849 -35 702 -35 c 1
 367.519764796 -35 234.095976966 233.929006042 234.095976966 530.461392024 c 0
 234.095976966 604.505573189 242.414972119 680.270829642 258 754 c 1
EndSplineSet
EndChar

StartChar: R
Encoding: 82 82 105
Width: 1224
Flags: W
HStem: -1 21G<115 387.227 845.31 1158> 580 244<558 656.383> 1216 239<641 993.2>
VStem: 1052.13 280.069<930.138 1161.36>
LayerCount: 2
Back
SplineSet
383 824 m 5
 663 824 829 828 829 1020 c 4
 829 1212 663 1216 383 1216 c 5
 383 824 l 5
115 1456 m 4
 383 1456 l 6
 663 1456 1102.68 1449.5 1102.68 1020 c 4
 1102.68 591 663 584 383 584 c 5
 383 0 l 5
 115 0 l 5
 115 1456 l 4
EndSplineSet
Fore
SplineSet
558 824 m 1
 629 824 l 0
 867 824 1009 845 1046 1019 c 0
 1050.11391737 1038.34653035 1052.12620308 1055.82631728 1052.12620308 1071.61530359 c 0
 1052.12620308 1197.83026158 923.537504467 1216 712 1216 c 0
 641 1216 l 1
 558 824 l 1
852 -1 m 1
 657 582 l 1
 644 581 621 580 597 580 c 0
 565 580 529 581 506 581 c 1
 383 -1 l 1
 115 -1 l 1
 424 1455 l 0
 692 1455 l 2
 946.446403059 1455 1332.19551725 1449.2193775 1332.19551725 1126.2263364 c 0
 1332.19551725 1093.78872326 1328.30491901 1058.15176103 1320 1019 c 0
 1277 818 1147 680 931 626 c 1
 1158 -1 l 1
 852 -1 l 1
EndSplineSet
EndChar

StartChar: S
Encoding: 83 83 106
Width: 1202
Flags: W
HStem: -29 242<528.787 833.226> 1251 241<717.031 1020.35>
VStem: 357.152 281.398<982.333 1174.17> 942.921 280.977<317.19 552.503>
LayerCount: 2
Back
SplineSet
88.0645 290.816 m 5
 219.136 370.688 l 5
 309.248 231.424 405.504 110.592 600.064 110.592 c 5
 782.336 110.592 923.648 239.616 923.648 397.312 c 5
 923.648 548.864 776.192 649.216 532.48 712.704 c 4
 354.304 759.808 114.688 847.872 114.688 1095.68 c 5
 114.688 1347.58 342.016 1495.04 575.488 1495.04 c 5
 819.2 1495.04 933.888 1388.54 1028.1 1249.28 c 5
 907.264 1169.41 l 5
 847.872 1271.81 731.136 1353.73 571.392 1353.73 c 5
 417.792 1353.73 276.48 1267.71 276.48 1095.68 c 5
 276.48 913.408 509.952 868.352 643.072 823.296 c 4
 845.824 755.712 1085.44 665.6 1085.44 397.312 c 5
 1085.44 147.456 854.016 -30.7197 600.064 -30.7197 c 5
 380.928 -30.7197 221.184 81.9199 88.0645 290.816 c 5
EndSplineSet
Fore
SplineSet
169 404 m 1
 446 447 l 1
 451 328 507 213 665 213 c 1
 818 213 915 294 938 404 c 0
 941.333045803 419.608409615 942.921399577 434.11977803 942.921399577 447.665192992 c 0
 942.921399577 600.742754795 740.066415184 630.454555208 560 726 c 0
 457.130316363 781.260573855 357.151739019 850.976679178 357.151739019 1002.12638144 c 0
 357.151739019 1028.76583267 360.257320361 1057.93481238 367 1090 c 1
 425 1362 690 1492 937 1492 c 1
 1167 1492 1320 1356 1341 1186 c 1
 1057 1135 l 1
 1042 1206 996 1251 886 1251 c 1
 776 1251 667 1214 641 1090 c 0
 639.343649355 1082.27036365 638.549976244 1074.79678707 638.549976244 1067.56344973 c 0
 638.549976244 943.785807619 870.956672711 890.35602858 990 828 c 0
 1122.39674253 759.287766536 1223.89813627 673.723524644 1223.89813627 508.938601275 c 0
 1223.89813627 477.072025559 1220.10229667 442.242840273 1212 404 c 1
 1155 134 894 -29 614 -29 c 1
 348.201163067 -29 168.033039677 130.291542399 168.033039677 372.891288442 c 0
 168.033039677 383.114806899 168.353001411 393.486272934 169 404 c 1
EndSplineSet
EndChar

StartChar: T
Encoding: 84 84 107
Width: 1353
Flags: W
HStem: 0 21G<555 827.243> 1216 240<387 813 1081 1538>
LayerCount: 2
Back
SplineSet
77.8242 1456.13 m 0
 1169.41 1456.13 l 1
 1169.41 1314.82 l 0
 712.704 1314.82 l 1
 712.704 0 l 1
 555.008 0 l 1
 555.008 1314.82 l 1
 77.8242 1314.82 l 1
 77.8242 1456.13 l 0
EndSplineSet
Fore
SplineSet
387 1456 m 0
 1589 1456 l 1
 1538 1216 l 0
 1081 1216 l 1
 823 0 l 1
 555 0 l 1
 813 1216 l 1
 336 1216 l 1
 387 1456 l 0
EndSplineSet
EndChar

StartChar: U
Encoding: 85 85 108
Width: 1275
Flags: W
HStem: -35 240<555.586 824.074> 1436 20G<419.77 692 1196.77 1469>
VStem: 218.262 273.11<274.759 694.75>
LayerCount: 2
Back
SplineSet
625 -35 m 5
 966 -35 1138 222 1138 586 c 6
 1138 1456 l 5
 870 1456 l 5
 870 586 l 6
 870 404 819 205 625 205 c 5
 432 205 381 404 381 586 c 6
 381 1456 l 5
 113 1456 l 5
 113 586 l 6
 113 222 285 -35 625 -35 c 5
EndSplineSet
Fore
SplineSet
630 -35 m 1
 353.901738111 -35 218.262328268 134.473826177 218.262328268 393.097441834 c 0
 218.262328268 452.954749317 225.528135781 517.587550963 240 586 c 2
 424 1456 l 1
 692 1456 l 1
 508 586 l 2
 497.639981754 537.653248185 491.372756886 488.106884518 491.372756886 441.409850396 c 0
 491.372756886 312.317200801 539.268808243 205 681 205 c 1
 875 205 978 404 1017 586 c 2
 1201 1456 l 1
 1469 1456 l 1
 1285 586 l 2
 1208 222 971 -35 630 -35 c 1
EndSplineSet
EndChar

StartChar: V
Encoding: 86 86 109
Width: 1302
Flags: W
HStem: 0 21G<495.379 823.973> 1436 20G<379 669.397 1252.03 1540>
LayerCount: 2
Back
SplineSet
1011.71 1456.13 m 1
 1175.55 1456.13 l 1
 735.232 0 l 1
 516.096 0 l 1
 69.6318 1456.13 l 1
 239.616 1456.13 l 1
 624.64 167.936 l 1
 1011.71 1456.13 l 1
EndSplineSet
Fore
SplineSet
1262 1456 m 1
 1540 1456 l 1
 814 0 l 1
 497 0 l 1
 379 1456 l 1
 668 1456 l 1
 741 411 l 1
 1262 1456 l 1
EndSplineSet
EndChar

StartChar: W
Encoding: 87 87 110
Width: 1708
Flags: W
HStem: 0 21G<312 639.897 988 1315.51> 1436 20G<382.025 654 1577.13 1855>
VStem: 383 271<1275.29 1456> 1017 236<493.014 975>
LayerCount: 2
Back
SplineSet
73.7275 1456.13 m 1
 227.328 1456.13 l 1
 417.792 223.232 l 0
 702.464 1419.26 l 1
 876.544 1419.26 l 0
 1161.22 223.232 l 1
 1351.68 1456.13 l 25
 1505.28 1456.13 l 1
 1275.9 0 l 1
 1056.77 0 l 1
 790.528 1187.84 l 2
 524.288 0 l 1
 301.056 0 l 2
 73.7275 1456.13 l 1
EndSplineSet
Fore
SplineSet
383 1456 m 1
 654 1456 l 1
 578 498 l 0
 957 1429 l 1
 1271 1429 l 0
 1253 492 l 1
 1584 1456 l 25
 1855 1456 l 1
 1308 0 l 1
 988 0 l 1
 1017 975 l 2
 632 0 l 1
 312 0 l 2
 383 1456 l 1
EndSplineSet
EndChar

StartChar: X
Encoding: 88 88 111
Width: 1326
Flags: W
HStem: 0 21G<64 419.042 915.458 1262> 1435 20G<376 722.526 1212.97 1568> 1435 20G<376 722.526 1212.97 1568>
LayerCount: 2
Back
SplineSet
922 0 m 25
 67 1455 l 25
1262 0 m 25
 407 1455 l 25
404 0 m 25
 1259 1455 l 25
64 0 m 25
 919 1455 l 25
EndSplineSet
Fore
SplineSet
376 1455 m 0xc0
 716 1455 l 1
 871 980 l 1
 1228 1455 l 1
 1568 1455 l 1
 978 730 l 1
 1262 0 l 1
 922 0 l 1
 765 480 l 1
 404 0 l 1
 64 0 l 1
 658 730 l 1
 376 1455 l 0xc0
EndSplineSet
EndChar

StartChar: Y
Encoding: 89 89 112
Width: 1326
Flags: W
HStem: 0 21G<530 802.261> 1435 20G<376 722.526 1212.97 1568> 1435 20G<376 722.526 1212.97 1568>
LayerCount: 2
Back
SplineSet
65.5361 1456.13 m 1
 233.472 1456.13 l 1
 589.824 856.064 l 1
 946.176 1456.13 l 1
 1114.11 1456.13 l 1
 667.648 747.52 l 1
 667.648 0 l 1
 509.952 0 l 1
 509.952 747.52 l 1
 65.5361 1456.13 l 1
EndSplineSet
Fore
SplineSet
376 1455 m 0xc0
 716 1455 l 1
 871 980 l 1
 1228 1455 l 1
 1568 1455 l 1
 945 690 l 1
 798 0 l 1
 530 0 l 1
 677 690 l 1
 376 1455 l 0xc0
EndSplineSet
EndChar

StartChar: Z
Encoding: 90 90 113
Width: 1378
Flags: W
HStem: 0 240<579 1300> 1216 240<448 1110>
LayerCount: 2
Back
SplineSet
118.784 1456.13 m 1
 1222.66 1456.13 l 1
 358.4 141.312 l 1
 1234.94 141.312 l 1
 1234.94 0 l 1
 90.1123 0 l 1
 962.56 1314.82 l 1
 118.784 1314.82 l 1
 118.784 1456.13 l 1
EndSplineSet
Fore
SplineSet
448 1456 m 1
 1615 1456 l 1
 579 240 l 1
 1351 240 l 1
 1300 0 l 1
 72 0 l 1
 1110 1216 l 1
 397 1216 l 1
 448 1456 l 1
EndSplineSet
EndChar

StartChar: bracketleft
Encoding: 91 91 114
Width: 743
Flags: W
HStem: -98 237<405 602> 1292 240<650 898>
LayerCount: 2
Back
SplineSet
516.096 -96.2559 m 0
 120.832 -96.2559 l 1
 120.832 1529.86 l 0
 516.096 1529.86 l 1
 516.096 1388.54 l 1
 270.336 1388.54 l 1
 270.336 43.0078 l 1
 516.096 43.0078 l 1
 516.096 -96.2559 l 0
EndSplineSet
Fore
SplineSet
602 -98 m 0
 100 -98 l 1
 447 1532 l 0
 949 1532 l 1
 898 1292 l 1
 650 1292 l 1
 405 139 l 1
 653 139 l 1
 602 -98 l 0
EndSplineSet
EndChar

StartChar: backslash
Encoding: 92 92 115
Width: 856
Flags: W
HStem: 0 21G<581.163 895>
VStem: 289 606
LayerCount: 2
Back
SplineSet
679.936 0 m 1
 -38.9121 1544.19 l 1
 133.12 1544.19 l 0
 849.92 0 l 1
 679.936 0 l 1
EndSplineSet
Fore
SplineSet
585 0 m 1
 289 1543 l 1
 581 1543 l 0
 895 0 l 1
 585 0 l 1
EndSplineSet
EndChar

StartChar: bracketright
Encoding: 93 93 116
Width: 743
Flags: W
HStem: -98 239<149 395> 1292 240<445 640>
LayerCount: 2
Back
SplineSet
118.784 -96.2559 m 0
 118.784 45.0557 l 1
 364.544 45.0557 l 1
 364.544 1388.54 l 1
 118.784 1388.54 l 1
 118.784 1529.86 l 1
 514.048 1529.86 l 0
 514.048 -96.2559 l 1
 118.784 -96.2559 l 0
EndSplineSet
Fore
SplineSet
98 -98 m 0
 149 141 l 1
 395 141 l 1
 640 1292 l 1
 394 1292 l 1
 445 1532 l 1
 945 1532 l 0
 598 -98 l 1
 98 -98 l 0
EndSplineSet
EndChar

StartChar: asciicircum
Encoding: 94 94 117
Width: 1081
Flags: W
HStem: 1151 341<663 723>
LayerCount: 2
Back
SplineSet
811.008 1148.93 m 1
 622.592 1148.93 l 1
 466.944 1361.92 l 1
 309.248 1150.98 l 0
 122.88 1150.98 l 1
 399.36 1492.99 l 1
 530.432 1492.99 l 1
 811.008 1148.93 l 1
EndSplineSet
Fore
SplineSet
1170 1148 m 1
 899 1148 l 1
 801 1309 l 1
 644 1151 l 0
 367 1151 l 1
 723 1492 l 1
 959 1492 l 1
 1170 1148 l 1
EndSplineSet
EndChar

StartChar: underscore
Encoding: 95 95 118
Width: 1241
Flags: W
HStem: -281 240<69 1107>
LayerCount: 2
Back
SplineSet
77.8242 -231.424 m 1
 77.8242 -90.1123 l 1
 1167.36 -90.1123 l 1
 1167.36 -231.424 l 1
 77.8242 -231.424 l 1
EndSplineSet
Fore
SplineSet
18 -281 m 1
 69 -41 l 1
 1158 -41 l 1
 1107 -281 l 1
 18 -281 l 1
EndSplineSet
EndChar

StartChar: grave
Encoding: 96 96 119
Width: 536
Flags: W
HStem: 1528 417
VStem: 458 419
LayerCount: 2
Back
SplineSet
432.128 1300.48 m 1
 270.336 1300.48 l 2
 96.2559 1554.43 l 2
 253.952 1554.43 l 1
 432.128 1300.48 l 1
EndSplineSet
Fore
SplineSet
732 1533 m 2
 470 1746 l 2
 462 1753 458 1763 458 1776 c 0
 458 1784 458 1793 460 1802 c 0
 462 1813 465 1824 471 1836 c 0
 481 1858 493 1875 507 1888 c 1
 518 1899 533 1911 549 1921 c 0
 565 1931 582 1938 597 1942 c 0
 604 1944 610 1945 616 1945 c 0
 627 1945 635 1942 642 1935 c 1
 873 1688 l 2
 876 1685 877 1680 877 1675 c 0
 877 1670 876 1663 875 1657 c 0
 873 1648 871 1638 864 1626 c 0
 854 1606 843 1591 833 1581 c 256
 823 1571 810 1561 795 1550 c 0
 780 1539 767 1533 755 1530 c 0
 751 1529 748 1528 745 1528 c 0
 740 1528 735 1530 732 1533 c 2
EndSplineSet
EndChar

StartChar: a
Encoding: 97 97 120
Width: 1080
Flags: W
HStem: -29 220<360.789 620.32> 0 21G<721 982.262> 524 217<498.931 761.681> 897 205<474.369 812.076>
VStem: 156.219 248.785<233.621 432.566> 867.03 256.07<578.891 843.299>
LayerCount: 2
Back
SplineSet
720 -477 m 4
 720 -695 849 -785 1086 -785 c 5
 1085 -547 l 5
 994 -547 978 -529 978 -473 c 4
 978 738 l 5
 720 738 l 5
 720 581 l 21
 651 690 529 764 413 764 c 4
 149 764 34 500 34 196 c 4
 34 -108 151 -365 413 -364 c 5
 529 -364 651 -288 720 -179 c 5
 720 -477 l 4
294 201 m 4
 294 446 409 530 506 530 c 5
 603 530 729 454 728 201 c 5
 728 -54 603 -130 506 -130 c 4
 412 -130 294 -23 294 201 c 4
EndSplineSet
Fore
SplineSet
646 524 m 1xbc
 524 524 426 442 408 356 c 1
 405.991596045 346.404292216 405.004063351 336.895731978 405.004063351 327.574334989 c 0
 405.004063351 253.354198709 467.612515694 191 576 191 c 1
 698 191 785 270 803 356 c 1
 805.28577839 366.920941198 806.426619798 377.777378905 806.426619798 388.409585707 c 0
 806.426619798 461.503659304 752.507502021 524 646 524 c 1xbc
608 741 m 1
 748 741 833 654 841 576 c 1
 859 658 l 0
 864.508037537 684.131154827 867.029810657 707.489349838 867.029810657 728.35622229 c 0
 867.029810657 870.392291116 750.190610379 897 663 897 c 1
 563 897 494 868 435 844 c 9
 367 1008 l 17
 436 1056 599 1102 706 1102 c 1
 931.168804206 1102 1123.10025966 1008.93542351 1123.10025966 749.806981433 c 0
 1123.10025966 707.420957226 1117.96501249 660.591789529 1107 609 c 10
 1043 305 l 2
 978 0 l 1
 721 0 l 1x7c
 750 136 l 1
 708 58 588 -29 448 -29 c 1
 274.41903545 -29 156.219316466 92.8387402438 156.219316466 267.986977002 c 0
 156.219316466 296.662609508 159.387650167 326.767198663 166 358 c 1
 213 580 410 741 608 741 c 1
EndSplineSet
EndChar

StartChar: b
Encoding: 98 98 121
Width: 1122
Flags: W
HStem: -28 234<531.124 747.761> 0 21G<119 381.204> 866 234<749.45 1017.95> 1434 20G<423.75 686>
VStem: 931.529 268.728<455.571 811.084>
LayerCount: 2
Back
SplineSet
377 0 m 9
 119 0 l 1
 119 1454 l 1
 377 1454 l 1
 377 912 l 17
 434 1016 557 1102 694 1102 c 0
 886 1102 1013.97 916.986 1014 538 c 2
 1014 0 l 1
 756 0 l 0
 756 537 l 2
 756 812 656 866.89 576 866.89 c 0
 496 866.89 377 810 377 536 c 2
 377 0 l 9
270.336 0 m 17
 118.784 0 l 1
 118.784 1454.08 l 1
 270.336 1454.08 l 1
 270.336 899.072 l 17
 331.776 995.328 405.504 1091.58 550.912 1091.58 c 0
 802.816 1091.58 923.648 823.296 923.648 540.672 c 0
 923.648 258.048 835.584 -28.6719 512 -28.6719 c 1
 348.16 -28.6719 270.336 139.264 270.336 139.264 c 0
 270.336 0 l 17
770.048 536.576 m 0
 770.048 770.048 688.128 956.416 561.152 956.416 c 1
 421.888 956.416 266.24 794.624 266.24 536.576 c 1
 266.24 245.76 409.6 106.496 522.24 106.496 c 0
 671.744 106.496 770.048 262.144 770.048 536.576 c 0
EndSplineSet
Fore
SplineSet
377 0 m 17x78
 119 0 l 1x78
 428 1454 l 1
 686 1454 l 1
 572 917 l 17
 664 1026 802 1100 918 1100 c 0
 1117.89115189 1100 1200.25652205 948.649724978 1200.25652205 743.182905741 c 0
 1200.25652205 677.285836359 1191.78437548 605.82230994 1176 532 c 0
 1111 228 940 -28 678 -28 c 1xb8
 562 -28 456 48 410 157 c 1
 377 0 l 17x78
917 537 m 0
 927.043806802 584.321782049 931.528874623 625.637141439 931.528874623 661.500928369 c 0
 931.528874623 811.315436242 853.264437311 866 775 866 c 1
 678 866 537 790 483 537 c 1
 473.076218334 490.137697689 468.657400707 449.320723984 468.657400707 413.909804141 c 0
 468.657400707 256.633124047 555.826052252 206 635 206 c 0xb8
 729 206 869 313 917 537 c 0
EndSplineSet
EndChar

StartChar: c
Encoding: 99 99 122
Width: 1047
Flags: W
HStem: -29 232<527.02 771.492> 870 230<646.467 884.944>
VStem: 181.408 268.998<284.323 626.618>
LayerCount: 2
Back
SplineSet
1362 0 m 21
 348 537 l 5
 1362 1074 l 13
1024 737 m 9
 776 737 l 17
 741 807 687 870 586 870 c 1
 456 870 348 731 348 532 c 4
 348 334 463 203 606 203 c 1
 713 203 733 262 762 315 c 9
 1024 315 l 1
 991 184 836 -29 606 -29 c 1
 285 -29 86 194 86 532 c 0
 86 871 297 1100 586 1100 c 0
 762 1100 983 975 1024 737 c 9
835.584 960.512 m 9
 735.232 860.16 l 2
 677.888 917.504 618.496 958.464 499.712 958.464 c 1
 368.64 958.464 239.616 778.24 239.616 536.576 c 0
 239.616 294.912 389.12 104.448 520.192 104.448 c 0
 647.168 104.448 694.272 157.696 741.376 217.088 c 9
 839.68 118.784 l 1
 786.432 61.4404 716.8 -28.6719 520.192 -30.7197 c 1
 262.144 -30.7197 86.0156 208.896 86.0156 536.576 c 0
 86.0156 864.256 270.336 1093.63 499.712 1093.63 c 0
 659.456 1093.63 741.376 1052.67 835.584 960.512 c 9
EndSplineSet
Fore
SplineSet
927 756 m 1
 905 817 863 870 771 870 c 0
 641 870 503 731 461 532 c 0
 453.815009357 498.127901254 450.405249825 466.216581456 450.405249825 436.586454047 c 0
 450.405249825 293.013105909 530.463182428 203 649 203 c 1
 756 203 789 262 829 315 c 9
 1019 204 l 0
 926 90 772 -29 600 -29 c 1
 331.649435122 -29 181.407509895 126.847494924 181.407509895 375.444396733 c 0
 181.407509895 424.218232775 187.190780907 476.562277037 199 532 c 0
 271 871 531 1100 820 1100 c 0
 973 1100 1115 1010 1163 868 c 1
 927 756 l 1
EndSplineSet
EndChar

StartChar: d
Encoding: 100 100 123
Width: 1122
Flags: W
HStem: -28 234<347.201 612.695> 0 21G<760 1022.25> 866 234<611.018 837.595> 1434 20G<1064.75 1327>
VStem: 163.298 271.922<268.397 613.987>
LayerCount: 2
Back
SplineSet
741.376 0 m 9
 741.376 139.264 l 0
 741.376 139.264 663.552 -28.6719 499.712 -28.6719 c 1
 176.128 -28.6719 88.0645 258.048 88.0645 540.672 c 0
 88.0645 823.296 208.896 1091.58 460.8 1091.58 c 0
 606.208 1091.58 684.032 987.136 741.376 899.072 c 9
 741.376 1454.08 l 1
 892.928 1454.08 l 1
 892.928 0 l 1
 741.376 0 l 9
241.664 536.576 m 0
 241.664 262.144 339.968 106.496 489.472 106.496 c 0
 602.112 106.496 745.472 245.76 745.472 536.576 c 1
 745.472 794.624 589.824 956.416 450.56 956.416 c 1
 323.584 956.416 241.664 770.048 241.664 536.576 c 0
EndSplineSet
Fore
SplineSet
760 0 m 9x78
 793 157 l 1
 701 48 563 -28 447 -28 c 1xb8
 247.401451808 -28 163.298453229 120.577189452 163.298453229 325.764658284 c 0
 163.298453229 389.913401168 171.518723788 459.595262024 187 532 c 0
 252 836 423 1100 687 1100 c 0
 803 1100 909 1026 955 917 c 9
 1069 1454 l 1
 1327 1454 l 1
 1018 0 l 1
 760 0 l 9x78
448 537 m 0
 439.17804322 495.830868359 435.220269029 458.613885072 435.220269029 425.286967372 c 0
 435.220269029 277.283133918 513.276332028 206 590 206 c 0
 687 206 828 282 882 537 c 1
 891.923781666 583.494754842 896.342599293 624.011726649 896.342599293 659.177777063 c 0
 896.342599293 815.366875953 809.173947748 866 730 866 c 1
 633 866 500 782 448 537 c 0
EndSplineSet
EndChar

StartChar: e
Encoding: 101 101 124
Width: 1093
Flags: W
HStem: -29 230<500.207 763.021> 469 182<501 916.614> 868 230<625.562 865.461>
VStem: 186.399 266.566<250.332 468.205> 916.615 240.858<651.717 820.777>
LayerCount: 2
Back
SplineSet
247.104 604.16 m 1
 768.704 604.16 l 1
 757.76 778.24 667.712 958.464 507.904 958.464 c 0
 348.097 958.464 258.048 774.145 247.104 604.16 c 1
247.073 468.992 m 1
 262.144 286.72 348.033 106.496 507.904 106.496 c 0
 602.145 106.496 668.416 162.464 711.521 242.655 c 0
 844.48 187.616 l 0
 776.159 55.4238 662.368 -28.6719 507.904 -28.6719 c 1
 241.664 -28.6719 88.0645 221.184 88.0645 536.576 c 0
 88.0645 851.968 241.664 1093.63 507.904 1093.63 c 0
 774.144 1093.63 923.648 851.968 923.648 536.576 c 0
 923.648 514.539 924.608 491.84 924.608 468.992 c 1
 247.073 468.992 l 1
EndSplineSet
Fore
SplineSet
501 651 m 1
 914 651 l 1
 915.735841642 663.960950929 916.614610586 676.828159531 916.614610586 689.449752095 c 0
 916.614610586 785.895648095 865.303207429 868 753 868 c 0
 627 868 532 760 501 651 c 1
621 201 m 0
 680 201 741 221 789 267 c 0
 996 169 l 0
 882 38 705 -29 572 -29 c 1
 345.323871192 -29 186.398928863 143.26099541 186.398928863 395.385421577 c 0
 186.398928863 440.236341427 191.428198564 487.61458472 202 537 c 0
 271 860 536 1098 802 1098 c 0
 1023.39793599 1098 1157.47293507 934.355441057 1157.47293507 694.298829397 c 0
 1157.47293507 644.853576343 1151.78480306 592.166541854 1140 537 c 0
 1126 469 l 1
 462 469 l 1
 455.765812718 436.55388892 452.964440815 407.922017149 452.964440815 382.67488935 c 0
 452.964440815 229.731408988 555.768141669 201 621 201 c 0
EndSplineSet
EndChar

StartChar: f
Encoding: 102 102 125
Width: 782
Flags: W
HStem: 0 21G<213 475.242> 844 229<302 392 699 815> 1260 229<738.903 943.652>
LayerCount: 2
Back
SplineSet
405.504 937.984 m 0
 405.504 0 l 1
 253.952 0 l 1
 253.952 937.984 l 0
 114.688 937.984 l 1
 114.688 1073.15 l 1
 253.952 1073.15 l 0
 253.952 1183.74 l 1
 253.952 1380.35 368.64 1480.7 538.624 1480.7 c 0
 622.592 1480.7 653.312 1454.08 712.704 1419.26 c 9
 616.448 1323.01 l 17
 581.632 1339.39 577.536 1345.54 548.864 1345.54 c 0
 450.56 1345.54 405.504 1288.19 405.504 1183.74 c 1
 405.504 1073.15 l 0
 602.112 1073.15 l 1
 602.112 937.984 l 1
 405.504 937.984 l 0
EndSplineSet
Fore
SplineSet
650 844 m 0
 471 0 l 1
 213 0 l 1
 392 844 l 0
 253 844 l 1
 302 1073 l 1
 441 1073 l 0
 458 1153 l 1
 486 1286 681 1489 879 1489 c 0
 963 1489 1041 1458 1088 1400 c 9
 901 1221 l 17
 883 1249 841 1260 821 1260 c 0
 764 1260 733 1233 720 1173 c 1
 699 1073 l 0
 864 1073 l 1
 815 844 l 1
 650 844 l 0
EndSplineSet
EndChar

StartChar: g
Encoding: 103 103 126
Width: 1137
Flags: W
HStem: -461 224<367.18 652.984> -28 234<347.201 612.695> 866 234<611.018 837.595> 1053 20G<983.769 1246>
VStem: 81.2188 246.131<-198.673 -98.3365> 163.298 271.922<268.397 613.987>
LayerCount: 2
Back
SplineSet
241.664 538.624 m 0
 241.664 264.192 339.968 108.544 489.472 108.544 c 0
 602.112 108.544 745.472 247.808 745.472 538.624 c 1
 745.472 796.672 589.824 958.464 450.56 958.464 c 1
 323.584 958.464 241.664 772.096 241.664 538.624 c 0
741.376 141.312 m 1
 731.136 119.808 665.6 -26.624 499.712 -26.624 c 1
 176.128 -26.624 88.0645 260.096 88.0645 542.72 c 0
 88.0645 825.344 208.896 1093.63 460.8 1093.63 c 0
 606.208 1093.63 679.936 1003.52 741.376 901.12 c 9
 741.376 1073.15 l 1
 892.928 1073.15 l 1
 892.928 -18.4316 l 2
 892.928 -290.816 710.656 -448.512 507.904 -448.512 c 1
 243.712 -448.512 129.024 -243.712 112.64 -108.544 c 0
 112.64 -108.544 200.09 -108.544 256 -108.544 c 17
 274.432 -227.328 380.928 -313.344 499.712 -313.344 c 0
 624.64 -313.344 741.376 -225.28 741.376 -32.7676 c 0
 741.376 141.312 l 1
EndSplineSet
Fore
SplineSet
745 -70 m 0xd8
 793 157 l 1
 701 48 563 -28 447 -28 c 1
 247.401451808 -28 163.298453229 120.577189452 163.298453229 325.764658284 c 0
 163.298453229 389.913401168 171.518723788 459.595262024 187 532 c 0
 252 836 423 1100 687 1100 c 0xe4
 803 1100 909 1026 955 917 c 9
 988 1073 l 1
 1246 1073 l 1
 1007 -50 l 0
 962 -262 764 -461 454 -461 c 1
 168.079816209 -461 81.2187609384 -277.253112136 81.2187609384 -134.155482904 c 0
 81.2187609384 -122.103991589 81.8348476028 -110.340816666 83 -99 c 0
 83 -99 232 -92 328 -88 c 17
 327.568669882 -93.1759614167 327.349963388 -98.2797826754 327.349963388 -103.300701774 c 0
 327.349963388 -179.763621201 378.072035067 -237 501 -237 c 0
 624 -237 722 -176 745 -70 c 0xd8
448 537 m 0
 439.17804322 495.830868359 435.220269029 458.613885072 435.220269029 425.286967372 c 0
 435.220269029 277.283133918 513.276332028 206 590 206 c 0
 687 206 828 282 882 537 c 1
 891.923781666 583.494754842 896.342599293 624.011726649 896.342599293 659.177777063 c 0
 896.342599293 815.366875953 809.173947748 866 730 866 c 1
 633 866 500 782 448 537 c 0
EndSplineSet
EndChar

StartChar: h
Encoding: 104 104 127
Width: 1121
Flags: W
HStem: 0 21G<119 381.254 756 1018.25> 867 235<753.921 993.69> 1434 20G<423.75 686>
VStem: 892.554 278.114<530.461 842.959>
LayerCount: 2
Back
SplineSet
270.336 0 m 9
 118.784 0 l 1
 118.784 1454.08 l 1
 270.336 1454.08 l 1
 270.336 921.6 l 17
 339.968 995.328 417.792 1095.68 563.2 1095.68 c 0
 819.2 1095.68 905.216 880.64 905.216 622.592 c 0
 905.216 0 l 1
 753.664 0 l 0
 753.664 618.496 l 0
 753.664 790.528 684.032 958.464 573.44 958.464 c 1
 446.464 958.464 270.336 831.488 270.336 659.456 c 0
 270.336 0 l 9
EndSplineSet
Fore
SplineSet
377 0 m 9
 119 0 l 1
 428 1454 l 1
 686 1454 l 1
 571 912 l 17
 650 1016 792 1102 934 1102 c 0
 1053.37927801 1102 1170.66778209 998.158228245 1170.66778209 798.038172069 c 0
 1170.66778209 758.441851074 1166.07597232 715.076264111 1156 668 c 1
 1014 0 l 1
 756 0 l 0
 870 537 l 2
 885.479643081 610.394859436 892.554088989 668.119012279 892.554088989 713.309229366 c 0
 892.554088989 837.440267126 839.175837021 867 760 867 c 0
 652 867 549 810 491 536 c 2
 377 0 l 9
EndSplineSet
EndChar

StartChar: i
Encoding: 105 105 128
Width: 534
Flags: HMW
LayerCount: 2
Back
SplineSet
120.832 1333.25 m 0
 120.832 1384.45 163.84 1427.46 215.04 1427.46 c 0
 266.24 1427.46 309.248 1384.45 309.248 1333.25 c 0
 309.248 1282.05 266.24 1239.04 215.04 1239.04 c 0
 163.84 1239.04 120.832 1282.05 120.832 1333.25 c 0
139.264 1073.15 m 1
 290.816 1073.15 l 1
 290.816 0 l 1
 139.264 0 l 1
 139.264 1073.15 l 1
EndSplineSet
Fore
SplineSet
405 1334 m 0
 423 1421 506 1494 586 1494 c 0
 655.137720603 1494 702.615955597 1439.47784657 702.615955597 1368.51619506 c 0
 702.615955597 1357.3673565 701.444012864 1345.81272884 699 1334 c 0
 681 1247 598 1174 518 1174 c 0
 448.862279397 1174 401.384044403 1228.52215343 401.384044403 1299.48380494 c 0
 401.384044403 1310.6326435 402.555987136 1322.18727116 405 1334 c 0
367 1073 m 1
 625 1073 l 1
 397 0 l 1
 139 0 l 1
 367 1073 l 1
EndSplineSet
EndChar

StartChar: j
Encoding: 106 106 129
Width: 534
Flags: W
HStem: -432 229<-152.106 80.2354> 1053 20G<362.742 625> 1174 320<476.008 627.992>
VStem: 401.384 301.232<1249.94 1418.06>
LayerCount: 2
Back
SplineSet
120.832 1333.25 m 0
 120.832 1384.45 163.84 1427.46 215.04 1427.46 c 0
 266.24 1427.46 309.248 1384.45 309.248 1333.25 c 0
 309.248 1282.05 266.24 1239.04 215.04 1239.04 c 0
 163.84 1239.04 120.832 1282.05 120.832 1333.25 c 0
-247.808 -352.256 m 9
 -139.264 -260.096 l 1
 -114.688 -282.624 -77.8242 -294.912 -28.6719 -294.912 c 1
 102.4 -294.912 139.264 -208.896 139.264 0 c 1
 139.264 1073.15 l 1
 290.816 1073.15 l 0
 290.816 0 l 1
 290.816 -303.104 176.128 -430.08 -28.6719 -430.08 c 1
 -131.072 -430.08 -198.656 -399.36 -247.808 -352.256 c 9
EndSplineSet
Fore
SplineSet
405 1334 m 0
 423 1421 506 1494 586 1494 c 0
 655.137720603 1494 702.615955597 1439.47784657 702.615955597 1368.51619506 c 0
 702.615955597 1357.3673565 701.444012864 1345.81272884 699 1334 c 0
 681 1247 598 1174 518 1174 c 0
 448.862279397 1174 401.384044403 1228.52215343 401.384044403 1299.48380494 c 0
 401.384044403 1310.6326435 402.555987136 1322.18727116 405 1334 c 0
-307 -333 m 9
 -101 -161 l 1
 -90 -184 -55 -203 -20 -203 c 1
 47 -203 105 -156 119 -92 c 1
 367 1073 l 1
 625 1073 l 0
 390 -35 l 1
 346 -240 113 -432 -80 -432 c 1
 -182 -432 -251 -416 -307 -333 c 9
EndSplineSet
EndChar

StartChar: k
Encoding: 107 107 130
Width: 999
Flags: W
HStem: 0 21G<119 381.234 692.921 996> 1053 20G<866 1201> 1434 20G<423.75 686>
LayerCount: 2
Back
SplineSet
417.792 630.784 m 1
 929.792 0 l 1
 755.712 0 l 1
 315.392 532.48 l 1
 270.336 479.232 l 1
 270.336 0 l 1
 118.784 0 l 1
 118.784 1454.08 l 1
 270.336 1454.08 l 1
 270.336 669.696 l 17
 671.744 1073.15 l 1
 845.824 1073.15 l 1
 417.792 630.784 l 1
EndSplineSet
Fore
SplineSet
705 597 m 1
 996 0 l 1
 702 0 l 1
 490 467 l 1
 471 444 l 1
 377 0 l 1
 119 0 l 1
 428 1454 l 1
 686 1454 l 1
 529 716 l 17
 886 1073 l 1
 1201 1073 l 1
 705 597 l 1
EndSplineSet
EndChar

StartChar: l
Encoding: 108 108 131
Width: 561
Flags: W
HStem: -29 21G<385.507 488.215> 1434 20G<443.756 706>
VStem: 185.364 268.578<94.4702 425.438>
LayerCount: 2
Back
SplineSet
290.816 215.04 m 1
 290.816 135.168 299.008 102.4 327.68 102.4 c 1
 327.68 -28.6719 l 1
 176.128 -28.6719 139.264 12.2881 139.264 210.944 c 1
 139.264 1454.08 l 1
 290.816 1454.08 l 1
 290.816 215.04 l 1
EndSplineSet
Fore
SplineSet
457 281 m 1
 455.054242918 271.854941712 453.941399372 262.974901368 453.941399372 254.60297608 c 0
 453.941399372 219.94833159 473.009450994 194 531 194 c 1
 484 -29 l 1
 287.01448115 -29 185.363660441 18.6673490701 185.363660441 170.272957373 c 0
 185.363660441 201.06923007 189.55812634 236.154356323 198 276 c 1
 448 1454 l 1
 706 1454 l 1
 457 281 l 1
EndSplineSet
EndChar

StartChar: braceleft
Encoding: 123 123 132
Width: 747
Flags: W
HStem: 1348 213<794.025 932>
VStem: 297.524 238.02<45.2232 390.798> 348.231 231.447<165.641 677.008>
LayerCount: 2
Back
SplineSet
79.8721 729.088 m 1
 350.208 815.104 241.664 1275.9 294.912 1400.83 c 1
 356.352 1525.76 487.424 1525.76 624.64 1529.86 c 1
 624.64 1394.69 l 1
 610.304 1396.74 595.968 1398.78 581.632 1398.78 c 0
 528.384 1398.78 456.704 1378.3 430.08 1339.39 c 1
 419.84 1320.96 417.792 1282.05 417.792 1236.99 c 2
 417.792 1191.94 l 2
 417.792 1071.1 393.216 770.048 292.863 729.088 c 1
 393.216 692.224 417.792 364.544 417.792 237.568 c 0
 417.792 194.56 l 0
 417.792 145.408 419.84 106.496 430.08 88.0645 c 1
 456.704 49.1523 528.384 28.6719 581.632 28.6719 c 0
 595.968 28.6719 610.304 30.7197 624.64 32.7676 c 1
 624.64 -102.4 l 1
 487.424 -98.3037 356.352 -98.3037 294.912 26.624 c 1
 241.664 151.552 350.208 647.168 79.8721 729.088 c 1
EndSplineSet
Fore
SplineSet
235 729 m 1xa0
 500 811 520 1327 606 1444 c 0
 691 1559 819 1557 977 1561 c 1
 932 1348 l 1
 822 1348 767 1317 741 1196 c 0
 708 1042 641 782 509 729 c 1
 562.299205985 704.288549952 579.677484708 630.039089105 579.677484708 542.540604477 c 0xa0
 579.677484708 449.457912872 560.010238204 341.381111621 543 262 c 0
 538.029411765 238.867647059 535.544117647 219.061202422 535.544117647 202.154446748 c 0
 535.544117647 130.625865052 580.029411765 111 669 111 c 1
 623 -102 l 1
 467 -99 339 -101 302 14 c 0
 298.869565217 24.1739130435 297.52362949 37.3799621928 297.52362949 53.066491329 c 0xc0
 297.52362949 149.349325337 348.230677765 339.082251977 348.230677765 494.69941367 c 0
 348.230677765 605.292508918 322.620689655 698.655172414 235 729 c 1xa0
EndSplineSet
EndChar

StartChar: bar
Encoding: 124 124 133
Width: 468
Flags: W
HStem: 0 21G<115 362.25> 1434 20G<419.75 667>
VStem: 115 552
LayerCount: 2
Back
SplineSet
114.688 0 m 17
 114.688 1454.08 l 1
 258.048 1454.08 l 1
 258.048 0 l 9
 114.688 0 l 17
EndSplineSet
Fore
SplineSet
115 0 m 17
 424 1454 l 1
 667 1454 l 1
 358 0 l 9
 115 0 l 17
EndSplineSet
EndChar

StartChar: braceright
Encoding: 125 125 134
Width: 747
Flags: W
HStem: -102 213<145 287.572>
VStem: 496.323 231.447<780.292 1292.81> 540.553 237.924<1067.72 1412.81>
LayerCount: 2
Back
SplineSet
667.648 729.088 m 1
 397.312 647.168 505.856 157.696 452.608 32.7676 c 1
 391.168 -92.1602 260.096 -92.1602 122.88 -96.2559 c 1
 122.88 38.9121 l 1
 137.216 36.8643 151.552 34.8164 165.888 34.8164 c 0
 219.136 34.8164 290.816 55.2959 317.44 94.208 c 1
 327.68 112.64 329.728 151.552 329.728 200.704 c 0
 329.728 243.712 l 0
 329.728 370.688 354.304 692.224 454.656 729.088 c 1
 354.304 770.048 329.728 1071.1 329.728 1191.94 c 2
 329.728 1236.99 l 2
 329.728 1282.05 327.68 1320.96 317.44 1339.39 c 1
 290.816 1378.3 219.136 1398.78 165.888 1398.78 c 0
 151.552 1398.78 137.216 1396.74 122.88 1394.69 c 1
 122.88 1529.86 l 1
 260.096 1525.76 391.168 1525.76 452.608 1400.83 c 1
 505.856 1275.9 397.312 815.104 667.648 729.088 c 1
EndSplineSet
Fore
SplineSet
841 729 m 1xc0
 576 649 556 131 470 14 c 0
 385 -101 257 -99 99 -102 c 1
 145 111 l 1
 255 111 309 141 335 262 c 0
 368 416 435 678 567 729 c 1
 513.700794015 754.68052652 496.322515292 828.95995463 496.322515292 916.231848792 c 0xc0
 496.322515292 1009.07348879 515.989761796 1116.61888838 533 1196 c 0
 538.030250619 1219.4100125 540.552617767 1239.4512263 540.552617767 1256.55090988 c 0
 540.552617767 1327.83484902 496.718170457 1348 408 1348 c 1
 453 1561 l 1
 609 1557 737 1559 774 1444 c 0
 777.130434783 1433.82608696 778.47637051 1420.63516068 778.47637051 1404.97493219 c 0xa0
 778.47637051 1308.85352976 727.769322235 1119.70314843 727.769322235 964.177375046 c 0
 727.769322235 853.649227111 753.379310345 760.103448276 841 729 c 1xc0
EndSplineSet
EndChar

StartChar: asciitilde
Encoding: 126 126 135
Width: 759
Flags: W
HStem: 512 247<580.224 747.167> 664 247<308.198 453.246>
LayerCount: 2
Back
SplineSet
53.248 763.904 m 17
 98.3037 800.768 157.696 860.16 235.52 860.16 c 0
 333.824 860.16 397.312 708.608 501.76 708.608 c 1
 571.392 708.608 628.736 761.856 690.176 806.912 c 9
 690.176 661.504 l 17
 628.736 614.4 575.488 563.2 501.76 563.2 c 0
 387.072 563.2 315.392 714.752 233.472 714.752 c 0
 155.648 714.752 108.544 663.552 53.248 618.496 c 9
 53.248 763.904 l 17
EndSplineSet
Fore
SplineSet
225 808 m 17x40
 278 845 352 911 430 911 c 0x40
 528 911 569 759 673 759 c 1
 743 759 822 825 874 866 c 9
 819 606 l 17
 776 578 704 512 621 512 c 0x80
 506 512 456 664 374 664 c 0
 297 664 246 612 174 567 c 9
 225 808 l 17x40
EndSplineSet
EndChar

StartChar: .notdef
Encoding: 127 127 136
Width: 1409
Flags: W
HStem: -29 242<619.9 922.029> 345 161<728.064 856.623> 975 120<820.271 985.14> 1249 240<814.02 1129.09>
VStem: 234.916 284.113<324.555 831.119> 712 161<369.751 481.248> 1227.11 284.968<667.536 1146.95>
LayerCount: 2
Fore
SplineSet
898 621 m 2
 884 557 l 1
 753 557 l 1
 774 652 l 2
 777 668 783 683 792 697 c 0
 801 711 813 723 824 733 c 0
 835 743 848 753 861 762 c 0
 874 771 888 781 902 790 c 0
 916 799 928 809 939 819 c 0
 950 829 961 841 970 854 c 0
 979 867 986 881 989 897 c 0
 993 915 990 931 983 943 c 0
 976 955 965 963 952 968 c 0
 939 973 925 975 908 975 c 0
 882 975 860 966 839 949 c 0
 818 932 804 911 796 885 c 1
 669 905 l 1
 687 960 718 1005 766 1041 c 0
 814 1077 870 1095 932 1095 c 0
 956 1095 978 1092 1000 1087 c 0
 1022 1082 1042 1074 1060 1063 c 0
 1078 1052 1092 1039 1104 1024 c 0
 1116 1009 1123 990 1128 969 c 0
 1130.25245122 959.539704893 1131.28725368 949.470585408 1131.28725368 938.97548784 c 0
 1131.28725368 926.173526867 1129.74754878 912.73774392 1127 899 c 0
 1122 875 1113 853 1103 832 c 0
 1093 811 1081 794 1068 780 c 0
 1055 766 1041 753 1027 742 c 0
 1013 731 998 721 984 712 c 0
 970 703 958 694 946 685 c 0
 934 676 923 666 915 655 c 0
 907 644 901 633 898 621 c 2
712 425 m 0
 717 447 728 466 747 482 c 0
 766 498 788 506 810 506 c 0
 832 506 848 498 861 482 c 0
 874 466 878 447 873 425 c 0
 868 403 856 385 837 369 c 0
 818 353 797 345 775 345 c 0
 753 345 736 353 723 369 c 0
 710 385 707 403 712 425 c 0
1207 754 m 0
 1220 815 1226 873 1227 928 c 0
 1227.07142857 931.928571429 1227.10714286 935.846938776 1227.10714286 939.754737609 c 0
 1227.10714286 990.556122449 1221.07142857 1039.57142857 1209 1086 c 0
 1196 1136 1169 1174 1130 1204 c 0
 1091 1234 1041 1249 980 1249 c 0
 931 1249 884 1239 841 1219 c 0
 798 1199 761 1172 730 1140 c 0
 699 1108 669 1070 644 1026 c 0
 619 982 598 938 582 893 c 0
 566 848 553 802 543 754 c 0
 532 702 524 651 521 602 c 0
 519.757359313 581.703535444 519.029437252 561.578643763 519.029437252 541.554257145 c 0
 519.029437252 513.235498012 520.485281374 485.117749006 524 457 c 0
 530 409 541 367 559 332 c 0
 577 297 602 268 636 246 c 0
 670 224 711 213 760 213 c 0
 809 213 856 224 900 246 c 0
 944 268 982 297 1013 332 c 0
 1044 367 1075 409 1101 457 c 0
 1127 505 1150 553 1166 602 c 0
 1182 651 1196 702 1207 754 c 0
260 754 m 0
 274 821 296 888 323 954 c 0
 350 1020 386 1085 431 1150 c 0
 476 1215 527 1272 584 1322 c 0
 641 1372 707 1412 785 1443 c 0
 863 1474 944 1489 1031 1489 c 0
 1118 1489 1195 1474 1259 1443 c 0
 1323 1412 1372 1372 1408 1323 c 0
 1444 1274 1470 1216 1487 1151 c 0
 1503.14570696 1089.26641456 1512.07525189 1026.63080887 1512.07525189 963.949874372 c 0
 1512.07525189 960.633334184 1512.05025253 957.316667092 1512 954 c 0
 1511 888 1503 821 1489 754 c 0
 1474 683 1452 612 1424 542 c 0
 1396 472 1359 402 1313 332 c 0
 1267 262 1214 201 1157 148 c 0
 1100 95 1033 53 955 20 c 0
 877 -13 796 -29 709 -29 c 0
 623 -29 548 -13 484 20 c 0
 420 53 370 95 335 148 c 0
 300 201 274 262 258 331 c 0
 242.89164944 396.15476179 234.9164944 462.20117302 234.9164944 529.13923369 c 0
 234.9164944 533.08971684 234.94427191 537.04330561 235 541 c 0
 236 612 245 683 260 754 c 0
EndSplineSet
EndChar

StartChar: exclamdown
Encoding: 161 161 137
Width: 309
Flags: W
HStem: -29 21G<78.0471 128.5> 1053 20G<320.5 350.169> 1159 328<303.353 472.25>
VStem: -19.8643 571.864
LayerCount: 2
Fore
SplineSet
224 1014 m 1
 231 1048 306 1073 335 1073 c 1
 365.337704013 1073 423.538361959 1050.52987586 423.538361959 1019.22346709 c 0
 423.538361959 1017.50809279 423.363627247 1015.76618949 423 1014 c 1
 262 65 l 1
 251 12 154 -29 103 -29 c 1
 53.0942384838 -29 -19.8642858822 9.12572317476 -19.8642858822 54.4865814635 c 0
 -19.8642858822 57.299028546 -19.5838185819 60.1392889489 -19 63 c 1
 224 1014 l 1
552 1323 m 0
 533 1232 443 1159 353 1159 c 0
 273.79762322 1159 220.350899208 1214.29890153 220.350899208 1288.6345875 c 0
 220.350899208 1299.70729075 221.536759987 1311.20237678 224 1323 c 0
 243 1413 332 1487 423 1487 c 0
 501.464030548 1487 555.605674568 1430.75448115 555.605674568 1356.69715312 c 0
 555.605674568 1345.80906761 554.435371329 1334.53596945 552 1323 c 0
EndSplineSet
EndChar

StartChar: cent
Encoding: 162 162 138
Width: 884
Flags: W
HStem: 760 448<564 715.473>
VStem: 193.525 249.429<499.7 700.949>
LayerCount: 2
Back
SplineSet
370.688 278.528 m 1
 204.8 299.008 69.6318 434.176 69.6318 657.408 c 0
 69.6318 872.448 241.664 962.561 366.592 993.28 c 1
 366.592 1208.32 l 1
 501.76 1208.32 l 1
 501.76 993.28 l 1
 581.632 972.8 647.168 927.744 700.416 880.64 c 9
 610.304 786.432 l 2
 581.632 815.104 528.384 866.304 423.936 866.304 c 1
 313.344 866.304 212.992 778.24 212.992 653.312 c 0
 212.992 499.712 303.104 405.504 430.08 405.504 c 0
 512 405.504 581.632 438.272 638.976 512 c 9
 729.088 421.888 l 1
 688.128 356.352 604.16 305.152 505.856 274.432 c 1
 505.856 77.8242 l 1
 370.688 77.8242 l 1
 370.688 278.528 l 1
EndSplineSet
Fore
SplineSet
375 293 m 1
 269.244508459 311.176725109 193.524774706 398.981797818 193.524774706 537.239228218 c 0
 193.524774706 566.320163262 196.874805884 597.633237312 204 631 c 0
 246 827 408 948 514 976 c 1
 564 1208 l 1
 794 1208 l 1
 745 977 l 1
 797 966 874 907 910 837 c 9
 724 709 l 2
 723 709 l 0
 715 709 695 760 610 760 c 1
 534 760 461 696 447 629 c 0
 444.314944278 616.24598532 442.953512145 603.548295047 442.953512145 591.247206075 c 0
 442.953512145 530.247237668 476.432174507 479 548 479 c 0
 633 479 652 513 690 544 c 9
 822 408 l 1
 753 340 671 291 604 285 c 1
 560 78 l 1
 330 78 l 1
 375 293 l 1
EndSplineSet
EndChar

StartChar: sterling
Encoding: 163 163 139
Width: 1267
Flags: W
HStem: 0 231<547 1090.73> 549 229<239 411 738 1047> 1247 228<880.823 1031.04>
LayerCount: 2
Back
SplineSet
301.056 595.968 m 1
 73.7275 595.968 l 1
 73.7275 731.136 l 1
 311.296 731.136 l 1
 311.296 1200.13 389.12 1466.37 585.729 1466.37 c 0
 729.088 1466.37 839.68 1376.26 913.408 1169.41 c 1
 770.048 1163.26 l 1
 749.568 1245.18 692.224 1333.25 585.729 1333.25 c 0
 520.192 1333.25 464.896 1093.63 464.896 933.888 c 2
 464.896 808.96 l 1
 464.896 731.136 l 1
 823.296 731.136 l 1
 823.296 595.968 l 1
 458.752 595.968 l 1
 447.914 444.25 391.381 252.543 352.256 135.168 c 1
 856.064 135.168 l 1
 888.832 137.216 923.648 139.264 972.8 206.848 c 1
 1052.67 92.1602 l 1
 1005.57 20.4805 923.648 12.2881 843.776 0 c 1
 135.168 0 l 1
 168.001 131.332 287.58 380.356 301.056 595.968 c 1
EndSplineSet
Fore
SplineSet
411 549 m 1
 191 549 l 1
 239 778 l 1
 476 778 l 1
 570 1222 719 1475 1006 1475 c 0
 1172 1475 1259 1372 1283 1138 c 1
 1048 1116 l 1
 1046 1179 1038 1247 957 1247 c 0
 868 1247 800 1070 775 952 c 2
 753 846 l 1
 738 778 l 1
 1095 778 l 1
 1047 549 l 1
 692 549 l 1
 652 444 613 321 547 231 c 1
 1010 231 l 1
 1053 231 1099 279 1119 308 c 1
 1233 156 l 1
 1153 35 1049 0 958 0 c 1
 135 0 l 1
 193 121 356 350 411 549 c 1
EndSplineSet
EndChar

StartChar: currency
Encoding: 164 164 140
Width: 987
Flags: W
HStem: 406 249<557.443 688.959> 852 251<618.28 745.944> 858 334<306 342 586.462 640 1005 1116>
VStem: 295.369 255.245<663.019 821.124> 752.526 253.827<686.778 845.14>
LayerCount: 2
Back
SplineSet
143.36 753.664 m 4
 143.36 945.849 299.336 1101.82 491.521 1101.82 c 4
 683.704 1101.82 839.68 945.849 839.68 753.664 c 4
 839.68 561.479 683.704 405.504 491.521 405.504 c 4
 299.336 405.504 143.36 561.479 143.36 753.664 c 4
393.216 753.664 m 0
 393.216 807.928 437.256 851.968 491.521 851.968 c 0
 545.784 851.968 589.824 807.928 589.824 753.664 c 0
 589.824 699.4 545.784 655.36 491.521 655.36 c 0
 437.256 655.36 393.216 699.4 393.216 753.664 c 0
EndSplineSet
Fore
SplineSet
553 752 m 0xd8
 551.379123755 744.519032713 550.61326638 737.395618773 550.61326638 730.656894286 c 0
 550.61326638 683.348668193 588.358822194 655 633 655 c 0
 684 655 739 701 750 752 c 0
 751.716532815 759.922459147 752.52645489 767.496221855 752.52645489 774.675245903 c 0
 752.52645489 821.865885985 717.529991697 852 675 852 c 0
 620 852 566 812 553 752 c 0xd8
690 424 m 1
 656 410 596 406 580 406 c 0
 563 406 506 409 477 422 c 1
 452 305 l 1
 118 305 l 1
 189 639 l 1
 300 639 l 1
 297.100561815 653.013951225 295.368726657 669.596629107 295.368726657 687.732415807 c 0
 295.368726657 707.126217004 297.349157277 728.296067292 302 750 c 0
 311 791 326 831 342 858 c 1
 235 858 l 1
 306 1192 l 1
 640 1192 l 1xb8
 617 1084 l 1
 651 1098 711 1103 728 1103 c 0xd8
 744 1103 810 1096 830 1084 c 1
 853 1192 l 1
 1187 1192 l 1
 1116 858 l 1
 1005 858 l 1xb8
 1005.74642199 841.95192727 1006.35355753 828.55029701 1006.35355753 815.923712839 c 0
 1006.35355753 794.718002722 1004.64110106 775.698349257 999 750 c 0
 990 708 975 678 955 639 c 1
 1070 639 l 1
 999 305 l 1
 665 305 l 1
 690 424 l 1
EndSplineSet
EndChar

StartChar: yen
Encoding: 165 165 141
Width: 1136
Flags: W
HStem: 0 21G<420 682.281> 285 229<252 481 787 999> 635 229<327 497 967 1073>
LayerCount: 2
Back
SplineSet
460.8 681.984 m 1
 149.504 681.984 l 1
 149.504 817.152 l 1
 407.552 817.152 l 1
 63.4883 1396.74 l 1
 219.136 1396.74 l 1
 542.72 831.488 l 1
 886.784 1396.74 l 1
 1042.43 1396.74 l 1
 669.696 817.152 l 1
 917.504 817.152 l 1
 917.504 681.984 l 1
 612.352 681.984 l 1
 612.352 466.944 l 1
 917.504 466.944 l 1
 917.504 331.776 l 1
 612.352 331.776 l 1
 612.352 0 l 1
 460.8 0 l 1
 460.8 331.776 l 1
 149.504 331.776 l 1
 149.504 466.944 l 1
 460.8 466.944 l 1
 460.8 681.984 l 1
EndSplineSet
Fore
SplineSet
555 635 m 1
 278 635 l 1
 327 864 l 1
 497 864 l 1
 342 1397 l 1
 625 1397 l 1
 748 888 l 1
 1104 1397 l 1
 1366 1397 l 1
 967 864 l 1
 1122 864 l 1
 1073 635 l 1
 813 635 l 1
 787 514 l 1
 1047 514 l 1
 999 285 l 1
 739 285 l 1
 678 0 l 1
 420 0 l 1
 481 285 l 1
 204 285 l 1
 252 514 l 1
 529 514 l 1
 555 635 l 1
EndSplineSet
EndChar

StartChar: brokenbar
Encoding: 166 166 142
Width: 405
Flags: W
HStem: 0 21G<80 328.264>
VStem: 80 549
LayerCount: 2
Back
SplineSet
223.232 665.6 m 17
 223.232 0 l 1
 79.8721 0 l 1
 79.8721 665.6 l 9
 223.232 665.6 l 17
79.8721 768 m 17
 79.8721 1433.6 l 1
 223.232 1433.6 l 1
 223.232 768 l 9
 79.8721 768 l 17
EndSplineSet
Fore
SplineSet
466 666 m 17
 324 0 l 1
 80 0 l 1
 222 666 l 9
 466 666 l 17
243 768 m 17
 385 1434 l 1
 629 1434 l 1
 487 768 l 9
 243 768 l 17
EndSplineSet
EndChar

StartChar: section
Encoding: 167 167 143
Width: 694
Flags: W
HStem: 57 230<341.175 462.739> 821 193<465 601.315> 1112 229<524.907 672.882>
VStem: 197.965 235.596<593.659 813.839> 547.625 248.407<576.002 802.858>
LayerCount: 2
Back
SplineSet
176.128 958.464 m 1
 194.809 963.801 216.384 966.654 241.664 966.656 c 0
 447.896 966.656 657.408 782.336 657.408 530.432 c 0
 657.408 307.2 516.096 104.448 339.968 104.448 c 0
 221.184 104.448 122.395 153.396 40.96 290.816 c 9
 190.464 301.056 l 17
 217.088 264.192 284.672 239.616 323.584 239.616 c 2
 327.68 239.616 l 2
 425.984 239.616 491.521 327.68 512 440.32 c 0
 514.707 455.211 470.452 432.134 446.464 432.128 c 0
 243.46 432.128 32.7676 577.536 32.7676 872.448 c 0
 32.7676 1089.54 159.744 1294.34 348.16 1294.34 c 0
 483.328 1294.34 544.768 1245.18 632.832 1130.5 c 1
 479.232 1114.11 l 0
 454.656 1140.74 397.312 1159.17 364.544 1159.17 c 2
 360.448 1159.17 l 2
 253.952 1159.17 200.704 1069.06 176.128 958.464 c 1
495.616 581.632 m 0
 495.616 698.368 389.12 831.488 239.616 831.488 c 0
 216.423 831.488 201.2 826.798 184.32 817.152 c 1
 184.32 698.368 319.488 567.296 440.32 567.296 c 0
 462.657 567.296 495.616 564.406 495.616 581.632 c 0
EndSplineSet
Fore
SplineSet
493 1005 m 1
 503 1011 514 1014 525 1014 c 0
 674.410599722 1014 796.031689244 875.052448999 796.031689244 671.139938386 c 0
 796.031689244 633.486492864 791.884722123 593.617908894 783 552 c 0
 728 293 533 57 352 57 c 0
 235 57 154 125 114 313 c 9
 338 356 l 17
 337.834302983 354.09448431 337.754404408 352.228435903 337.754404408 350.401854779 c 0
 337.754404408 308.133951593 380.538515304 287 393 287 c 1
 397 287 l 0
 441 287 482 338 505 404 c 1
 489 391 473 385 457 385 c 0
 318.277672259 385 197.964672528 490.683179321 197.964672528 704.301552809 c 0
 197.964672528 749.386210983 203.323785468 799.278636374 215 854 c 0
 268 1105 443 1341 629 1341 c 0
 762 1341 808 1269 858 1099 c 1
 633 1049 l 0
 633.24676372 1051.27022623 633.364435693 1053.46981734 633.364435693 1055.60021585 c 0
 633.364435693 1096.63658651 589.703883536 1112 584 1112 c 0
 544 1112 515 1064 493 1005 c 1
539 592 m 0
 544.75 618.75 547.625 646.4375 547.625 672.921875 c 0
 547.625 752.375 521.75 821 470 821 c 0
 460 821 450 819 441 810 c 1
 435.906552327 786.442804513 433.560562573 762.390165794 433.560562573 739.113399697 c 0
 433.560562573 652.711531162 465.884711237 577 510 577 c 0
 512 577 514 576 517 576 c 0
 526 576 536 578 539 592 c 0
EndSplineSet
EndChar

StartChar: dieresis
Encoding: 168 168 144
Width: 933
Flags: W
HStem: 1593 328<518.002 690.998 989.002 1162>
VStem: 435.996 336.192<1673.02 1840.71> 906.996 336.192<1673.02 1840.71>
LayerCount: 2
Back
SplineSet
536.576 837.632 m 0
 536.576 888.832 579.584 931.84 630.784 931.84 c 0
 681.984 931.84 724.992 888.832 724.992 837.632 c 0
 724.992 786.432 681.984 743.424 630.784 743.424 c 0
 579.584 743.424 536.576 786.432 536.576 837.632 c 0
65.5361 835.584 m 0
 65.5361 886.784 108.544 929.792 159.744 929.792 c 0
 210.944 929.792 253.952 886.784 253.952 835.584 c 0
 253.952 784.384 210.944 741.376 159.744 741.376 c 0
 108.544 741.376 65.5361 784.384 65.5361 835.584 c 0
EndSplineSet
Fore
SplineSet
440 1757 m 0
 450 1802 474 1841 513 1873 c 0
 552 1905 594 1921 639 1921 c 0
 684 1921 720 1905 745 1873 c 0
 763.001128667 1849.95855531 772.188352108 1823.28785552 772.188352108 1793.36121886 c 0
 772.188352108 1781.72568848 770.799548533 1769.5979684 768 1757 c 0
 758 1712 735 1673 696 1641 c 0
 657 1609 615 1593 570 1593 c 0
 525 1593 489 1610 464 1642 c 0
 445.721621678 1665.39632425 435.996180676 1692 435.996180676 1722.2018618 c 0
 435.996180676 1733.30818018 437.311351329 1744.90108098 440 1757 c 0
911 1757 m 0
 921 1802 945 1841 984 1873 c 0
 1023 1905 1065 1921 1110 1921 c 0
 1155 1921 1191 1905 1216 1873 c 0
 1234.00112867 1849.95855531 1243.18835211 1823.28785552 1243.18835211 1793.36121886 c 0
 1243.18835211 1781.72568848 1241.79954853 1769.5979684 1239 1757 c 0
 1229 1712 1206 1673 1167 1641 c 0
 1128 1609 1086 1593 1041 1593 c 0
 996 1593 960 1610 935 1642 c 0
 916.721621678 1665.39632425 906.996180676 1692 906.996180676 1722.2018618 c 0
 906.996180676 1733.30818018 908.311351329 1744.90108098 911 1757 c 0
EndSplineSet
EndChar

StartChar: copyright
Encoding: 169 169 145
Width: 1089
Flags: W
HStem: 193 185<385.54 724.848> 496 159<541.663 688.961> 844 161<560.985 756.471> 1122 176<526.726 869.326>
VStem: 67.2534 183.143<513.306 842.931> 370.139 161.79<664.91 814.719> 1006.56 168.192<648.32 985.284>
LayerCount: 2
Back
SplineSet
-77.8242 745.472 m 4
 -77.8242 1050.71 164.397 1298.43 462.848 1298.43 c 4
 761.299 1298.43 1003.52 1050.71 1003.52 745.472 c 4
 1003.52 440.238 761.299 192.512 462.848 192.512 c 4
 164.397 192.512 -77.8242 440.238 -77.8242 745.472 c 4
654.295 579.216 m 21
 608.952 533.873 540.938 496.087 470.405 496.087 c 4
 329.339 496.087 215.982 609.443 215.982 750.51 c 4
 215.982 891.576 329.339 1004.93 470.405 1004.93 c 4
 540.938 1004.93 608.952 977.224 654.295 931.881 c 13
 540.672 815.104 l 21
 522.24 831.488 495.616 843.776 468.992 843.776 c 4
 417.792 843.776 374.784 800.768 374.784 749.568 c 4
 374.784 698.368 417.792 655.36 468.992 655.36 c 4
 495.616 655.36 526.336 665.6 544.768 681.984 c 13
 654.295 579.216 l 21
99.5322 750.183 m 4
 99.5322 545.28 264.396 378.061 469.299 378.061 c 4
 674.201 378.061 839.065 545.28 839.065 750.183 c 4
 839.065 955.085 674.201 1122.3 469.299 1122.3 c 4
 264.396 1122.3 99.5322 955.085 99.5322 750.183 c 4
EndSplineSet
Fore
SplineSet
80 745 m 0
 145 1051 440 1298 739 1298 c 0
 997.511350467 1298 1174.74892072 1112.1238545 1174.74892072 863.100764347 c 0
 1174.74892072 825.061484776 1170.61329604 785.548747507 1162 745 c 0
 1097 440 802 193 504 193 c 0
 244.610022045 193 67.2534051515 378.892111765 67.2534051515 627.278421927 c 0
 67.2534051515 665.208134164 71.3891256425 704.595128015 80 745 c 0
777 579 m 17
 722 534 646 496 575 496 c 0
 452.599475015 496 370.13859549 581.154338432 370.13859549 696.512497427 c 0
 370.13859549 714.041843778 372.04266489 732.268613815 376 751 c 0
 406 892 543 1005 684 1005 c 0
 755 1005 817 977 852 932 c 9
 714 815 l 17
 698 831 675 844 648 844 c 0
 597 844 545 801 534 750 c 0
 532.600131636 743.382440462 531.929051823 736.910638634 531.929051823 730.654669411 c 0
 531.929051823 687.751972558 563.490298778 655 608 655 c 0
 635 655 668 666 690 682 c 9
 777 579 l 17
259 750 m 0
 253.189510407 722.92840076 250.395957565 696.519481269 250.395957565 671.070319098 c 0
 250.395957565 503.805404833 371.07159924 378 549 378 c 0
 754 378 954 545 998 750 c 0
 1003.77915805 776.925622749 1006.55657633 803.195693133 1006.55657633 828.517913454 c 0
 1006.55657633 995.988083279 885.074377251 1122 707 1122 c 0
 502 1122 303 955 259 750 c 0
EndSplineSet
EndChar

StartChar: guillemotleft
Encoding: 171 171 146
Width: 907
Flags: W
HStem: 536 582
LayerCount: 2
Back
SplineSet
643.072 1118.21 m 1
 778.24 1118.21 l 1
 585.729 827.392 l 1
 778.24 536.576 l 1
 643.072 536.576 l 1
 450.56 827.392 l 1
 643.072 1118.21 l 1
241.664 1118.21 m 1
 376.832 1118.21 l 1
 184.32 827.392 l 1
 376.832 536.576 l 1
 241.664 536.576 l 1
 49.1523 827.392 l 1
 241.664 1118.21 l 1
EndSplineSet
Fore
SplineSet
830 1118 m 1
 1045 1118 l 1
 791 827 l 1
 921 536 l 1
 706 536 l 1
 575 827 l 1
 830 1118 l 1
478 1118 m 1
 697 1118 l 1
 443 827 l 1
 569 536 l 1
 354 536 l 1
 227 827 l 1
 478 1118 l 1
EndSplineSet
EndChar

StartChar: logicalnot
Encoding: 172 172 147
Width: 1120
Flags: W
HStem: 698 244<343 922>
LayerCount: 2
Back
SplineSet
909.312 544.768 m 1
 774.144 544.768 l 1
 774.144 749.568 l 0
 143.36 749.568 l 1
 143.36 892.928 l 1
 909.312 892.928 l 1
 909.312 544.768 l 1
EndSplineSet
Fore
SplineSet
1078 350 m 1
 848 350 l 1
 922 698 l 0
 291 698 l 1
 343 942 l 1
 1204 942 l 1
 1078 350 l 1
EndSplineSet
EndChar

StartChar: registered
Encoding: 174 174 149
Width: 1224
Flags: W
HStem: 421 198<590.12 905.326> 1097 133<795 898.617> 1322 198<725.558 1034.48>
VStem: 274.83 203.822<727.927 1066.67> 811 151<711 757.592> 900.443 138.625<984.572 1144.63> 1152.72 203.423<871.17 1206.03>
LayerCount: 2
Back
SplineSet
200.704 749.568 m 0
 200.704 479.232 417.792 358.4 591.872 358.4 c 0
 770.048 358.4 985.088 499.712 985.088 749.568 c 0
 985.088 1019.9 745.472 1142.78 591.872 1142.78 c 0
 413.696 1142.78 200.704 1015.81 200.704 749.568 c 0
83.9678 749.568 m 0
 83.9678 1101.82 368.64 1259.52 591.872 1259.52 c 0
 868.352 1259.52 1101.82 1044.48 1101.82 749.568 c 0
 1101.82 446.464 847.872 241.664 591.872 241.664 c 0
 356.352 241.664 83.9678 413.696 83.9678 749.568 c 0
497.664 800.768 m 1
 514.048 800.768 530.432 800.768 548.864 800.768 c 0
 626.688 800.768 702.464 806.912 702.464 866.304 c 1
 702.464 927.744 608.256 931.84 526.336 931.84 c 0
 516.096 931.84 505.856 931.84 497.664 931.84 c 1
 497.664 800.768 l 1
415.744 1009.66 m 0
 497.664 1009.66 l 1
 647.168 1009.66 782.336 972.8 782.336 866.304 c 0
 782.336 765.952 692.224 739.328 595.968 724.992 c 1
 804.864 495.616 l 1
 704.512 495.616 l 1
 497.664 720.896 l 1
 497.664 495.616 l 1
 415.744 495.616 l 1
 415.744 1009.66 l 0
EndSplineSet
Fore
SplineSet
488 963 m 0xf2
 481.612404346 932.722796602 478.652124465 904.567264873 478.652124465 878.485450233 c 0
 478.652124465 700.407389591 616.651779308 619 744 619 c 0
 892 619 1096 744 1143 963 c 0
 1149.6656532 994.064459235 1152.72495089 1022.99357639 1152.72495089 1049.8331054 c 0
 1152.72495089 1236.40027423 1004.9018187 1322 893 1322 c 0
 743 1322 540 1206 488 963 c 0xf2
289 963 m 0
 371 1348 703 1520 935 1520 c 0
 1180.42873175 1520 1356.14844949 1346.46905024 1356.14844949 1092.00686183 c 0
 1356.14844949 1050.97910014 1351.58041231 1007.84743735 1342 963 c 0
 1273 640 965 421 701 421 c 0
 487.15319078 421 274.830095272 561.181661603 274.830095272 834.89516204 c 0
 274.830095272 874.769728928 279.336153064 917.478194698 289 963 c 0
771 982 m 1
 784 982 797 981 812 981 c 0
 874 981 887 986 898 1039 c 1
 899.62539833 1046.97922817 900.442936908 1053.86675396 900.442936908 1059.81098604 c 0xf6
 900.442936908 1094.09477169 873.247610019 1097 817 1097 c 0
 809 1097 801 1097 795 1097 c 1
 771 982 l 1
683 1230 m 0
 823 1230 l 1
 958.658682679 1230 1039.06796028 1193.41593447 1039.06796028 1091.86230622 c 0xf6
 1039.06796028 1075.88626869 1037.07795872 1058.30233796 1033 1039 c 0
 1011 935 960 919 906 893 c 1
 962 711 l 1
 811 711 l 1xfa
 776 878 l 1
 750 883 l 1
 713 712 l 1
 573 712 l 1
 683 1230 l 0
EndSplineSet
EndChar

StartChar: macron
Encoding: 175 175 150
Width: 960
Flags: W
HStem: 1686 127<483 1228>
LayerCount: 2
Back
SplineSet
53.248 1130.5 m 1
 657.408 1130.5 l 1
 657.408 995.328 l 1
 53.248 995.328 l 1
 53.248 1130.5 l 1
EndSplineSet
Fore
SplineSet
483 1813 m 1
 1255 1813 l 1
 1228 1686 l 1
 456 1686 l 1
 483 1813 l 1
EndSplineSet
EndChar

StartChar: degree
Encoding: 176 176 151
Width: 763
Flags: W
HStem: 866 162<427.861 630.188> 1328 162<472.119 674.425>
VStem: 225.982 176.404<1053.98 1257.56> 698.717 176.392<1098.22 1303.14>
LayerCount: 2
Back
SplineSet
156.304 1177.7 m 4
 156.304 1093.96 219.832 1027.54 300.688 1027.54 c 4
 381.542 1027.54 445.071 1093.96 445.071 1177.7 c 4
 445.071 1261.45 381.542 1327.86 300.688 1327.86 c 4
 219.832 1327.86 156.304 1261.45 156.304 1177.7 c 4
-16.5684 1178.03 m 4
 -16.5684 1351.5 124.682 1490.27 300.626 1490.27 c 4
 476.569 1490.27 617.82 1351.5 617.82 1178.03 c 4
 617.82 1004.56 476.569 865.792 300.626 865.792 c 4
 124.682 865.792 -16.5684 1004.56 -16.5684 1178.03 c 4
EndSplineSet
Fore
SplineSet
406 1178 m 0
 403.558591575 1166.60676068 402.386543587 1155.54465887 402.386543587 1144.93346373 c 0
 402.386543587 1077.31050907 449.986337915 1028 520 1028 c 0
 601 1028 677 1094 695 1178 c 0
 697.509277162 1189.5705558 698.716506128 1200.83017473 698.716506128 1211.6406916 c 0
 698.716506128 1278.37812623 652.708252769 1328 583 1328 c 0
 502 1328 424 1261 406 1178 c 0
233 1178 m 0
 270 1351 442 1490 618 1490 c 0
 771.169572338 1490 875.10878366 1384.72276644 875.10878366 1243.37829067 c 0
 875.10878366 1222.31043248 872.799578542 1200.44127264 868 1178 c 0
 831 1005 661 866 485 866 c 0
 331.544101856 866 225.982344289 971.671199053 225.982344289 1113.41474907 c 0
 225.982344289 1134.23819781 228.260614951 1155.84017261 233 1178 c 0
EndSplineSet
EndChar

StartChar: acute
Encoding: 180 180 153
Width: 577
Flags: W
HStem: 1528 417
VStem: 429.343 480.657
LayerCount: 2
Back
SplineSet
90.1123 1247.23 m 1
 260.096 1490.94 l 1
 432.128 1490.94 l 2
 264.192 1247.23 l 2
 90.1123 1247.23 l 1
EndSplineSet
Fore
SplineSet
521 1533 m 2
 516 1530 512 1528 507 1528 c 0
 504 1528 501 1529 497 1530 c 0
 487 1533 476 1539 465 1550 c 0
 454 1561 447 1571 441 1581 c 256
 435 1591 432 1606 430 1626 c 0
 429.585786438 1631.38477631 429.343145751 1636.42640687 429.343145751 1641.19595949 c 0
 429.343145751 1647.9411255 429.828427125 1654.14213562 431 1660 c 0
 432 1665 434 1670 436 1675 c 0
 438 1680 442 1685 447 1688 c 2
 781 1935 l 1
 790 1942 801 1945 812 1945 c 0
 818 1945 824 1944 831 1942 c 0
 844 1938 857 1931 869 1921 c 0
 881 1911 890 1899 897 1888 c 1
 905 1875 910 1858 910 1836 c 0
 910 1824 909 1813 907 1802 c 0
 905 1793 902 1784 898 1776 c 0
 892 1763 884 1753 874 1746 c 2
 521 1533 l 2
EndSplineSet
EndChar

StartChar: microsign
Encoding: 181 181 154
Width: 1128
Flags: W
HStem: -29 234<528.39 707.404> 0 21G<762 1010.25>
LayerCount: 2
Back
SplineSet
286.72 74.0361 m 1
 286.72 -395.264 l 1
 143.36 -395.264 l 1
 143.36 872.448 l 1
 288.768 872.448 l 0
 288.768 413.696 l 0
 288.768 192.512 366.592 110.592 485.376 110.592 c 1
 645.12 110.592 716.8 290.816 716.8 413.696 c 0
 716.8 872.448 l 9
 860.16 872.448 l 1
 860.16 0 l 1
 716.8 0 l 1
 716.8 98.3037 l 17
 657.408 24.5762 575.478 -26.624 495.616 -26.624 c 0
 372.736 -26.624 331.776 28.6719 286.72 74.0361 c 1
EndSplineSet
Fore
SplineSet
404 78 m 1x80
 303 -397 l 1
 59 -397 l 1
 332 889 l 1
 580 889 l 0
 490 467 l 0
 483.4342867 436.003725582 480.505642203 408.364745445 480.505642203 383.780466291 c 0
 480.505642203 247.358019249 570.688370489 205 630 205 c 1x80
 723 205 837 354 861 467 c 0
 951 889 l 9
 1195 889 l 1
 1006 0 l 1
 762 0 l 1x40
 780 84 l 17
 729 8 632 -29 586 -29 c 0
 514 -29 419 22 404 78 c 1x80
EndSplineSet
EndChar

StartChar: paragraph
Encoding: 182 182 155
Width: 1286
Flags: W
HStem: 0 229<784 932> 570 225<904 1003> 1221 220<995.946 1144>
VStem: 314.786 249.097<882.869 1074.05>
LayerCount: 2
Back
SplineSet
634.88 1259.52 m 1
 634.88 747.52 l 1
 669.696 747.52 815.104 739.328 851.968 739.328 c 1
 851.968 1271.81 l 1
 817.152 1271.81 671.744 1259.52 634.88 1259.52 c 1
491.521 1226.75 m 1
 385.024 1191.94 253.952 1134.59 253.952 995.328 c 1
 253.952 839.68 380.928 802.816 491.521 774.145 c 1
 491.521 1226.75 l 1
634.88 135.168 m 1
 851.968 135.168 l 1
 851.968 612.352 l 1
 815.104 612.352 671.744 622.592 634.88 622.592 c 1
 634.88 135.168 l 1
491.521 0 m 1
 491.521 643.072 l 1
 274.432 690.176 110.592 763.904 110.592 995.328 c 0
 110.592 1265.66 446.464 1396.74 806.912 1396.74 c 1
 1003.52 1396.74 l 0
 1003.52 0 l 1
 491.521 0 l 1
EndSplineSet
Fore
SplineSet
995 1221 m 1
 904 795 l 1
 915 795 1038 781 1049 781 c 1
 1144 1229 l 1
 1133 1229 1006 1221 995 1221 c 1
735 1144 m 1
 687 1124 585 1090 568 1008 c 1
 565.169288779 994.672068002 563.882735176 982.540510374 563.882735176 971.474063925 c 0
 563.882735176 888.714367733 635.835798336 865.523127682 672 847 c 1
 735 1144 l 1
784 229 m 1
 932 229 l 1
 1003 565 l 1
 992 565 867 570 856 570 c 1
 784 229 l 1
492 0 m 1
 623 618 l 1
 463.580849867 664.170573536 314.786158989 731.590065583 314.786158989 917.440409387 c 0
 314.786158989 944.930889993 318.041716433 975.012581607 325 1008 c 0
 387 1300 846 1441 1174 1441 c 1
 1446 1441 l 0
 1140 0 l 1
 492 0 l 1
EndSplineSet
EndChar

StartChar: cedilla
Encoding: 184 184 157
Width: 528
Flags: W
HStem: -365 439
VStem: 166.857 224.793<-168.139 -17.224>
LayerCount: 2
Back
SplineSet
106.496 -190.464 m 1
 137.216 -167.936 200.704 -122.88 200.704 -86.0156 c 0
 200.704 -53.248 178.176 -28.6719 145.408 18.4316 c 0
 274.432 73.7275 l 0
 317.44 32.7676 358.4 -28.6719 358.4 -98.3037 c 0
 358.4 -208.896 219.136 -270.336 149.504 -315.392 c 1
 106.496 -190.464 l 1
EndSplineSet
Fore
SplineSet
6 -238 m 1
 55 -213 152 -168 161 -127 c 0
 163.928310093 -113.195109562 166.856620186 -99.3902191244 166.856620186 -84.7068356587 c 0
 166.856620186 -64.2902191244 161.195109562 -42.175149403 142 -16 c 9
 213 19 323 74 323 74 c 0
 360.033812831 33.6742926951 391.649341048 -23.583554027 391.649341048 -89.4127177397 c 0
 391.649341048 -103.5729513 390.186474868 -118.129783951 387 -133 c 0
 363 -244 190 -319 92 -365 c 1
 6 -238 l 1
EndSplineSet
EndChar

StartChar: guillemotright
Encoding: 187 187 158
Width: 983
Flags: W
HStem: 537 582
LayerCount: 2
Back
SplineSet
223.232 1118.21 m 1
 415.744 827.392 l 1
 223.232 536.576 l 1
 88.0645 536.576 l 1
 280.576 827.392 l 1
 88.0645 1118.21 l 1
 223.232 1118.21 l 1
624.64 1118.21 m 1
 817.152 827.392 l 1
 624.64 536.576 l 1
 489.472 536.576 l 1
 681.984 827.392 l 1
 489.472 1118.21 l 1
 624.64 1118.21 l 1
EndSplineSet
Fore
SplineSet
580 1119 m 1
 711 827 l 1
 456 537 l 1
 241 537 l 1
 495 827 l 1
 365 1118 l 1
 580 1119 l 1
932 1119 m 1
 1059 827 l 1
 808 537 l 1
 593 537 l 1
 843 827 l 1
 713 1118 l 1
 932 1119 l 1
EndSplineSet
EndChar

StartChar: questiondown
Encoding: 191 191 159
Width: 954
Flags: W
HStem: -35 244<343.116 609.367> 1167 328<631.353 800.25>
VStem: 24.8681 287.077<242.689 457.671>
LayerCount: 2
Fore
SplineSet
499 932 m 1
 527 1063 l 1
 795 1063 l 1
 753 868 l 0
 702 626 366 604 316 368 c 1
 313.242488644 354.984546401 311.944920113 342.905889448 311.944920113 331.715719433 c 0
 311.944920113 241.454176552 396.368242697 209 480 209 c 1
 589 209 678 291 709 393 c 1
 968 352 l 1
 897 135 695 -35 433 -35 c 1
 215.090109749 -35 24.8681030368 71.7961222215 24.8681030368 281.166701128 c 0
 24.8681030368 307.195221238 27.8079749145 334.809024597 34 364 c 1
 113 735 459 745 499 932 c 1
880 1331 m 0
 861 1240 771 1167 681 1167 c 0
 601.79762322 1167 548.350899208 1222.29890153 548.350899208 1296.6345875 c 0
 548.350899208 1307.70729075 549.536759987 1319.20237678 552 1331 c 0
 571 1421 660 1495 751 1495 c 0
 829.464030548 1495 883.605674568 1438.75448115 883.605674568 1364.69715312 c 0
 883.605674568 1353.80906761 882.435371329 1342.53596945 880 1331 c 0
EndSplineSet
EndChar

StartChar: AE
Encoding: 198 198 166
Width: 1589
Flags: W
HStem: 0 250<1137 1473> 590 250<799 946 1264 1598> 1203 253<1341 1729>
LayerCount: 2
Back
SplineSet
775.021 645.346 m 1
 510.447 645.346 l 0
 251.935 0 l 0
 72.5918 0 l 1
 663.998 1456.13 l 1
 1372.83 1456.13 l 1
 1372.83 1307.21 l 0
 930.878 1307.21 l 0
 930.878 788.392 l 1
 1372.83 788.392 l 1
 1372.83 641.075 l 0
 930.878 641.075 l 0
 930.878 147.318 l 0
 1372.83 147.318 l 1
 1372.83 0 l 1
 775.021 0 l 1
 775.021 645.346 l 1
772.885 1236.75 m 1
 772.885 1311.48 l 1
 570.665 788.392 l 1
 775.021 788.392 l 1
 772.885 1236.75 l 1
EndSplineSet
Fore
SplineSet
946 596 m 1
 668 596 l 0
 308 0 l 0
 10 0 l 1
 895 1456 l 1
 1782 1456 l 1
 1729 1203 l 0
 1341 1203 l 0
 1264 840 l 1
 1652 840 l 1
 1598 590 l 0
 1209 590 l 0
 1137 250 l 0
 1526 250 l 1
 1473 0 l 1
 819 0 l 1
 946 596 l 1
1092 1286 m 1
 799 839 l 1
 997 839 l 1
 1092 1286 l 1
EndSplineSet
EndChar

StartChar: Eth
Encoding: 208 208 176
Width: 1480
Flags: W
HStem: 0 243<580 927.207> 612 239<316 390 708 904> 1211 245<784 1110.45>
VStem: 1260.32 271.897<643.851 1056.34>
LayerCount: 2
Back
SplineSet
315.392 662.405 m 1
 134.184 662.405 l 1
 134.184 802.979 l 1
 315.392 802.979 l 1
 315.392 1456.13 l 1
 696.483 1456.13 l 1
 1062.83 1456.13 1301.22 1133.12 1301.22 726.303 c 1
 1301.22 319.488 1056.44 0 696.483 0 c 0
 470.549 0 l 1
 315.392 0 l 1
 315.392 662.405 l 1
472.679 662.405 m 1
 472.679 142.704 l 1
 696.483 142.704 l 1
 954.204 142.704 1143.93 379.126 1143.93 726.303 c 1
 1143.93 1073.48 954.204 1312.03 696.483 1312.03 c 1
 472.679 1312.03 l 1
 472.679 802.979 l 1
 773.161 802.979 l 1
 773.161 662.405 l 1
 472.679 662.405 l 1
EndSplineSet
Fore
SplineSet
390 612 m 1
 265 612 l 1
 316 851 l 1
 441 851 l 1
 569 1456 l 1
 1005 1456 l 1
 1342.73619306 1456 1532.21622574 1226.87684304 1532.21622574 912.017911028 c 0
 1532.21622574 853.039409178 1525.56779899 791.05263246 1512 727 c 1
 1425 320 1090 0 696 0 c 0
 471 0 l 1
 260 0 l 1
 390 612 l 1
658 612 m 1
 580 243 l 1
 748 243 l 1
 975 243 1184 439 1245 727 c 1
 1255.35326312 775.711254374 1260.31965693 821.829897848 1260.31965693 864.832780666 c 0
 1260.31965693 1075.19695906 1141.47228313 1211 953 1211 c 1
 784 1211 l 1
 708 851 l 1
 955 851 l 1
 904 612 l 1
 658 612 l 1
EndSplineSet
EndChar

StartChar: figuredash
Encoding: 8210 8210 186
Width: 1177
Flags: W
HStem: 426 240<210 1203>
LayerCount: 2
Back
SplineSet
159.744 675.84 m 1
 927.744 675.84 l 1
 927.744 540.672 l 1
 159.744 540.672 l 1
 159.744 675.84 l 1
EndSplineSet
Fore
SplineSet
210 666 m 1
 1254 666 l 1
 1203 426 l 1
 159 426 l 1
 210 666 l 1
EndSplineSet
EndChar

StartChar: endash
Encoding: 8211 8211 187
Width: 1343
Flags: W
HStem: 426 240<261 1311>
LayerCount: 2
Back
SplineSet
159.744 675.84 m 1
 845.824 675.84 l 1
 845.824 540.672 l 1
 159.744 540.672 l 1
 159.744 675.84 l 1
EndSplineSet
Fore
SplineSet
261 666 m 1
 1362 666 l 1
 1311 426 l 1
 210 426 l 1
 261 666 l 1
EndSplineSet
EndChar

StartChar: emdash
Encoding: 8212 8212 188
Width: 1548
Flags: W
HStem: 426 239<207 1583>
LayerCount: 2
Back
SplineSet
139.264 675.84 m 1
 1148.93 675.84 l 1
 1148.93 540.672 l 1
 139.264 540.672 l 1
 139.264 675.84 l 1
EndSplineSet
Fore
SplineSet
207 665 m 1
 1633 665 l 1
 1583 426 l 1
 157 426 l 1
 207 665 l 1
EndSplineSet
EndChar

StartChar: OE
Encoding: 338 338 195
Width: 1661
Flags: W
HStem: -29 242<576.662 813.467> 0 240<1142 1585> 627 239<1275 1655> 1217 238<1350 1844> 1249 240<769.392 1021.62>
VStem: 230.947 279.82<274.87 802.856>
LayerCount: 2
Fore
SplineSet
823 0 m 9x74
 824 7 l 17
 763 -16 696 -29 619 -29 c 0
 306.982993853 -29 230.947372986 238.445569983 230.947372986 480.67732636 c 0
 230.947372986 583.917545754 244.75925239 682.577672964 260 754 c 0
 310 990 496 1489 941 1489 c 0xac
 1018 1489 1081 1477 1132 1455 c 1
 1894 1456 l 1
 1844 1217 l 0
 1350 1217 l 0
 1329 1119 l 1
 1275 866 l 1
 1310 866 l 1
 1706 866 l 1
 1655 627 l 0
 1259 627 l 1
 1224 627 l 0
 1169 368 l 1
 1142 240 l 0
 1636 240 l 0
 1585 0 l 0
 823 0 l 9x74
1061 1118 m 1
 1050 1196 1004 1249 890 1249 c 0
 670 1249 571 885 543 754 c 1
 531.133306011 697.303573164 510.767283141 585.941008298 510.767283141 478.916480307 c 0
 510.767283141 342.430704717 543.889116575 213 670 213 c 1
 784 213 853 272 899 359 c 1
 1061 1118 l 1
EndSplineSet
EndChar

StartChar: oe
Encoding: 339 339 196
Width: 1627
Flags: W
HStem: -29 230<478.127 675.507 1070.32 1274.1> 469 182<1091 1428.5> 868 230<597.495 804.033 1186.27 1402.51>
VStem: 186.614 252.232<240.053 623.079> 1429.41 241.731<652.793 842.197>
LayerCount: 2
Fore
SplineSet
1091 651 m 1
 1424 651 l 1
 1427.28157871 675.502454361 1429.41448981 699.66988067 1429.41448981 722.476152732 c 0
 1429.41448981 803.916681143 1402.21596693 868 1303 868 c 0
 1177 868 1122 760 1091 651 c 1
844 111 m 1
 756 24 646 -29 519 -29 c 1
 293.625763773 -29 186.613915678 138.894474471 186.613915678 362.725823948 c 0
 186.613915678 417.970779979 193.132830444 476.623281315 206 537 c 0
 271 842 478 1100 759 1100 c 0
 885 1100 972 1048 1024 963 c 1
 1117 1048 1230 1098 1352 1098 c 0
 1564.42808337 1098 1671.14574394 947.346822598 1671.14574394 723.09415735 c 0
 1671.14574394 665.484553394 1664.10285486 603.017711878 1650 537 c 0
 1636 469 l 1
 1052 469 l 1
 1043.77798191 426.208133107 1040.13024438 390.050718946 1040.13024438 359.542489915 c 0
 1040.13024438 226.786413008 1109.20166762 201 1171 201 c 0
 1230 201 1251 221 1299 267 c 0
 1506 169 l 0
 1392 38 1255 -29 1122 -29 c 1
 998 -29 903 23 844 111 c 1
458 537 m 0
 445.101515146 476.538352247 438.846313218 424.669646539 438.846313218 381.141630228 c 0
 438.846313218 262.685909179 485.171338397 206 570 206 c 0
 659 206 726 269 774 402 c 0
 788 441 801 486 812 537 c 1
 823 589 830 634 832 673 c 0
 832.653606124 683.702800275 832.980136509 693.94502451 832.980136509 703.730490182 c 0
 832.980136509 813.717043982 791.728631874 866 710 866 c 1
 594 866 506 762 458 537 c 0
EndSplineSet
EndChar

StartChar: trademark
Encoding: 8482 8482 197
Width: 1529
Flags: W
HStem: 1074 21G<508 696.276 954 1139.26 1245.93 1429.66 1535 1720.27> 1682 170<435 638 822 1050>
LayerCount: 2
Fore
SplineSet
954 1074 m 1
 1120 1852 l 1
 1342 1852 l 1
 1400 1388 l 1
 1660 1852 l 1
 1882 1852 l 1
 1716 1074 l 1
 1535 1074 l 1
 1613 1438 l 1
 1419 1074 l 1
 1248 1074 l 1
 1211 1431 l 1
 1135 1074 l 1
 954 1074 l 1
435 1852 m 1
 1086 1852 l 1
 1050 1682 l 1
 822 1682 l 1
 692 1074 l 1
 508 1074 l 1
 638 1682 l 1
 399 1682 l 1
 435 1852 l 1
EndSplineSet
EndChar

StartChar: dcaron
Encoding: 271 271 209
Width: 1348
GlyphClass: 2
Flags: W
HStem: -28 234<347.201 612.695> 0 21<760 1022.25> 866 234<611.018 837.595> 1434 20<1064.75 1327>
VStem: 163.298 271.922<268.397 613.987> 1363.13 236.207<1279.1 1460.83>
LayerCount: 2
Fore
SplineSet
1596 1385 m 0x3c
 1590 1355 1579 1323 1562 1292 c 0
 1545 1261 1527 1233 1508 1209 c 0
 1489 1185 1470 1165 1454 1149 c 0
 1438 1133 1425 1121 1413 1112 c 1
 1369 1146 l 1
 1376 1156 1385 1172 1398 1194 c 0
 1411 1216 1417 1232 1420 1244 c 0
 1421 1248 1422 1250 1421 1252 c 1
 1400 1258 1384 1272 1373 1295 c 0
 1366.49170649 1308.60825007 1363.13399942 1324.66695627 1363.13399942 1343.17611859 c 0
 1363.13399942 1355.95023892 1364.73330437 1369.89153273 1368 1385 c 0
 1375 1417 1392 1447 1420 1474 c 0
 1448 1501 1478 1514 1507 1514 c 0
 1544 1514 1569 1501 1584 1474 c 0
 1594.22727273 1455.59090909 1599.34090909 1435.78719008 1599.34090909 1414.90580391 c 0
 1599.34090909 1405.16115702 1598.22727273 1395.18181818 1596 1385 c 0x3c
EndSplineSet
Refer: 123 100 N 1 0 0 1 0 0 2
EndChar

StartChar: Dcroat
Encoding: 272 272 210
Width: 1480
GlyphClass: 2
Flags: W
HStem: 0 243<580 931.028> 612 239<316 390 708 904> 1211 245<784 1117.67>
VStem: 1260.74 271.398<635.546 1060.08>
LayerCount: 2
Fore
SplineSet
390 612 m 1
 265 612 l 1
 316 851 l 1
 441 851 l 1
 569 1456 l 1
 1005 1456 l 2
 1103 1456 1190 1437 1265 1399 c 0
 1340 1361 1400 1309 1442 1244 c 0
 1484 1179 1512 1101 1525 1012 c 0
 1529.79260274 979.189104323 1532.13879874 945.562739733 1532.13879874 911.120906232 c 0
 1532.13879874 852.138798743 1525.25810327 790.765163332 1512 727 c 0
 1491 626 1453 531 1402 442 c 0
 1351 353 1290 275 1219 210 c 0
 1148 145 1068 94 977 56 c 0
 886 18 793 0 696 0 c 2
 471 0 l 1
 260 0 l 1
 390 612 l 1
658 612 m 1
 580 243 l 1
 748 243 l 2
 863 243 966 288 1059 378 c 0
 1152 468 1215 584 1245 727 c 0
 1255.50791327 777.087719929 1260.7403839 823.862952618 1260.7403839 867.368670078 c 0
 1260.7403839 948.071393442 1242.73549233 1017.52373982 1207 1076 c 0
 1152 1166 1067 1211 953 1211 c 2
 784 1211 l 1
 708 851 l 1
 955 851 l 1
 904 612 l 1
 658 612 l 1
EndSplineSet
EndChar

StartChar: dcroat
Encoding: 273 273 211
Width: 1122
GlyphClass: 2
Flags: W
HStem: -28 234<347.201 612.695> 0 21G<760 1022.25> 866 234<611.018 837.595> 1140 240<869 1002 1311 1328> 1434 20G<1064.68 1327>
VStem: 163.298 271.922<268.397 613.987>
LayerCount: 2
Fore
SplineSet
448 537 m 0xbc
 439.17804322 495.830868359 435.220269029 458.613885072 435.220269029 425.286967372 c 0
 435.220269029 277.283133918 513.276332028 206 590 206 c 0
 687 206 828 282 882 537 c 0
 891.923781666 583.494754842 896.342599293 624.011726649 896.342599293 659.177777063 c 0
 896.342599293 815.366875953 809.173947748 866 730 866 c 0
 633 866 500 782 448 537 c 0xbc
760 0 m 1x7c
 793 157 l 1
 701 48 563 -28 447 -28 c 0xbc
 247.401451808 -28 163.298453229 120.577189452 163.298453229 325.764658284 c 0
 163.298453229 389.913401168 171.518723788 459.595262024 187 532 c 0
 252 836 423 1100 687 1100 c 0
 803 1100 909 1026 955 917 c 1
 1002 1140 l 1
 818 1140 l 1
 869 1380 l 1
 1053 1380 l 1
 1069 1454 l 1
 1327 1454 l 1
 1311 1380 l 1
 1379 1380 l 1
 1328 1140 l 1
 1260 1140 l 1
 1018 0 l 1
 760 0 l 1x7c
EndSplineSet
EndChar

StartChar: Lcaron
Encoding: 317 317 218
Width: 1220
GlyphClass: 2
Flags: W
HStem: 0 240<434 1099> 1436 20<419.755 692>
VStem: 784.134 236.207<1279.1 1460.83>
LayerCount: 2
Fore
SplineSet
1017 1385 m 0
 1011 1355 1000 1323 983 1292 c 0
 966 1261 948 1233 929 1209 c 0
 910 1185 891 1165 875 1149 c 0
 859 1133 846 1121 834 1112 c 1
 790 1146 l 1
 797 1156 806 1172 819 1194 c 0
 832 1216 838 1232 841 1244 c 0
 842 1248 843 1250 842 1252 c 1
 821 1258 805 1272 794 1295 c 0
 787.491706487 1308.60825007 784.133999421 1324.66695627 784.133999421 1343.17611859 c 0
 784.133999421 1355.95023892 785.733304373 1369.89153273 789 1385 c 0
 796 1417 813 1447 841 1474 c 0
 869 1501 899 1514 928 1514 c 0
 965 1514 990 1501 1005 1474 c 0
 1015.22727273 1455.59090909 1020.34090909 1435.78719008 1020.34090909 1414.90580391 c 0
 1020.34090909 1405.16115702 1019.22727273 1395.18181818 1017 1385 c 0
EndSplineSet
Refer: 99 76 N 1 0 0 1 0 0 2
EndChar

StartChar: lcaron
Encoding: 318 318 219
Width: 772
GlyphClass: 2
Flags: W
HStem: -29 21<385.507 488.215> 1434 20<443.756 706>
VStem: 185.364 268.578<94.4702 425.438> 784.134 236.207<1279.1 1460.83>
LayerCount: 2
Fore
SplineSet
1017 1385 m 0
 1011 1355 1000 1323 983 1292 c 0
 966 1261 948 1233 929 1209 c 0
 910 1185 891 1165 875 1149 c 0
 859 1133 846 1121 834 1112 c 1
 790 1146 l 1
 797 1156 806 1172 819 1194 c 0
 832 1216 838 1232 841 1244 c 0
 842 1248 843 1250 842 1252 c 1
 821 1258 805 1272 794 1295 c 0
 787.491706487 1308.60825007 784.133999421 1324.66695627 784.133999421 1343.17611859 c 0
 784.133999421 1355.95023892 785.733304373 1369.89153273 789 1385 c 0
 796 1417 813 1447 841 1474 c 0
 869 1501 899 1514 928 1514 c 0
 965 1514 990 1501 1005 1474 c 0
 1015.22727273 1455.59090909 1020.34090909 1435.78719008 1020.34090909 1414.90580391 c 0
 1020.34090909 1405.16115702 1019.22727273 1395.18181818 1017 1385 c 0
EndSplineSet
Refer: 131 108 N 1 0 0 1 0 0 2
EndChar

StartChar: Lslash
Encoding: 321 321 220
Width: 1220
GlyphClass: 2
Flags: W
HStem: 0 240<434 1149> 1436 20G<419.758 692>
LayerCount: 2
Fore
SplineSet
85 400 m 1
 134 630 l 1
 270 730 l 1
 424 1456 l 1
 692 1456 l 1
 588 965 l 1
 894 1190 l 1
 843 956 l 1
 539 733 l 1
 434 240 l 1
 1200 240 l 1
 1149 0 l 1
 115 0 l 1
 221 500 l 1
 85 400 l 1
EndSplineSet
EndChar

StartChar: tcaron
Encoding: 357 357 238
Width: 884
GlyphClass: 2
Flags: W
HStem: -15 21<462.869 622.24> 844 229<300 392 699 804>
VStem: 262.207 268.68<119.045 440.828> 913.134 236.207<1279.1 1460.83>
LayerCount: 2
Fore
SplineSet
1146 1385 m 0
 1140 1355 1129 1323 1112 1292 c 0
 1095 1261 1077 1233 1058 1209 c 0
 1039 1185 1020 1165 1004 1149 c 0
 988 1133 975 1121 963 1112 c 1
 919 1146 l 1
 926 1156 935 1172 948 1194 c 0
 961 1216 967 1232 970 1244 c 0
 971 1248 972 1250 971 1252 c 1
 950 1258 934 1272 923 1295 c 0
 916.491706487 1308.60825007 913.133999421 1324.66695627 913.133999421 1343.17611859 c 0
 913.133999421 1355.95023892 914.733304373 1369.89153273 918 1385 c 0
 925 1417 942 1447 970 1474 c 0
 998 1501 1028 1514 1057 1514 c 0
 1094 1514 1119 1501 1134 1474 c 0
 1144.22727273 1455.59090909 1149.34090909 1435.78719008 1149.34090909 1414.90580391 c 0
 1149.34090909 1405.16115702 1148.22727273 1395.18181818 1146 1385 c 0
EndSplineSet
Refer: 40 116 N 1 0 0 1 0 0 2
EndChar

StartChar: circumflex
Encoding: 710 710 247
Width: 1347
GlyphClass: 2
Flags: W
HStem: 1565 341<946 1006>
LayerCount: 2
Fore
SplineSet
1453 1562 m 1
 1182 1562 l 1
 1084 1723 l 1
 927 1565 l 1
 650 1565 l 1
 1006 1906 l 1
 1242 1906 l 1
 1453 1562 l 1
EndSplineSet
EndChar

StartChar: caron
Encoding: 711 711 248
Width: 1347
GlyphClass: 2
Flags: W
HStem: 1562 344
LayerCount: 2
Fore
SplineSet
1526 1906 m 1
 1169 1562 l 1
 933 1562 l 1
 721 1903 l 1
 998 1903 l 1
 1089 1745 l 1
 1255 1906 l 1
 1526 1906 l 1
EndSplineSet
EndChar

StartChar: breve
Encoding: 728 728 249
Width: 1214
GlyphClass: 2
Flags: W
HStem: 1516 236<1009.95 1203.86>
LayerCount: 2
Fore
SplineSet
1169 1768 m 0
 1206 1791 1260 1849 1333 1942 c 1
 1490 1942 l 1
 1489 1932 1486 1921 1484 1911 c 0
 1467 1833 1428 1755 1364 1676 c 0
 1327 1630 1279 1592 1217 1561 c 0
 1159 1531 1102 1516 1049 1516 c 0
 996 1516 947 1531 901 1561 c 0
 853 1592 819 1630 802 1676 c 0
 782.704574948 1726.81128597 772.923826388 1777.20889036 772.923826388 1827.45888522 c 0
 772.923826388 1855.33621027 775.934074196 1883.16810514 782 1911 c 0
 784 1921 787 1932 790 1942 c 1
 951 1942 l 1
 971 1855 999 1798 1036 1769 c 0
 1050 1758 1072 1753 1103 1752 c 1
 1130 1753 1153 1758 1169 1768 c 0
EndSplineSet
EndChar

StartChar: dotaccent
Encoding: 729 729 250
Width: 876
GlyphClass: 2
Flags: W
HStem: 1593 328<755.002 927.998>
VStem: 672.996 336.192<1673.02 1840.71>
LayerCount: 2
Fore
SplineSet
677 1757 m 0
 687 1802 711 1841 750 1873 c 0
 789 1905 831 1921 876 1921 c 0
 921 1921 957 1905 982 1873 c 0
 1000.00112867 1849.95855531 1009.18835211 1823.28785552 1009.18835211 1793.36121886 c 0
 1009.18835211 1781.72568848 1007.79954853 1769.5979684 1005 1757 c 0
 995 1712 972 1673 933 1641 c 0
 894 1609 852 1593 807 1593 c 0
 762 1593 726 1610 701 1642 c 0
 682.721621678 1665.39632425 672.996180676 1692 672.996180676 1722.2018618 c 0
 672.996180676 1733.30818018 674.311351329 1744.90108098 677 1757 c 0
EndSplineSet
EndChar

StartChar: tilde
Encoding: 732 732 251
Width: 1089
GlyphClass: 2
Flags: W
HStem: 1514 247<989.991 1158.9> 1666 247<717.793 867>
LayerCount: 2
Fore
SplineSet
637 1810 m 1x40
 642 1813 653 1821 670 1834 c 0
 687 1847 700 1856 710 1863 c 0
 720 1870 734 1877 750 1886 c 0
 766 1895 782 1902 797 1906 c 0
 812 1910 827 1913 842 1913 c 0x40
 860 1913 877 1908 894 1898 c 0
 911 1888 927 1875 941 1860 c 0
 962 1838 961 1836 982 1814 c 0
 996 1799 1012 1786 1030 1776 c 0
 1048 1766 1066 1761 1085 1761 c 0
 1106 1761 1132 1768 1161 1782 c 0
 1190 1796 1210 1809 1223 1819 c 0
 1236 1829 1257 1845 1286 1868 c 1
 1231 1608 l 1
 1227 1605 1214 1596 1194 1582 c 0
 1174 1568 1158 1558 1145 1550 c 0
 1132 1542 1116 1534 1094 1526 c 0
 1072 1518 1052 1514 1033 1514 c 0x80
 1007 1514 982 1522 957 1538 c 0
 932 1554 913 1571 897 1590 c 0
 881 1609 863 1626 843 1642 c 0
 823 1658 804 1666 786 1666 c 0
 768 1666 749 1663 731 1656 c 0
 713 1649 697 1643 686 1636 c 0
 675 1629 657 1617 635 1602 c 0
 613 1587 596 1576 586 1569 c 1
 637 1810 l 1x40
EndSplineSet
EndChar

StartChar: hungarumlaut
Encoding: 733 733 252
Width: 1298
GlyphClass: 2
Flags: W
HStem: 1484 462
LayerCount: 2
Fore
SplineSet
1192 1493 m 2
 1186 1487 1178 1484 1168 1484 c 0
 1157 1484 1145 1487 1131 1494 c 0
 1117 1501 1106 1509 1097 1516 c 256
 1088 1523 1081 1536 1074 1554 c 0
 1067 1572 1064 1588 1067 1601 c 0
 1068 1606 1070 1611 1074 1615 c 2
 1350 1927 l 1
 1362 1940 1378 1946 1398 1946 c 0
 1413 1946 1427 1942 1443 1936 c 0
 1459 1930 1471 1923 1480 1914 c 1
 1492 1905 1500 1890 1507 1870 c 0
 1511.59797975 1856.86291501 1514.03867197 1844.15728753 1514.03867197 1831.59971285 c 0
 1514.03867197 1825.03953852 1513.372583 1818.51976926 1512 1812 c 0
 1509 1799 1504 1788 1495 1779 c 2
 1192 1493 l 2
803 1493 m 2
 797 1487 789 1484 779 1484 c 0
 768 1484 756 1487 742 1494 c 0
 728 1501 717 1509 708 1516 c 256
 699 1523 691 1536 684 1554 c 0
 679.1 1566.6 676.65 1578.22 676.65 1588.517 c 0
 676.65 1592.93 677.1 1597.1 678 1601 c 0
 679 1606 681 1611 685 1615 c 2
 961 1927 l 1
 973 1940 989 1946 1009 1946 c 0
 1024 1946 1038 1942 1054 1936 c 0
 1070 1930 1082 1923 1091 1914 c 1
 1103 1905 1112 1890 1119 1870 c 0
 1123.30384635 1857.70329614 1125.33955881 1845.7846146 1125.33955881 1834.01153395 c 0
 1125.33955881 1826.63626267 1124.54065923 1819.31813134 1123 1812 c 0
 1120 1799 1115 1788 1106 1779 c 2
 803 1493 l 2
EndSplineSet
EndChar

StartChar: bullet
Encoding: 8226 8226 253
Width: 824
VWidth: 2050
GlyphClass: 2
Flags: W
HStem: 303 626<442.029 650.971>
VStem: 221.697 650.365<515.468 714.846>
LayerCount: 2
Fore
SplineSet
229 615 m 0
 251 719 311 802 407 865 c 0
 472 907 541 929 613 929 c 0
 718 929 793 888 839 806 c 0
 860.934034069 767.615440379 872.062069542 725.472272551 872.062069542 679.892533393 c 0
 872.062069542 658.975081543 869.71842153 637.33386191 865 615 c 0
 843 511 783 429 687 367 c 0
 621 325 551 303 480 303 c 0
 375 303 300 343 254 424 c 0
 232.36184254 461.866775555 221.697353633 503.391440627 221.697353633 548.264815571 c 0
 221.697353633 569.753283167 224.142886309 592.009661864 229 615 c 0
EndSplineSet
EndChar

StartChar: ellipsis
Encoding: 8230 8230 254
Width: 1739
GlyphClass: 2
Flags: W
HStem: -33 328<135.002 308.998 718.002 891.998 1295 1469>
LayerCount: 2
Fore
SplineSet
1218 131 m 0
 1228 176 1252 215 1291 247 c 0
 1330 279 1372 295 1417 295 c 0
 1462 295 1498 279 1523 247 c 0
 1541.00112867 223.958555307 1550.18835211 197.28785552 1550.18835211 167.361218858 c 0
 1550.18835211 155.72568848 1548.79954853 143.5979684 1546 131 c 0
 1536 86 1512 47 1473 15 c 0
 1434 -17 1392 -33 1347 -33 c 0
 1302 -33 1266 -16 1241 16 c 0
 1222.99887133 39.0414446934 1213.81164789 65.1936794663 1213.81164789 94.8300225351 c 0
 1213.81164789 106.35268624 1215.20045147 118.4020316 1218 131 c 0
641 131 m 0
 651 176 675 215 714 247 c 0
 753 279 795 295 840 295 c 0
 885 295 921 279 946 247 c 0
 964.001128667 223.958555307 973.188352108 197.28785552 973.188352108 167.361218858 c 0
 973.188352108 155.72568848 971.799548533 143.5979684 969 131 c 0
 959 86 935 47 896 15 c 0
 857 -17 815 -33 770 -33 c 0
 725 -33 689 -16 664 16 c 0
 645.998871333 39.0414446934 636.811647892 65.1936794663 636.811647892 94.8300225351 c 0
 636.811647892 106.35268624 638.200451467 118.4020316 641 131 c 0
58 131 m 0
 68 176 92 215 131 247 c 0
 170 279 212 295 257 295 c 0
 302 295 338 279 363 247 c 0
 381.001128667 223.958555307 390.188352108 197.28785552 390.188352108 167.361218858 c 0
 390.188352108 155.72568848 388.799548533 143.5979684 386 131 c 0
 376 86 352 47 313 15 c 0
 274 -17 232 -33 187 -33 c 0
 142 -33 106 -16 81 16 c 0
 62.9988713333 39.0414446934 53.8116478916 65.1936794663 53.8116478916 94.8300225351 c 0
 53.8116478916 106.35268624 55.2004514667 118.4020316 58 131 c 0
EndSplineSet
EndChar

StartChar: ordmasculine
Encoding: 186 186 256
Width: 763
Flags: W
HStem: 866 162<426.653 631.395> 1328 162<471.297 676.277>
VStem: 225.657 176.524<1062.95 1259.32> 699.244 176.284<1095.85 1294.73>
LayerCount: 2
Fore
SplineSet
406 1178 m 0
 403.44610281 1166.08181311 402.180579122 1154.72728963 402.180579122 1143.91357974 c 0
 402.180579122 1116.61949525 410.242859799 1092.77077572 426 1072 c 0
 448 1043 479 1028 520 1028 c 0
 561 1028 598 1043 632 1072 c 0
 666 1101 686 1136 695 1178 c 0
 697.799553569 1190.75352182 699.244477476 1203.02324732 699.244477476 1214.74898036 c 0
 699.244477476 1240.71911372 692.156646831 1264.02078372 677 1284 c 0
 655 1313 624 1328 583 1328 c 0
 542 1328 505 1313 471 1284 c 0
 437 1255 415 1219 406 1178 c 0
233 1178 m 0
 251 1265 298 1338 373 1399 c 0
 448 1460 530 1490 618 1490 c 0
 706 1490 774 1460 823 1399 c 0
 858.395798127 1354.93584315 875.528294139 1304.60998271 875.528294139 1247.26854796 c 0
 875.528294139 1225.229648 872.997461913 1202.15439924 868 1178 c 0
 850 1091 804 1018 729 957 c 0
 654 896 573 866 485 866 c 0
 397 866 328 896 279 957 c 0
 243.308866442 1001.43181933 225.656524429 1052.23027096 225.656524429 1110.16825397 c 0
 225.656524429 1131.77274789 228.111028654 1154.36997183 233 1178 c 0
EndSplineSet
EndChar

StartChar: ring
Encoding: 730 730 257
Width: 718
Flags: W
HStem: 1493 117<630.449 795.321> 1825 117<652.901 817.636>
VStem: 489.555 127.797<1641.7 1790> 830.648 127.633<1645.89 1793.3>
LayerCount: 2
Fore
SplineSet
620 1717 m 0
 618.250984267 1708.25492134 617.351706322 1699.93471157 617.351706322 1692.01460061 c 0
 617.351706322 1672.76476401 622.664041954 1655.87844494 634 1641 c 0
 650 1620 672 1610 701 1610 c 0
 730 1610 758 1620 782 1641 c 0
 806 1662 822 1687 828 1717 c 0
 829.749015733 1725.74507866 830.648293678 1734.15026221 830.648293678 1742.19078057 c 0
 830.648293678 1761.73326746 825.335958046 1779.12155506 814 1794 c 0
 798 1815 776 1825 747 1825 c 0
 718 1825 690 1815 666 1794 c 0
 642 1773 626 1747 620 1717 c 0
495 1717 m 0
 508 1779 542 1832 596 1876 c 0
 650 1920 709 1942 772 1942 c 0
 835 1942 885 1920 920 1876 c 0
 945.520833333 1843.91666667 958.28125 1807.04817708 958.28125 1765.39453125 c 0
 958.28125 1749.92317708 956.520833333 1733.79166667 953 1717 c 0
 940 1655 905 1602 852 1558 c 0
 799 1514 739 1493 676 1493 c 0
 613 1493 564 1514 528 1558 c 0
 501.993006908 1589.78632489 489.555038454 1626.26961985 489.555038454 1667.44988487 c 0
 489.555038454 1683.2731164 491.391414172 1699.78982144 495 1717 c 0
EndSplineSet
EndChar

StartChar: ogonek
Encoding: 731 731 258
Width: 528
Flags: W
HStem: -344 439
VStem: 29.4536 230.546<-174.75 -17.7461>
LayerCount: 2
Fore
SplineSet
368 -217 m 1
 228 -344 l 1
 214 -337 200 -328 184 -318 c 0
 168 -308 153 -298 137 -288 c 0
 121 -278 106 -266 92 -252 c 0
 78 -238 65 -225 55 -211 c 0
 45 -197 37 -181 33 -164 c 0
 30.7537887488 -154.453602182 29.4536021822 -144.907204364 29.4536021822 -135.183725606 c 0
 29.4536021822 -127.591862803 30.2462112512 -119.892049369 32 -112 c 0
 48 -38 98 31 184 95 c 1
 327 5 l 1
 311 -9 298 -24 288 -38 c 0
 278 -52 272 -64 269 -72 c 0
 266 -80 263 -91 260 -106 c 0
 258 -115 261 -126 269 -137 c 0
 277 -148 285 -159 296 -168 c 0
 307 -177 320 -186 333 -195 c 0
 346 -204 358 -212 368 -217 c 1
EndSplineSet
EndChar

StartChar: Hbar
Encoding: 294 294 270
Width: 1253
Flags: W
HStem: 0 21G<115 387.263 868 1142.25> 624 240<567 1001> 1074 240<323 343 662 1096 1417 1437> 1436 20G<419.775 692 1172.77 1447>
LayerCount: 2
Fore
SplineSet
424 1456 m 1
 692 1456 l 1
 662 1314 l 1
 1147 1314 l 1
 1177 1456 l 1
 1447 1456 l 1
 1417 1314 l 1
 1488 1314 l 1
 1437 1074 l 1
 1366 1074 l 1
 1138 0 l 1
 868 0 l 1
 1001 624 l 1
 516 624 l 1
 383 0 l 1
 115 0 l 1
 343 1074 l 1
 272 1074 l 1
 323 1314 l 1
 394 1314 l 1
 424 1456 l 1
1096 1074 m 1
 611 1074 l 1
 567 864 l 1
 1052 864 l 1
 1096 1074 l 1
EndSplineSet
EndChar

StartChar: IJ
Encoding: 306 306 276
Width: 1707
Flags: W
HStem: -35 254<977.727 1265.35> 0 21<143 415.245> 1436 20G<447.755 720 1620.77 1893>
VStem: 143 577 659 250<289.033 583.237> 682 247<267.234 383.098 388.91 451.079 454.925 586>
LayerCount: 2
Fore
SplineSet
683 586 m 1xa8
 924 586 l 1
 914 539 909 494 909 453 c 0xa8
 909 412 917 372 929 336 c 0
 941 300 963 271 996 250 c 0
 1029 229 1070 219 1119 219 c 0
 1165 219 1207 229 1244 250 c 0
 1281 271 1313 300 1338 336 c 0
 1363 372 1383 410 1400 451 c 0
 1417 492 1431 537 1441 586 c 2
 1625 1456 l 1
 1893 1456 l 1
 1709 586 l 2
 1683 463 1641 355 1584 263 c 0
 1527 171 1454 98 1365 45 c 0
 1276 -8 1176 -35 1065 -35 c 0
 995 -35 934 -25 881 -4 c 0
 828 17 785 45 753 82 c 0
 721 119 698 164 682 216 c 0xa4
 666 268 659 324 659 386 c 0
 659 448 668 515 683 586 c 1xa8
EndSplineSet
Refer: 96 73 N 1 0 0 1 0 0 2
Ligature2: "'liga' Standard Ligatures in Latin lookup 2-1" I J
EndChar

StartChar: Tbar
Encoding: 358 358 286
Width: 1353
Flags: W
HStem: 0 21G<555 827.241> 514 240<456 664 983 1177> 1216 240<387 813 1081 1538>
LayerCount: 2
Fore
SplineSet
387 1456 m 1
 1589 1456 l 1
 1538 1216 l 1
 1081 1216 l 1
 983 754 l 1
 1228 754 l 1
 1177 514 l 1
 932 514 l 1
 823 0 l 1
 555 0 l 1
 664 514 l 1
 405 514 l 1
 456 754 l 1
 715 754 l 1
 813 1216 l 1
 336 1216 l 1
 387 1456 l 1
EndSplineSet
EndChar

StartChar: hbar
Encoding: 295 295 305
Width: 1121
Flags: W
HStem: 0 21G<119 381.254 756 1018.25> 867 235<753.921 993.69> 1160 240<338 366 675 871> 1434 20G<423.926 686>
VStem: 892.554 278.114<530.461 842.959>
LayerCount: 2
Fore
SplineSet
377 0 m 1
 119 0 l 1
 366 1160 l 1
 287 1160 l 1
 338 1400 l 1
 417 1400 l 1
 428 1454 l 1
 686 1454 l 1
 675 1400 l 1
 922 1400 l 1
 871 1160 l 1
 624 1160 l 1
 571 912 l 1
 650 1016 792 1102 934 1102 c 0
 1053.37927801 1102 1170.66778209 998.158228245 1170.66778209 798.038172069 c 0
 1170.66778209 758.441851074 1166.07597232 715.076264111 1156 668 c 2
 1014 0 l 1
 756 0 l 1
 870 537 l 2
 885.479643081 610.394859436 892.554088989 668.119012279 892.554088989 713.309229366 c 0
 892.554088989 837.440267126 839.175837021 867 760 867 c 0
 652 867 549 810 491 536 c 2
 377 0 l 1
EndSplineSet
EndChar

StartChar: itilde
Encoding: 297 297 306
Width: 534
Flags: W
HStem: 0 21G<139 401.25> 1053 20G<362.75 625> 1196 247<607.991 776.9> 1348 247<335.793 485>
LayerCount: 2
Fore
SplineSet
367 1073 m 1xc0
 625 1073 l 1
 397 0 l 1
 139 0 l 1
 367 1073 l 1xc0
EndSplineSet
Refer: 251 732 S 1 0 0 1 -382 -318 2
EndChar

StartChar: imacron
Encoding: 299 299 307
Width: 534
Flags: W
HStem: 0 21G<139 401.25> 1053 20G<362.75 625> 1287 127<181 926>
LayerCount: 2
Fore
SplineSet
367 1073 m 1
 625 1073 l 1
 397 0 l 1
 139 0 l 1
 367 1073 l 1
EndSplineSet
Refer: 150 175 S 1 0 0 1 -302 -399 2
EndChar

StartChar: ibreve
Encoding: 301 301 308
Width: 534
Flags: W
HStem: 0 21G<139 401.25> 1053 20G<362.75 625> 1128 236<475.953 669.862>
LayerCount: 2
Fore
SplineSet
367 1073 m 1
 625 1073 l 1
 397 0 l 1
 139 0 l 1
 367 1073 l 1
EndSplineSet
Refer: 249 728 S 1 0 0 1 -534 -388 2
EndChar

StartChar: dotlessi
Encoding: 305 305 310
Width: 534
Flags: W
HStem: 0 21G<139 401.25> 1053 20G<362.75 625>
VStem: 139 486
LayerCount: 2
Fore
SplineSet
367 1073 m 1
 625 1073 l 1
 397 0 l 1
 139 0 l 1
 367 1073 l 1
EndSplineSet
EndChar

StartChar: ij
Encoding: 307 307 311
Width: 929
Flags: W
HStem: -432 229<242.196 477.921> 1053 20G<757.742 1020> 1174 320<871.797 1021.89>
VStem: 796.181 301.451<1250.21 1417.79>
LayerCount: 2
Fore
SplineSet
800 1334 m 0
 809 1377 831 1414 867 1446 c 0
 903 1478 941 1494 981 1494 c 0
 1021 1494 1051 1478 1073 1446 c 0
 1089.03370308 1422.67825007 1097.63121839 1396.70071879 1097.63121839 1367.68029698 c 0
 1097.63121839 1356.88151566 1096.44075783 1345.66139853 1094 1334 c 0
 1085 1291 1062 1254 1026 1222 c 0
 990 1190 953 1174 913 1174 c 0
 873 1174 842 1190 820 1222 c 0
 804.242859799 1244.91947666 796.180579122 1270.40390649 796.180579122 1298.82071064 c 0
 796.180579122 1310.07923358 797.44610281 1321.79804676 800 1334 c 0
88 -333 m 1
 294 -161 l 1
 300 -172 311 -182 326 -190 c 0
 341 -198 358 -203 375 -203 c 0
 408 -203 438 -193 464 -172 c 0
 490 -151 507 -124 514 -92 c 2
 762 1073 l 1
 1020 1073 l 1
 785 -35 l 2
 771 -102 738 -166 688 -228 c 0
 638 -290 580 -339 512 -376 c 0
 444 -413 378 -432 315 -432 c 0
 260 -432 215 -425 180 -412 c 0
 145 -399 115 -372 88 -333 c 1
EndSplineSet
Refer: 128 105 N 1 0 0 1 0 0 2
Ligature2: "'liga' Standard Ligatures in Latin lookup 2-1" i j
EndChar

StartChar: jcircumflex
Encoding: 309 309 312
Width: 534
Flags: W
HStem: -432 229<-152.419 82.4598> 1053 20G<362.742 625> 1149 341<406 466>
LayerCount: 2
Fore
SplineSet
-307 -333 m 1
 -101 -161 l 1
 -95 -172 -84 -182 -69 -190 c 0
 -54 -198 -37 -203 -20 -203 c 0
 13 -203 43 -193 69 -172 c 0
 95 -151 112 -124 119 -92 c 2
 367 1073 l 1
 625 1073 l 1
 390 -35 l 2
 376 -102 344 -166 294 -228 c 0
 244 -290 184 -339 116 -376 c 0
 48 -413 -17 -432 -80 -432 c 0
 -135 -432 -181 -425 -216 -412 c 0
 -251 -399 -280 -372 -307 -333 c 1
EndSplineSet
Refer: 247 710 S 1 0 0 1 -540 -416 2
EndChar

StartChar: lslash
Encoding: 322 322 316
Width: 561
Flags: W
HStem: -29 21G<422.5 488.215> 1054 20G<708.99 731.726> 1434 20G<443.761 706>
VStem: 185.617 268.393<104.298 427.562>
LayerCount: 2
Fore
SplineSet
85 400 m 1
 134 630 l 1
 299 751 l 1
 448 1454 l 1
 706 1454 l 1
 605 977 l 1
 736 1074 l 1
 686 840 l 1
 555 745 l 1
 457 281 l 2
 455.009174505 271.377676774 454.009195548 262.553535481 454.009195548 254.527576122 c 0
 454.009195548 214.175858707 479.285931724 194 531 194 c 1
 484 -29 l 1
 361 -29 275 -7 230 38 c 0
 200.504889395 67.4951106047 185.616540611 111.59698303 185.616540611 170.587204239 c 0
 185.616540611 201.59698303 189.730725656 236.720946865 198 276 c 2
 250 521 l 1
 85 400 l 1
EndSplineSet
EndChar

StartChar: eng
Encoding: 331 331 319
Width: 1121
Flags: W
HStem: -432 229<467.581 702.46> 0 21G<119 381.254> 867 235<750.99 952.5> 1054 20G<342.754 605>
VStem: 892.966 278.176<528.609 842.774>
LayerCount: 2
Fore
SplineSet
313 -333 m 1xd8
 519 -161 l 1
 525 -172 536 -182 551 -190 c 0
 566 -198 583 -203 600 -203 c 0
 633 -203 663 -193 689 -172 c 0
 715 -151 732 -124 739 -92 c 2
 759 0 l 1
 756 0 l 1
 870 537 l 2
 881 591 890 638 892 677 c 0
 892.633249581 689.348366824 892.965745388 700.994974843 892.965745388 711.908082023 c 0
 892.965745388 735.46197652 891.416876048 755.598994969 888 772 c 0
 883 796 875 816 862 830 c 0
 849 844 835 854 819 859 c 0
 803 864 783 867 760 867 c 0xe8
 737 867 716 864 697 859 c 0
 678 854 657 844 636 829 c 0
 615 814 597 795 580 771 c 0
 563 747 548 716 532 676 c 0
 516 636 502 589 491 536 c 2
 377 0 l 1
 119 0 l 1
 347 1074 l 1
 605 1074 l 1xd8
 571 912 l 1
 613 967 667 1012 733 1048 c 0
 799 1084 865 1102 934 1102 c 0xe8
 971 1102 1006 1093 1038 1074 c 0
 1070 1055 1097 1027 1121 992 c 0
 1145 957 1161 912 1168 855 c 0
 1170.12208149 837.720193622 1171.14133118 819.980873996 1171.14133118 801.75418042 c 0
 1171.14133118 759.857426367 1165.75583703 715.385494145 1156 668 c 2
 1010 -35 l 2
 996 -102 964 -166 914 -228 c 0
 864 -290 804 -339 736 -376 c 0
 668 -413 603 -432 540 -432 c 0
 485 -432 439 -425 404 -412 c 0
 369 -399 340 -372 313 -333 c 1xd8
EndSplineSet
EndChar

StartChar: tbar
Encoding: 359 359 325
Width: 706
Flags: W
HStem: -15 21G<462.869 622.24> 514 240<200 322 631 764> 844 229<300 392 699 804>
VStem: 262.207 268.68<119.045 442.141>
LayerCount: 2
Fore
SplineSet
392 844 m 1
 251 844 l 1
 300 1073 l 1
 441 1073 l 1
 494 1323 l 1
 752 1323 l 1
 699 1073 l 1
 853 1073 l 1
 804 844 l 1
 650 844 l 1
 631 754 l 1
 815 754 l 1
 764 514 l 1
 580 514 l 1
 534 297 l 2
 531.869021709 286.937046957 530.88732618 277.925267173 530.88732618 269.856807477 c 0
 530.88732618 209.772402777 585.327445729 202 625 202 c 2
 664 202 l 1
 618 -15 l 1
 579 -15 l 2
 346.738332978 -15 262.207459158 50.9512469655 262.207459158 187.138481194 c 0
 262.207459158 218.648092892 266.732564157 253.917576016 275 293 c 2
 322 514 l 1
 149 514 l 1
 200 754 l 1
 373 754 l 1
 392 844 l 1
EndSplineSet
EndChar

StartChar: Eng
Encoding: 330 330 334
Width: 1344
Flags: W
HStem: 0 229<764.196 999.921> 1248 235<962.978 1238.5> 1435 20G<423.753 686> 1435 20G<423.753 686>
VStem: 1178.25 278.344<910.406 1223.25>
LayerCount: 2
Fore
SplineSet
610 99 m 1xc8
 816 271 l 1
 822 260 832 250 847 242 c 0
 862 234 880 229 897 229 c 0
 930 229 960 239 986 260 c 0
 1012 281 1029 308 1036 340 c 2
 1056 432 l 1
 1053 432 l 1
 1156 918 l 2
 1167 972 1175 1019 1177 1058 c 0
 1177.77485177 1073.10960958 1178.24950591 1087.16852744 1178.24950591 1100.11860141 c 0
 1178.24950591 1120.59446621 1177.06287057 1138.29822128 1174 1153 c 0
 1169 1177 1160 1196 1147 1210 c 0
 1134 1224 1122 1235 1106 1240 c 0
 1090 1245 1069 1248 1046 1248 c 0xc8
 961 1248 886 1233 819 1202 c 0
 756 1172 686 1123 612 1056 c 0
 603 1048 590 1002 572 917 c 2
 377 0 l 1
 119 0 l 1
 428 1455 l 1
 686 1455 l 1xa8
 652 1293 l 1
 799 1367 896 1413 943 1431 c 0
 1033 1466 1126 1483 1220 1483 c 0
 1257 1483 1291 1473 1323 1454 c 0
 1355 1435 1384 1409 1408 1374 c 0
 1432 1339 1446 1293 1453 1236 c 0
 1455.36977388 1217.38034807 1456.59346037 1197.84382622 1456.59346037 1177.46803354 c 0
 1456.59346037 1137.65641768 1451.92191311 1094.6408003 1442 1049 c 2
 1306 397 l 2
 1292 331 1259 266 1209 204 c 0
 1159 142 1102 93 1034 56 c 0
 966 19 900 0 837 0 c 0
 782 0 737 7 702 20 c 0
 667 33 637 60 610 99 c 1xc8
EndSplineSet
EndChar

StartChar: kgreenlandic
Encoding: 312 312 335
Width: 1029
Flags: W
HStem: 0 20G<23 295.241 670.217 1021> 1054 19G<246.758 519 894.81 1254>
LayerCount: 2
Fore
SplineSet
379 414 m 1
 291 -1 l 1
 23 -1 l 1
 251 1074 l 1
 519 1074 l 1
 434 672 l 1
 919 1073 l 1
 1254 1073 l 1
 636 549 l 1
 1021 0 l 1
 685 0 l 1
 379 414 l 1
EndSplineSet
EndChar

StartChar: twosuperior
Encoding: 178 178 336
Width: 728
Flags: W
HStem: 885 160<504 785> 1511 160<568.407 706.318>
VStem: 712.324 175.676<1353.8 1501.67>
LayerCount: 2
Fore
SplineSet
540 1418 m 1
 394 1465 l 1
 402 1482 l 2
 424 1535 463 1581 519 1617 c 0
 575 1653 630 1671 685 1671 c 0
 708 1671 729 1668 750 1664 c 0
 771 1660 792 1652 811 1640 c 0
 830 1628 847 1613 860 1595 c 0
 873 1577 882 1553 886 1524 c 0
 887.333333333 1514.33333333 888 1504.22222222 888 1493.7037037 c 0
 888 1472.66666667 885.333333333 1450 880 1426 c 0
 871 1383 857 1346 838 1316 c 0
 819 1286 789 1254 750 1222 c 0
 731 1206 712 1193 696 1183 c 2
 615 1130 l 2
 577 1105 551 1087 536 1074 c 0
 521 1061 510 1051 504 1045 c 1
 819 1045 l 1
 785 885 l 1
 260 885 l 1
 264 905 l 2
 270 934 278 960 286 982 c 0
 294 1004 303 1027 316 1051 c 0
 329 1075 344 1098 364 1120 c 0
 384 1142 406 1164 433 1186 c 0
 449 1199 470 1214 493 1230 c 0
 516 1246 537 1259 555 1270 c 0
 573 1281 592 1293 611 1306 c 0
 630 1319 645 1332 657 1343 c 0
 669 1354 682 1367 691 1381 c 0
 700 1395 706 1411 709 1426 c 0
 711.199601592 1436.63140769 712.324037148 1446.18764935 712.324037148 1454.71799449 c 0
 712.324037148 1469.45644086 708.967397081 1481.13240371 702 1490 c 0
 691 1504 674 1511 651 1511 c 0
 629 1511 609 1505 594 1494 c 0
 579 1483 564 1463 550 1437 c 2
 540 1418 l 1
EndSplineSet
EndChar

StartChar: onesuperior
Encoding: 185 185 337
Width: 502
Flags: W
VStem: 365 376
LayerCount: 2
Fore
SplineSet
532 1488 m 1
 365 1488 l 1
 581 1653 l 1
 741 1653 l 1
 578 885 l 1
 404 885 l 1
 532 1488 l 1
EndSplineSet
EndChar

StartChar: onequarter
Encoding: 188 188 338
Width: 1250
Flags: W
HStem: -54 160<878 951 1158 1194>
LayerCount: 2
Fore
SplineSet
1158 104 m 1
 1227 104 l 1
 1194 -54 l 1
 1125 -54 l 1
 1088 -228 l 1
 914 -228 l 1
 951 -54 l 1
 658 -54 l 1
 685 74 l 1
 1075 540 l 1
 1251 540 l 1
 1158 104 l 1
1025 277 m 1
 878 106 l 1
 989 106 l 1
 1025 277 l 1
514 1488 m 1
 347 1488 l 1
 563 1653 l 1
 723 1653 l 1
 560 885 l 1
 386 885 l 1
 514 1488 l 1
229 -144 m 1
 19 -144 l 1
 1338 1596 l 1
 1539 1596 l 1
 229 -144 l 1
EndSplineSet
MultipleSubs2: "'frac' Diagonal Fractions in Latin lookup 1-2" one fraction four
MultipleSubs2: "'frac' Diagonal Fractions in Latin lookup 1-1" one slash four
LCarets2: 2 0 0 
EndChar

StartChar: onehalf
Encoding: 189 189 339
Width: 1250
Flags: W
HStem: -228 160<879 1160> 398 160<942.821 1080.15>
VStem: 1086.32 174.961<239.334 376.687>
LayerCount: 2
Fore
SplineSet
514 1488 m 1
 347 1488 l 1
 563 1653 l 1
 723 1653 l 1
 560 885 l 1
 386 885 l 1
 514 1488 l 1
915 305 m 1
 769 352 l 1
 776 369 l 2
 798 422 837 468 893 504 c 0
 949 540 1005 558 1060 558 c 0
 1083 558 1103 555 1124 551 c 0
 1145 547 1166 539 1185 527 c 0
 1204 515 1221 500 1234 482 c 0
 1247 464 1255 440 1259 411 c 0
 1260.48912529 400.203841625 1261.28528367 388.714716332 1261.28528367 376.687411306 c 0
 1261.28528367 356.40768325 1259.02174941 334.597872362 1254 312 c 0
 1245 269 1231 233 1212 203 c 0
 1193 173 1163 141 1124 109 c 0
 1105 93 1087 80 1071 70 c 2
 990 17 l 2
 952 -8 926 -26 911 -39 c 0
 896 -52 885 -62 879 -68 c 1
 1194 -68 l 1
 1160 -228 l 1
 636 -228 l 1
 640 -208 l 2
 646 -179 652 -153 660 -131 c 0
 668 -109 678 -86 691 -62 c 0
 704 -38 718 -15 738 7 c 0
 758 29 781 51 808 73 c 0
 824 86 845 101 868 117 c 0
 891 133 911 146 929 157 c 0
 947 168 966 180 985 193 c 0
 1004 206 1020 219 1032 230 c 0
 1044 241 1056 254 1065 268 c 0
 1074 282 1080 297 1083 312 c 0
 1085.19960159 322.631407695 1086.32403715 332.322045108 1086.32403715 341.02264272 c 0
 1086.32403715 356.055245639 1082.96739708 368.132403715 1076 377 c 0
 1065 391 1049 398 1026 398 c 0
 1004 398 983 392 968 381 c 0
 953 370 939 350 925 324 c 2
 915 305 l 1
229 -144 m 1
 19 -144 l 1
 1338 1596 l 1
 1539 1596 l 1
 229 -144 l 1
EndSplineSet
MultipleSubs2: "'frac' Diagonal Fractions in Latin lookup 1-2" one fraction two
MultipleSubs2: "'frac' Diagonal Fractions in Latin lookup 1-1" one slash two
LCarets2: 2 0 0 
EndChar

StartChar: threequarters
Encoding: 190 190 340
Width: 1314
Flags: W
HStem: -54 160<950 1023 1230 1266> 885 161<463.746 625.484> 1224 146<497 628.292> 1466 21G<461.907 543> 1526 158<543.42 672.288>
VStem: 646.729 179.021<1068.39 1196.35>
LayerCount: 2
Fore
SplineSet
262 1094 m 1
 438 1139 l 1
 442 1123 l 2
 447 1096 458 1076 474 1064 c 0
 490 1052 509 1046 530 1046 c 0
 559 1046 584 1054 606 1071 c 0
 628 1088 640 1109 645 1134 c 0
 646.160865618 1139.80432809 646.728783283 1145.33913438 646.728783283 1150.64196431 c 0
 646.728783283 1168.17911622 640.517403146 1183.17911622 629 1197 c 0
 614 1215 593 1224 568 1224 c 2
 466 1224 l 1
 497 1370 l 1
 587 1370 l 2
 606 1370 626 1379 644 1395 c 0
 662 1411 672 1428 676 1446 c 0
 682 1472 679 1492 668 1505 c 0
 657 1518 640 1526 618 1526 c 0
 603 1526 589 1522 575 1513 c 0
 561 1504 551 1494 543 1482 c 2
 534 1466 l 1
 379 1509 l 1
 391 1530 l 2
 452 1633 539 1684 651 1684 c 0
 683 1684 711 1680 737 1672 c 0
 763 1664 787 1652 807 1635 c 0
 827 1618 839 1595 847 1566 c 0
 851 1551.5 853 1536 853 1519.5 c 0
 853 1503 851 1485.5 847 1467 c 0
 835 1412 807 1366 759 1330 c 1
 766 1324 772 1317 780 1308 c 0
 788 1299 798 1286 807 1269 c 0
 816 1252 823 1232 825 1209 c 0
 825.5 1203.25 825.75 1197.375 825.75 1191.375 c 0
 825.75 1173.375 823.5 1154.25 819 1134 c 0
 812 1101 799 1068 779 1038 c 0
 759 1008 735 982 706 959 c 0
 677 936 645 918 608 905 c 0
 571 892 534 885 496 885 c 0
 456 885 420 892 389 904 c 0
 358 916 331 937 308 966 c 0
 285 995 272 1031 265 1074 c 2
 262 1094 l 1
1230 104 m 1
 1299 104 l 1
 1266 -54 l 1
 1197 -54 l 1
 1160 -228 l 1
 986 -228 l 1
 1023 -54 l 1
 730 -54 l 1
 757 74 l 1
 1147 540 l 1
 1323 540 l 1
 1230 104 l 1
1097 277 m 1
 950 106 l 1
 1061 106 l 1
 1097 277 l 1
301 -144 m 1
 91 -144 l 1
 1410 1596 l 1
 1611 1596 l 1
 301 -144 l 1
EndSplineSet
MultipleSubs2: "'frac' Diagonal Fractions in Latin lookup 1-2" three fraction four
MultipleSubs2: "'frac' Diagonal Fractions in Latin lookup 1-1" three slash four
LCarets2: 2 0 0 
EndChar

StartChar: threesuperior
Encoding: 179 179 341
Width: 667
Flags: W
HStem: 885 161<482.746 644.632> 1224 146<515 647.292> 1466 21G<480.907 562> 1526 158<562.42 691.287>
VStem: 666.601 178.335<1069.88 1196.34>
LayerCount: 2
Fore
SplineSet
281 1094 m 1
 457 1139 l 1
 461 1123 l 2
 466 1096 477 1076 493 1064 c 0
 509 1052 528 1046 549 1046 c 0
 578 1046 603 1054 625 1071 c 0
 647 1088 660 1109 665 1134 c 0
 666.080589093 1139.40294546 666.600695248 1144.57235637 666.600695248 1149.53851531 c 0
 666.600695248 1167.55129892 659.758232721 1182.89012073 648 1197 c 0
 633 1215 612 1224 587 1224 c 2
 484 1224 l 1
 515 1370 l 1
 607 1370 l 2
 626 1370 645 1379 663 1395 c 0
 681 1411 691 1428 695 1446 c 0
 701 1472 698 1492 687 1505 c 0
 676 1518 658 1526 636 1526 c 0
 621 1526 608 1522 594 1513 c 0
 580 1504 570 1494 562 1482 c 2
 553 1466 l 1
 398 1509 l 1
 410 1530 l 2
 471 1633 558 1684 670 1684 c 0
 702 1684 730 1680 756 1672 c 0
 782 1664 806 1652 826 1635 c 0
 846 1618 858 1595 866 1566 c 0
 870 1551.5 872 1536 872 1519.5 c 0
 872 1503 870 1485.5 866 1467 c 0
 854 1412 826 1366 778 1330 c 1
 785 1324 791 1317 799 1308 c 0
 807 1299 817 1286 826 1269 c 0
 835 1252 842 1232 844 1209 c 0
 844.605551275 1202.03616033 844.936083291 1194.88897449 844.936083291 1187.55844248 c 0
 844.936083291 1170.67787194 843.183346174 1152.82505778 839 1134 c 0
 832 1101 818 1068 798 1038 c 0
 778 1008 754 982 725 959 c 0
 696 936 664 918 627 905 c 0
 590 892 553 885 515 885 c 0
 475 885 439 892 408 904 c 0
 377 916 350 937 327 966 c 0
 304 995 291 1031 284 1074 c 2
 281 1094 l 1
EndSplineSet
EndChar

StartChar: ordfeminine
Encoding: 170 170 342
Width: 584
Flags: W
HStem: 1060 160<444.76 615.067> 1336 158<477.382 614.312> 1490 21G<436.597 496.429> 1522 152<436.137 649.719>
VStem: 296.239 175.761<1237.56 1325.1>
LayerCount: 2
Fore
SplineSet
561 1336 m 0xd8
 538 1336 519 1330 502 1318 c 0
 485 1306 475 1292 472 1277 c 0
 469 1262 474 1249 485 1237 c 0
 496 1225 514 1220 537 1220 c 0
 560 1220 579 1226 593 1237 c 0
 607 1248 616 1262 619 1277 c 0
 622 1293 619 1306 610 1318 c 0
 601 1330 584 1336 561 1336 c 0xd8
579 1095 m 1
 576 1093 571 1091 568 1089 c 0
 535 1069 500 1060 462 1060 c 0
 404 1060 360 1081 329 1123 c 0
 307.159090909 1152.59090909 296.238636364 1186.64927686 296.238636364 1225.87455391 c 0
 296.238636364 1242.32386364 298.159090909 1259.68181818 302 1278 c 0
 315 1340 344 1391 393 1432 c 0
 442 1473 496 1494 553 1494 c 0xd8
 591 1494 622 1485 647 1465 c 2
 652 1462 l 1
 652 1465 651 1468 651 1471 c 0
 649 1482 646 1491 641 1497 c 0
 636 1503 630 1508 622 1512 c 0
 613 1516 605 1519 597 1520 c 0
 588 1521 580 1522 570 1522 c 0
 556 1522 543 1521 529 1518 c 0
 515 1515 505 1513 499 1511 c 2
 445 1490 l 1xb8
 395 1609 l 1
 416 1623 l 2
 437 1637 466 1648 503 1659 c 0
 540 1669 573 1674 602 1674 c 0
 631 1674 657 1673 682 1667 c 0
 707 1661 731 1652 752 1638 c 0
 774 1624 790 1607 804 1586 c 0
 818 1565 826 1538 829 1507 c 0
 829.874507866 1497.96341871 830.324146839 1488.67191609 830.324146839 1479.10072205 c 0
 830.324146839 1455.83792658 827.667979023 1430.92290036 822 1404 c 2
 752 1074 l 1
 574 1074 l 1
 579 1095 l 1
EndSplineSet
EndChar

StartChar: florin
Encoding: 402 402 343
Width: 1282
Flags: W
HStem: 1072 20G<620.465 787> 1088 21G<1445.5 1451.58> 1232 204<1124.37 1380.95>
LayerCount: 2
Fore
SplineSet
927 862 m 1x60
 233 -336 l 1
 -43 -336 l 1
 662 874 l 1
 508 877 l 1
 632 1092 l 1xa0
 787 1088 l 1
 859 1219 l 2
 875 1249 903 1280 942 1312 c 0
 979 1342 1019 1368 1064 1390 c 0
 1112 1413 1159 1427 1207 1431 c 0
 1243 1434 1273 1436 1298 1436 c 0
 1330 1436 1354 1433 1368 1428 c 0
 1447 1397 1491 1362 1501 1324 c 1
 1447 1088 l 1
 1444 1130 1423 1166 1382 1196 c 0
 1360 1213 1313 1225 1242 1232 c 0
 1240 1232 1239 1232 1237 1232 c 0
 1218 1232 1186 1223 1146 1205 c 0
 1131 1198 1113 1180 1094 1150 c 2
 1044 1074 l 1
 1234 1074 l 1
 1111 859 l 1
 927 862 l 1x60
EndSplineSet
EndChar

StartChar: fraction
Encoding: 8260 8260 344
Width: 320
Flags: W
LayerCount: 2
Fore
SplineSet
-290 -144 m 1
 -500 -144 l 1
 819 1596 l 1
 1020 1596 l 1
 -290 -144 l 1
EndSplineSet
EndChar

